{"glyphs":{"0":{"ha":915,"x_min":-7,"x_max":929,"o":"m 736 851 q 885 773 840 839 q 910 603 929 707 q 874 431 894 515 q 829 263 853 347 q 731 102 801 160 q 565 18 660 44 q 358 -9 463 -11 q 150 10 254 -7 q 69 44 101 18 q 19 106 38 71 q -3 181 1 142 q 0 254 -7 221 q 35 417 19 336 q 76 576 51 497 q 133 706 101 654 q 209 790 164 757 q 317 838 254 822 q 465 861 379 854 q 516 863 490 864 q 567 861 542 861 q 568 865 567 864 q 652 860 610 863 q 736 851 694 857 m 711 581 q 694 659 721 631 q 619 690 668 688 q 521 694 571 693 q 422 690 471 694 q 338 663 375 686 q 283 592 300 640 q 249 479 265 535 q 221 365 232 424 q 208 267 208 306 q 227 208 208 229 q 285 176 246 186 q 390 164 325 167 q 436 166 408 165 q 493 171 464 167 q 580 203 542 178 q 633 278 618 229 q 711 581 682 426 z "},"1":{"ha":493,"x_min":43,"x_max":489,"o":"m 240 819 q 359 838 299 826 q 489 861 419 850 q 447 695 465 772 q 410 542 429 618 q 347 284 378 411 q 286 26 315 157 q 270 -5 279 3 q 239 -11 261 -12 q 160 -10 199 -10 q 78 -11 121 -11 q 159 316 119 154 q 242 647 199 478 q 140 622 188 633 q 47 599 92 610 q 55 692 43 653 q 92 758 67 732 q 155 799 117 785 q 240 819 193 814 z "},"2":{"ha":894,"x_min":-8,"x_max":894,"o":"m 349 294 q 265 252 288 278 q 240 175 243 226 l 786 175 q 769 91 776 133 q 751 4 761 49 l -8 4 q 33 165 14 86 q 75 321 51 243 q 103 369 85 350 q 147 402 122 389 q 197 424 171 415 l 250 440 q 419 486 335 465 q 588 535 504 507 q 636 565 614 543 q 672 610 658 586 q 675 657 688 636 q 628 681 663 678 q 340 689 483 686 q 243 690 292 690 l 144 690 q 154 764 150 729 q 168 832 158 799 q 182 851 169 842 q 204 860 194 860 q 465 858 335 858 q 725 849 594 857 q 808 826 774 844 q 862 780 842 808 q 888 715 882 751 q 889 638 894 678 q 815 464 874 526 q 654 375 757 401 q 501 335 576 356 q 349 294 425 315 z "},"3":{"ha":922,"x_min":-1,"x_max":943,"o":"m 778 849 q 911 788 879 838 q 922 638 943 738 q 898 558 911 589 q 863 506 885 526 q 808 473 842 486 q 724 450 775 460 q 725 444 725 447 q 728 442 725 442 q 797 413 772 429 q 831 373 821 396 q 838 322 840 350 q 829 256 836 293 q 740 82 810 147 q 560 13 669 17 q 282 9 421 7 q -1 11 143 11 q 17 85 8 47 q 39 163 26 124 q 58 174 42 169 q 86 179 74 179 q 301 180 194 181 q 517 181 408 179 q 572 192 547 181 q 610 224 596 204 q 629 270 625 244 q 624 325 633 296 q 605 342 621 335 q 578 350 589 350 q 426 352 501 353 q 276 351 351 351 l 218 351 l 258 532 q 424 533 342 532 q 590 531 507 533 q 664 551 638 529 q 706 611 690 572 q 710 672 722 653 q 654 690 699 690 q 501 691 576 692 q 347 689 425 690 l 190 689 q 186 701 185 699 q 195 743 192 721 q 203 786 199 765 q 215 824 207 807 q 235 851 222 842 q 266 864 247 861 q 306 866 285 867 q 350 863 328 865 q 393 861 372 861 q 586 859 490 858 q 778 849 682 860 z "},"4":{"ha":818,"x_min":-93,"x_max":825,"o":"m 825 857 q 748 590 786 722 q 672 324 710 458 l 772 324 l 724 164 q 644 164 668 178 q 609 122 619 150 q 594 61 599 94 q 575 3 590 28 l 389 3 q 411 83 400 43 q 435 167 422 122 l -93 167 q -42 363 -86 276 q 97 513 1 449 q 313 672 208 589 q 525 835 417 754 q 549 849 536 843 q 576 856 563 856 q 698 858 638 858 q 825 857 758 857 m 481 326 q 528 497 504 413 q 575 672 551 581 l 151 339 q 158 326 157 331 l 481 326 z "},"5":{"ha":917,"x_min":-3,"x_max":978,"o":"m 440 690 q 416 680 429 690 q 397 658 403 669 q 378 598 386 629 q 358 532 369 567 q 473 533 417 532 q 586 532 529 533 q 662 528 624 531 q 738 522 700 525 q 818 486 788 517 q 847 406 849 456 q 765 121 844 225 q 504 4 685 17 q 254 -2 379 -6 q -3 1 129 1 q 23 92 11 50 q 49 179 35 135 l 276 179 q 504 181 390 179 q 595 208 567 181 q 629 297 624 236 q 624 338 632 322 q 588 356 615 353 q 554 360 571 358 q 521 363 538 363 l 333 363 q 147 364 240 363 q 125 371 144 364 q 190 615 157 493 q 257 858 224 736 l 978 858 l 922 692 q 677 692 796 692 q 440 690 558 693 z "},"6":{"ha":881,"x_min":-10,"x_max":886,"o":"m 122 654 q 213 792 149 744 q 364 846 276 839 q 621 860 492 857 q 886 868 750 863 l 844 692 l 454 692 q 320 650 363 692 q 271 513 278 608 q 372 538 321 531 q 476 548 424 546 q 579 548 528 550 q 683 543 631 546 q 821 349 857 531 q 803 278 814 313 q 783 207 793 243 q 683 56 756 101 q 513 3 611 10 q 338 0 425 -3 q 163 13 250 3 q 26 70 63 24 q 10 215 -10 117 q 61 436 31 328 q 122 654 92 544 m 356 396 q 247 358 283 394 q 206 251 211 322 q 213 204 203 224 q 253 181 224 185 q 325 170 289 174 q 397 164 361 167 q 399 169 399 165 l 461 169 q 526 176 500 171 q 569 194 553 181 q 597 232 586 208 q 615 293 607 256 q 538 396 639 394 q 356 396 446 400 z "},"7":{"ha":822,"x_min":-6,"x_max":822,"o":"m 822 860 q 776 698 815 769 q 682 563 736 626 q 466 301 572 432 q 251 39 360 169 q 221 16 240 25 q 182 4 201 7 q 97 2 140 1 q -6 3 53 3 q 275 349 138 181 q 553 690 413 517 l 26 690 q 24 699 25 697 q 24 703 24 701 q 33 744 29 722 q 40 785 36 765 q 51 822 44 806 q 71 849 58 839 q 101 862 83 858 q 140 865 119 865 q 183 863 161 865 q 224 861 204 861 q 489 860 357 861 q 756 860 621 860 l 822 860 z "},"8":{"ha":864,"x_min":-4,"x_max":863,"o":"m 858 746 q 863 699 863 722 q 836 594 861 646 q 771 514 811 542 q 722 485 747 499 q 672 457 697 472 q 715 438 694 449 q 750 412 735 426 q 774 377 765 397 q 782 331 783 357 q 775 249 782 290 q 753 172 768 208 q 710 104 738 135 q 643 53 683 74 q 513 10 578 18 q 371 1 447 1 q 244 4 307 1 q 117 14 182 7 q 26 54 56 21 q -3 144 -4 88 q -1 169 -3 157 q 4 197 1 182 q 31 287 17 250 q 69 351 46 324 q 126 399 92 378 q 215 446 161 421 q 158 516 176 476 q 140 599 139 556 q 175 708 142 654 q 272 801 208 761 q 390 849 331 838 q 522 860 450 860 q 622 861 568 860 q 724 853 675 863 q 809 820 772 844 q 858 746 846 796 m 521 169 q 575 211 557 178 q 594 290 593 244 q 574 347 594 329 q 518 367 554 365 q 446 370 482 368 q 374 372 410 372 q 313 365 343 372 q 258 342 283 358 q 218 300 233 326 q 201 235 203 274 q 219 190 201 206 q 265 168 238 175 q 328 159 293 161 q 394 154 363 157 q 457 160 425 157 q 521 169 489 163 m 568 524 q 601 538 583 525 q 633 567 618 550 q 657 604 647 585 q 667 640 667 624 q 656 680 667 665 q 627 702 644 694 q 588 713 610 710 q 543 715 565 715 q 462 711 503 715 q 389 692 421 707 q 336 649 357 678 q 314 571 315 619 q 323 542 314 553 q 347 526 332 532 q 382 519 363 521 q 421 518 401 518 q 496 519 461 518 q 568 524 531 521 z "},"9":{"ha":881,"x_min":4,"x_max":900,"o":"m 768 210 q 678 72 742 119 q 526 18 614 25 q 269 4 399 7 q 4 -4 140 1 l 46 172 l 436 172 q 570 214 528 172 q 619 351 613 256 q 518 325 569 333 q 415 315 467 317 q 310 315 363 313 q 207 321 258 318 q 69 515 33 333 q 87 586 76 551 q 107 657 97 621 q 207 808 135 763 q 378 861 279 854 q 553 864 465 867 q 728 851 640 861 q 864 794 828 840 q 881 649 900 747 q 829 428 860 536 q 768 210 799 319 m 535 468 q 643 506 607 469 q 685 613 679 542 q 677 660 688 640 q 638 683 667 679 q 565 694 601 690 q 493 700 529 697 q 492 694 492 699 l 429 694 q 363 688 389 693 q 321 669 338 682 q 294 632 304 656 q 275 571 283 608 q 353 468 251 469 q 535 468 443 464 z "},"B":{"ha":965,"x_min":7,"x_max":972,"o":"m 571 4 q 351 0 463 0 q 178 1 263 0 q 7 3 93 3 l 100 375 l 225 849 l 329 849 q 534 848 433 849 q 742 847 635 847 q 833 842 792 847 q 906 824 875 838 q 955 786 938 811 q 972 721 972 761 q 932 565 971 636 q 801 449 893 494 q 876 390 854 413 q 896 340 897 367 q 892 306 896 326 q 882 258 888 286 q 840 144 865 192 q 778 66 815 96 q 691 21 742 36 q 571 4 640 6 m 265 283 l 233 161 l 611 161 q 649 171 631 161 q 682 196 668 181 q 704 230 696 211 q 713 268 713 249 q 688 337 714 313 q 622 363 661 361 q 497 364 560 364 l 285 364 l 265 283 m 343 604 l 310 499 l 529 499 q 646 500 593 499 q 698 517 676 501 q 733 553 719 532 q 753 600 746 575 q 764 646 760 625 q 757 660 764 651 q 741 679 750 669 q 722 696 732 689 q 703 703 711 703 q 675 704 689 704 l 375 704 l 343 604 z "},"C":{"ha":844,"x_min":0,"x_max":928,"o":"m 194 -3 q 117 13 153 -3 q 56 54 82 28 q 15 115 31 81 q 0 189 0 150 q 4 232 0 208 q 44 408 21 324 q 97 597 68 493 q 203 765 126 700 q 393 833 281 829 q 617 848 506 844 q 843 851 729 851 l 913 851 q 928 854 921 851 l 928 846 l 926 847 q 916 796 919 822 q 904 750 913 769 q 878 717 896 731 q 828 703 861 703 q 655 702 807 703 q 424 692 503 701 q 328 649 365 686 q 274 558 290 611 q 238 433 254 496 q 206 306 221 369 q 201 267 201 285 q 217 211 201 232 q 263 178 232 190 q 337 163 293 167 q 438 160 381 160 l 740 158 l 704 -1 l 497 -1 q 390 -3 444 -3 l 194 -3 z "},"D":{"ha":1056,"x_min":13,"x_max":1056,"o":"m 600 4 q 338 0 468 0 q 260 1 299 0 q 183 1 222 1 q 99 2 143 1 q 13 3 56 3 q 82 277 49 147 q 151 544 115 407 l 151 543 l 182 647 q 205 732 193 689 q 228 817 217 775 q 244 842 233 836 q 272 850 256 849 q 375 849 325 849 l 624 849 q 768 846 696 849 q 862 834 813 844 q 951 808 911 824 q 1028 749 1000 789 q 1056 660 1056 708 q 1054 640 1056 650 q 1050 619 1053 629 q 1007 444 1031 531 q 958 271 983 358 q 827 72 919 136 q 600 4 735 8 m 235 158 l 353 158 q 503 164 431 161 q 646 174 575 167 q 717 203 683 176 q 765 269 750 229 l 788 347 q 817 453 803 400 q 844 558 832 506 q 837 656 860 615 q 754 700 814 697 q 593 704 675 704 q 547 703 569 704 q 500 703 524 703 q 438 702 472 703 q 376 701 404 701 l 340 568 l 306 438 l 235 158 z "},"E":{"ha":890,"x_min":7,"x_max":996,"o":"m 7 3 q 53 169 31 89 q 100 335 76 249 l 225 778 l 225 776 q 239 818 233 803 q 253 840 244 833 q 278 847 263 846 q 321 849 293 849 l 636 849 q 794 849 715 849 q 951 850 872 850 l 996 850 l 969 753 q 963 729 967 742 l 954 704 l 383 704 q 357 615 369 661 q 333 526 344 569 l 329 499 l 865 499 q 844 424 854 456 q 824 353 835 393 l 400 353 q 354 354 378 353 q 300 343 318 356 q 275 293 282 331 q 271 276 274 285 q 264 252 268 267 q 253 216 260 238 q 235 161 246 194 l 783 161 q 759 83 769 119 q 735 10 749 46 q 727 5 733 7 q 717 3 721 3 l 7 3 z "},"F":{"ha":822,"x_min":4,"x_max":915,"o":"m 150 1 q 90 3 119 3 l 4 3 q 108 427 57 221 q 211 847 160 633 l 915 847 l 872 703 l 414 703 q 370 698 385 703 q 356 699 356 693 q 335 624 357 704 q 306 500 314 544 l 792 500 l 753 351 l 492 351 q 417 352 454 351 q 344 353 381 353 q 280 337 301 353 q 251 281 258 321 q 235 210 244 244 q 215 140 225 176 l 190 33 q 178 8 186 14 q 150 1 169 1 z "},"G":{"ha":906,"x_min":-6,"x_max":951,"o":"m 496 472 q 678 474 589 474 l 864 474 q 879 471 879 474 q 875 444 879 468 q 808 222 840 329 q 743 6 775 114 q 568 4 656 6 q 393 3 481 3 q 270 4 328 3 q 147 8 213 6 q 85 25 113 10 q 37 64 57 40 q 6 119 17 88 q -6 185 -6 150 q 0 233 -6 211 l 18 311 q 60 474 38 394 q 108 638 82 554 q 171 742 129 701 q 267 806 213 782 q 383 838 321 829 q 507 847 446 847 l 951 847 q 940 783 944 807 q 926 739 935 758 q 900 710 917 719 q 850 701 883 701 q 804 703 828 701 q 756 706 781 706 q 680 705 718 706 q 604 704 642 704 q 528 705 567 704 q 453 706 490 706 q 350 676 394 706 q 285 594 306 646 q 229 436 253 519 q 186 286 206 353 q 182 253 182 269 q 212 185 182 211 q 293 160 242 160 l 615 160 q 627 203 621 175 q 638 250 633 232 l 663 332 l 444 332 q 453 373 449 349 q 465 419 458 397 q 478 457 471 442 q 496 472 486 472 z "},"H":{"ha":1014,"x_min":7,"x_max":1078,"o":"m 7 7 l 57 196 q 139 510 96 350 q 221 822 182 671 q 258 853 228 853 q 288 850 271 850 l 415 850 l 365 653 l 338 529 l 804 529 l 835 644 q 860 745 847 696 q 889 847 874 794 l 1078 847 q 1001 565 1036 701 q 925 285 965 429 l 849 6 l 667 6 l 740 272 l 740 271 l 768 374 l 549 374 q 335 372 436 374 q 307 357 321 371 q 288 332 293 343 l 215 93 q 204 50 210 71 q 192 7 199 29 l 7 7 z "},"I":{"ha":347,"x_min":0,"x_max":407,"o":"m 7 29 q 23 101 15 65 q 43 174 31 138 q 214 814 182 701 q 251 850 224 850 q 274 849 263 850 q 299 849 285 849 q 338 849 318 849 q 375 850 357 850 l 407 850 l 183 6 l 0 6 l 7 29 z "},"J":{"ha":731,"x_min":4,"x_max":808,"o":"m 4 -1 q 22 70 13 35 q 40 133 31 106 l 47 160 l 308 160 q 417 190 379 163 q 493 353 454 218 q 552 555 532 488 q 586 689 572 622 q 617 814 600 756 q 628 839 621 829 q 651 847 636 849 q 672 847 663 847 q 693 846 682 846 q 732 847 710 846 q 772 847 754 847 l 808 847 l 706 483 q 668 356 686 417 q 628 232 650 294 q 507 58 585 114 q 306 -1 429 1 l 4 -1 z "},"K":{"ha":885,"x_min":0,"x_max":1003,"o":"m 850 -1 l 708 -1 q 614 0 661 -1 q 601 8 608 0 q 588 24 594 15 l 589 22 q 469 217 529 119 q 353 415 410 315 q 349 435 347 422 q 358 454 351 447 q 564 643 461 550 q 771 828 667 735 q 788 838 778 833 q 804 843 797 843 l 1003 843 l 786 654 l 563 457 l 850 -1 m 0 0 l 106 418 l 215 847 l 400 847 q 357 681 378 761 q 315 515 336 601 l 315 517 l 181 0 l 0 0 z "},"L":{"ha":776,"x_min":0,"x_max":714,"o":"m 0 0 l 68 278 l 68 276 q 210 808 160 654 l 210 807 q 264 851 224 851 q 289 850 275 850 l 396 850 l 232 226 l 218 160 l 714 160 l 699 103 l 699 104 q 684 55 690 82 q 671 0 678 28 l 0 0 z "},"M":{"ha":1214,"x_min":1,"x_max":1274,"o":"m 161 4 q 146 3 154 3 l 1 3 q 28 101 13 40 q 65 250 43 163 l 133 524 l 192 743 q 213 801 201 779 q 246 834 225 822 q 299 849 267 846 q 382 853 332 853 l 499 853 q 546 833 532 853 q 561 781 560 813 l 571 321 q 572 279 571 301 q 576 214 574 257 l 606 254 l 656 347 q 769 558 711 451 q 881 768 826 664 q 1050 854 925 854 l 1226 847 q 1256 761 1274 835 q 1178 498 1231 685 q 1043 4 1126 311 l 864 4 q 1002 497 947 297 q 1057 694 1057 696 q 1055 701 1057 699 q 1042 703 1053 703 q 1020 696 1029 703 q 1003 678 1011 689 q 988 658 994 668 q 978 639 982 647 l 689 128 q 665 74 675 99 q 638 33 654 50 q 599 5 622 15 q 535 -6 575 -6 q 480 2 501 -6 q 446 26 458 10 q 427 67 433 42 q 418 125 421 92 l 404 285 q 393 397 399 329 q 381 556 388 464 l 365 733 l 361 707 l 185 31 l 185 32 q 175 13 182 22 q 161 4 168 4 z "},"N":{"ha":981,"x_min":-1,"x_max":1018,"o":"m 151 -3 q 86 -6 119 -6 l -1 -6 l 10 42 l 44 176 q 99 413 72 294 q 154 651 126 531 l 174 739 q 189 784 181 765 q 210 815 197 803 q 242 835 222 828 q 292 847 263 843 q 318 850 310 849 q 333 852 326 851 q 346 853 339 853 l 372 853 q 417 847 399 851 q 447 834 435 843 q 467 808 460 825 q 482 767 475 792 q 516 640 500 703 q 547 514 532 578 l 576 392 l 583 364 q 612 262 596 315 q 660 131 628 208 q 704 303 681 213 q 751 485 728 393 q 799 666 775 576 q 844 850 822 756 l 1018 850 l 889 324 l 889 325 l 867 246 q 845 163 856 206 q 824 78 835 119 q 790 21 814 42 q 732 -3 765 0 q 655 -3 693 -4 q 578 1 617 -1 q 545 3 563 1 q 513 4 528 4 q 481 18 492 6 q 465 50 469 31 q 395 338 431 194 q 324 626 360 482 l 319 608 l 275 431 q 254 347 264 390 q 235 260 244 303 l 178 21 q 168 5 176 13 q 153 -3 160 -3 l 151 -3 z "},"O":{"ha":956,"x_min":-7,"x_max":983,"o":"m 117 15 q 24 69 54 29 q -7 163 -7 108 q -1 208 -7 190 l 13 272 q 49 433 31 353 q 86 592 67 513 q 152 729 107 676 q 263 812 197 782 q 411 852 328 842 q 593 863 494 863 q 711 857 651 863 q 833 838 771 851 q 951 783 919 818 q 983 697 983 747 q 974 592 983 649 q 948 477 964 536 q 914 358 932 418 q 879 243 896 297 q 801 103 849 154 q 691 27 753 53 q 555 -5 629 1 q 397 -11 481 -11 q 235 -3 300 -11 q 117 15 169 4 m 199 271 q 196 256 196 263 q 216 197 196 218 q 269 164 236 175 q 346 150 303 153 q 435 147 389 147 q 522 149 482 147 q 593 161 561 151 q 649 192 625 171 q 689 251 674 214 l 689 250 q 738 403 717 329 q 778 554 760 478 l 788 596 q 789 615 789 599 q 778 656 789 639 q 748 685 767 674 q 706 701 729 696 q 658 706 683 706 l 497 706 q 433 703 465 706 q 370 690 400 700 q 317 659 340 679 q 283 604 294 639 q 234 433 254 515 q 199 271 214 351 z "},"P":{"ha":947,"x_min":-3,"x_max":979,"o":"m -3 4 q 62 265 32 140 q 125 525 92 390 q 165 686 144 607 q 207 847 186 765 q 296 848 254 847 q 385 849 338 849 q 463 849 424 849 q 540 850 501 850 q 675 849 606 850 q 810 846 744 849 q 939 790 899 842 q 968 644 979 738 q 935 503 961 572 q 869 376 910 435 q 801 310 839 335 q 722 274 764 286 q 634 258 679 261 q 543 254 589 254 l 229 254 l 161 4 l -3 4 m 285 431 q 297 425 290 428 q 301 424 303 422 l 307 419 q 317 418 310 418 q 381 417 349 418 q 446 417 414 417 l 572 417 q 648 426 615 417 q 704 453 681 435 q 745 501 728 472 q 776 569 763 531 l 782 592 q 785 614 785 603 q 704 700 785 693 q 569 704 638 704 q 515 703 542 704 q 461 703 489 703 l 354 703 l 285 431 z "},"Q":{"ha":1003,"x_min":0,"x_max":994,"o":"m 154 11 q 38 64 75 26 q 0 163 0 101 q 8 232 0 190 q 45 390 25 310 q 88 546 65 469 l 110 622 q 182 753 133 706 q 295 824 231 800 q 436 853 360 847 q 593 860 513 860 l 732 860 q 863 847 804 860 q 958 800 921 833 q 994 701 994 767 q 989 650 994 676 q 948 469 969 558 q 904 290 926 379 q 644 8 853 89 l 663 -43 l 661 -43 l 685 -106 l 579 -106 q 554 -107 568 -106 q 526 -108 540 -108 q 481 -100 501 -108 q 456 -62 460 -92 q 425 -13 446 -24 q 371 -1 404 -3 q 263 1 318 1 q 154 11 208 0 m 211 315 q 207 294 208 304 q 206 271 206 285 q 235 200 206 224 q 325 167 264 176 l 324 167 q 458 158 357 161 q 594 164 558 154 q 656 192 631 174 q 698 240 681 211 q 732 308 715 268 q 785 468 769 396 q 800 593 800 540 q 781 656 800 636 q 731 688 761 676 q 660 701 700 699 q 582 704 621 704 q 490 703 536 704 q 406 691 444 701 q 337 661 367 681 q 293 594 307 642 l 294 594 q 248 452 269 522 q 211 315 226 382 z "},"R":{"ha":956,"x_min":15,"x_max":1001,"o":"m 15 4 l 58 175 l 83 267 q 117 401 99 333 q 153 535 135 468 q 188 668 169 601 l 224 801 q 243 839 231 825 q 283 850 256 853 q 439 847 363 847 l 781 847 q 838 844 808 847 q 896 833 867 840 q 975 787 949 821 q 999 704 1001 753 q 997 687 999 697 q 993 667 996 676 q 969 580 982 622 q 940 494 956 538 q 850 359 911 404 q 679 297 789 314 l 758 142 l 826 3 l 671 3 q 633 4 653 3 q 617 13 626 4 q 603 31 608 21 l 558 118 q 530 180 546 147 q 499 240 514 213 q 474 265 492 253 q 438 281 456 278 q 408 282 425 282 l 263 282 q 245 215 256 251 q 228 147 235 178 l 186 4 l 15 4 m 324 488 l 306 419 l 543 419 q 590 421 567 419 q 653 433 621 424 q 715 453 686 442 q 757 485 739 464 q 787 533 775 507 q 802 586 799 558 q 799 639 806 614 q 780 674 792 661 q 753 694 768 688 q 720 701 738 700 q 686 703 703 703 l 671 703 q 611 703 640 703 q 551 704 582 704 q 491 703 524 704 q 432 701 458 703 q 395 685 417 699 q 367 658 374 672 l 324 488 z "},"S":{"ha":901,"x_min":-6,"x_max":922,"o":"m 922 850 l 919 836 q 899 773 908 810 q 883 704 890 736 l 625 704 q 542 703 583 704 q 465 703 500 703 q 413 695 439 703 q 365 678 386 688 q 329 647 343 668 q 315 599 315 626 q 338 560 315 575 q 397 536 360 546 q 482 520 435 526 q 578 508 529 514 q 676 494 628 501 q 761 476 724 488 l 761 478 q 828 423 808 463 q 849 331 849 383 q 830 232 849 282 q 780 138 811 182 q 707 63 749 94 q 619 18 665 31 l 621 18 q 454 -1 538 -1 q 288 0 371 0 l 143 0 q 0 1 72 0 l -6 1 q 8 69 -3 22 q 24 131 18 117 q 39 157 29 146 q 68 169 49 168 q 266 162 168 165 q 464 158 364 158 q 599 185 554 158 q 643 276 643 211 q 635 315 643 300 q 614 338 626 329 q 585 349 601 346 q 554 351 569 351 q 389 374 471 365 q 224 397 307 382 q 142 438 169 407 q 115 517 115 468 q 119 554 115 533 q 171 706 136 647 q 263 796 206 765 q 403 840 321 826 q 599 853 486 853 q 736 851 669 853 q 868 850 803 850 l 922 850 z "},"T":{"ha":556,"x_min":3,"x_max":843,"o":"m 828 789 l 810 704 l 497 704 q 467 594 483 658 q 434 470 451 529 q 401 354 417 411 q 372 247 385 297 l 306 -1 l 128 -1 l 293 613 l 318 704 l 3 704 l 6 713 l 42 847 l 843 851 l 828 789 z "},"U":{"ha":951,"x_min":6,"x_max":1007,"o":"m 828 849 l 1007 849 l 953 644 q 895 433 925 540 q 835 221 865 325 q 764 103 808 147 q 660 37 719 60 q 530 7 601 14 q 379 0 458 0 q 232 5 300 0 q 113 27 164 10 q 34 77 63 44 q 6 165 6 110 q 15 231 6 196 q 64 426 39 331 q 118 621 89 521 l 118 619 l 172 819 q 183 843 175 833 q 206 853 190 853 q 236 852 221 853 q 269 851 251 851 l 354 851 q 320 718 336 781 q 288 592 304 656 q 253 458 272 528 q 211 300 235 388 q 206 274 207 286 q 204 251 204 263 q 257 173 204 190 q 421 156 310 156 q 522 163 478 156 q 600 187 567 169 q 656 235 633 204 q 690 313 678 265 q 759 577 726 447 q 826 842 792 707 l 828 849 z "},"V":{"ha":814,"x_min":-1,"x_max":983,"o":"m 821 853 q 885 851 853 851 l 983 851 q 863 660 921 756 q 745 467 804 565 q 624 267 686 369 q 493 50 563 164 l 493 51 q 479 31 485 40 q 453 14 474 21 q 392 3 433 7 q 275 0 351 0 q 194 3 222 0 q 151 15 165 7 q 134 36 138 22 q 126 71 131 50 l 110 154 q 65 426 85 289 q 24 699 44 564 l -1 846 l 201 846 q 210 773 203 835 q 231 613 218 711 q 263 397 243 515 q 308 163 282 279 q 326 150 314 150 q 344 156 335 150 q 367 169 354 161 q 539 443 386 183 q 672 667 615 574 q 764 821 728 761 q 821 853 783 853 z "},"W":{"ha":1232,"x_min":-3,"x_max":1335,"o":"m 1315 811 l 989 133 q 956 70 971 96 q 922 29 940 44 q 881 8 904 14 q 822 1 857 1 q 698 4 742 1 q 635 24 654 7 q 612 76 615 40 q 608 179 608 113 l 608 604 l 482 319 q 433 210 457 264 q 388 100 408 157 q 351 43 374 64 q 302 12 329 22 q 242 -1 275 1 q 175 -3 210 -3 q 92 -1 126 -3 q 38 9 58 0 q 7 38 17 18 q -3 93 -3 57 q 3 404 0 249 q 11 717 7 560 l 11 853 l 199 853 l 167 207 q 175 154 167 163 q 196 155 183 146 q 220 183 208 164 q 238 215 232 203 q 301 358 269 286 q 360 503 332 431 l 403 613 q 439 702 421 657 q 479 790 457 747 q 556 844 501 835 q 646 853 610 853 q 689 852 663 853 q 740 844 715 851 q 783 820 765 838 q 801 768 801 803 q 789 474 794 621 l 778 179 q 776 147 778 163 q 777 119 775 131 q 785 103 779 108 q 807 104 792 99 l 828 143 l 918 338 l 1131 818 q 1157 849 1140 839 q 1194 858 1174 858 q 1252 858 1224 858 q 1313 857 1281 857 l 1335 857 l 1315 811 z "},"X":{"ha":975,"x_min":-3,"x_max":1090,"o":"m 978 719 q 865 604 922 660 q 757 485 808 549 q 715 433 742 468 q 707 369 689 397 q 744 301 725 336 q 785 226 763 265 q 839 131 808 186 q 914 1 869 76 l 794 1 q 717 3 751 1 q 698 26 713 3 q 663 83 683 49 q 619 156 642 117 q 575 229 596 196 q 538 282 554 263 q 521 288 533 285 q 440 203 472 233 q 372 137 408 172 q 299 67 336 101 q 231 12 263 33 q 154 -10 199 -10 q 82 -3 131 -10 q -3 8 33 3 l 429 439 l 326 638 q 269 748 297 693 q 213 851 240 803 l 342 851 q 428 850 390 851 q 445 836 438 847 q 475 781 453 825 q 513 703 497 738 q 539 644 528 668 l 588 544 l 663 629 l 749 726 q 826 815 792 775 q 890 848 851 843 q 964 853 928 853 q 1026 849 988 853 q 1090 844 1064 844 l 978 719 z "},"Y":{"ha":649,"x_min":0,"x_max":874,"o":"m 683 853 q 708 853 689 853 q 874 847 726 854 q 672 601 754 703 q 468 353 590 499 l 401 274 q 385 213 394 250 l 376 178 q 351 88 364 133 q 329 -1 338 43 l 144 -1 l 161 54 q 191 165 175 107 q 210 272 207 224 q 208 311 210 292 q 200 346 206 331 q 101 598 156 471 q 0 850 47 725 l 129 850 q 213 849 175 850 q 221 838 215 846 q 228 825 226 831 q 283 637 250 739 q 343 440 315 535 q 367 469 349 447 q 433 556 396 508 q 510 657 469 604 q 588 753 550 710 q 651 824 625 796 q 683 853 678 853 z "},"Z":{"ha":901,"x_min":-19,"x_max":968,"o":"m 207 851 q 585 853 399 853 l 967 853 l 968 843 q 956 746 964 779 q 939 689 947 713 q 918 658 933 674 q 888 632 903 643 l 461 319 l 333 228 l 247 154 l 789 154 q 772 79 779 110 q 753 11 764 49 q 745 3 751 7 q 735 -1 739 -1 l -19 -1 q -17 13 -18 6 q -12 29 -15 21 q 21 147 0 90 q 97 246 42 204 q 277 378 185 308 q 457 514 369 447 l 710 706 l 157 706 l 164 736 q 192 840 176 789 q 198 847 193 843 q 207 851 203 851 z "},"a":{"ha":738,"x_min":-51,"x_max":706,"o":"m 129 639 q 258 640 194 639 q 388 642 322 642 q 505 641 447 642 q 607 628 563 640 q 678 588 651 615 q 706 506 706 560 q 697 443 706 476 l 583 4 l 407 4 l 413 65 q 290 10 353 24 q 164 -3 228 -3 q 72 2 113 -3 q 5 21 32 7 q -37 59 -22 35 q -51 124 -51 83 q -47 163 -51 142 q -10 277 -35 232 q 60 349 15 322 q 174 385 106 375 q 340 396 242 396 q 405 395 372 396 q 469 394 438 394 q 499 401 486 394 q 511 432 511 407 q 501 478 511 461 q 460 497 492 496 q 354 500 407 500 l 99 500 l 129 639 m 340 144 q 384 158 364 150 q 419 179 404 165 q 443 217 433 193 q 457 279 453 240 q 410 281 433 279 q 363 283 386 283 q 290 283 329 283 q 218 273 251 282 q 163 242 185 264 q 140 181 140 221 q 162 149 140 160 q 215 135 183 138 q 280 135 246 132 q 340 144 314 138 z "},"b":{"ha":763,"x_min":-74,"x_max":758,"o":"m 136 49 q 90 5 115 14 q 38 -3 65 -4 q -19 2 10 -1 q -74 -6 -47 6 l 57 529 q 96 684 76 607 q 133 840 115 761 q 153 879 140 868 q 194 888 167 890 q 265 885 229 885 q 339 886 300 886 q 303 748 321 815 q 268 608 286 681 q 435 653 353 643 q 604 647 518 664 q 722 585 685 631 q 744 456 758 539 q 718 326 733 389 q 681 200 703 263 q 385 0 607 -3 q 319 -1 351 0 q 254 0 286 -3 q 192 13 222 3 q 136 49 163 24 m 169 219 q 172 174 163 192 q 214 154 182 157 q 265 149 240 151 l 315 143 q 370 145 343 143 q 422 156 397 147 q 465 181 446 164 q 496 228 483 199 q 522 321 513 272 l 542 418 q 528 482 549 458 q 471 506 507 506 q 365 500 418 507 q 260 485 313 493 q 238 469 249 482 q 224 443 228 456 q 195 331 208 386 q 169 219 182 276 z "},"c":{"ha":688,"x_min":-22,"x_max":717,"o":"m 319 639 q 517 644 418 647 q 717 642 615 642 l 688 499 l 449 499 q 329 492 374 499 q 257 463 285 485 q 213 399 229 442 q 178 282 196 356 q 181 208 167 236 q 239 171 194 181 q 328 160 283 161 q 418 157 374 160 q 503 156 461 156 q 590 157 546 157 q 574 91 582 122 q 556 29 567 60 q 542 12 553 21 q 522 3 531 3 q 332 4 426 4 q 143 13 238 4 q 63 37 97 17 q 9 88 29 57 q -17 159 -11 119 q -11 244 -22 199 q 1 299 -4 272 q 14 354 7 326 q 117 553 44 476 q 319 639 189 629 z "},"d":{"ha":797,"x_min":-21,"x_max":867,"o":"m 44 443 q 159 598 79 544 q 353 651 239 651 q 448 647 400 651 q 543 635 496 642 q 576 624 560 632 q 611 607 592 615 q 642 724 626 665 q 672 846 658 783 q 688 879 678 869 q 718 889 697 889 q 745 888 732 889 q 772 888 758 888 q 817 888 794 888 q 867 889 840 889 l 643 3 l 472 3 l 472 51 l 457 49 q 233 -4 351 -4 q 45 32 111 -4 q -21 147 -21 68 q -15 218 -21 181 q 0 294 -10 256 q 22 372 10 333 q 44 443 33 410 m 185 210 q 199 169 185 183 q 233 150 213 156 q 281 144 254 144 q 332 143 307 143 q 372 146 346 143 q 425 155 399 149 q 474 173 451 161 q 503 201 496 185 q 546 343 529 269 q 583 500 563 417 q 497 506 535 503 q 422 510 458 510 q 315 499 357 510 q 247 456 274 488 q 208 367 221 425 q 185 218 194 310 l 185 210 z "},"e":{"ha":728,"x_min":-26,"x_max":715,"o":"m 307 653 q 338 653 322 653 q 368 654 353 654 q 506 648 439 654 q 620 618 572 642 q 692 546 668 594 q 701 414 715 497 q 681 318 690 350 q 649 273 672 286 q 579 260 625 260 l 272 260 q 217 258 244 260 q 174 245 185 257 q 164 231 164 233 q 165 191 161 207 q 178 165 168 175 q 209 151 189 156 q 261 147 229 147 q 435 147 349 147 q 608 146 521 146 q 615 145 611 146 q 624 143 618 144 q 610 74 617 107 q 600 11 604 40 q 460 10 529 11 q 321 10 390 10 q 202 8 263 10 q 92 19 142 7 q 11 65 43 32 q -25 165 -21 97 q -18 246 -26 200 q 22 422 0 347 q 81 548 44 497 q 171 624 117 599 q 307 653 225 650 m 539 399 q 540 410 538 400 q 543 434 542 419 q 542 464 544 449 q 526 492 539 479 q 483 508 511 507 q 419 510 456 510 q 324 506 363 510 q 261 491 286 503 q 223 457 236 479 q 201 397 210 435 q 369 398 282 397 q 539 399 456 399 z "},"f":{"ha":308,"x_min":-40,"x_max":582,"o":"m -40 3 q 20 250 -8 128 q 78 499 49 372 l -36 499 q -22 569 -29 539 q -7 631 -14 599 q 6 636 4 636 q 101 655 68 625 q 149 749 133 685 q 179 813 158 786 q 228 856 200 839 q 290 881 257 872 q 358 893 322 890 q 467 897 413 899 q 582 894 521 894 q 566 817 574 854 q 551 739 558 781 q 476 744 514 742 q 400 744 438 746 q 332 720 350 744 q 307 640 314 696 l 501 640 q 479 569 490 601 q 458 499 468 538 q 383 498 421 499 q 307 499 346 497 q 274 492 285 500 q 257 460 264 483 q 199 231 229 344 q 136 3 168 118 l -40 3 z "},"g":{"ha":758,"x_min":-78,"x_max":758,"o":"m 579 -60 q 528 -135 560 -107 q 457 -176 497 -162 q 370 -194 417 -190 q 276 -197 324 -197 q 99 -196 188 -197 q -78 -194 10 -194 q -65 -137 -71 -168 q -46 -76 -58 -107 q -31 -67 -44 -71 q 6 -60 -17 -62 q 56 -58 28 -58 q 114 -57 83 -57 q 204 -58 160 -57 q 281 -58 249 -58 q 353 -48 325 -58 q 398 -16 381 -37 q 425 38 415 6 q 443 117 435 71 q 360 85 400 93 q 274 78 319 78 q 60 107 136 78 q -19 219 -17 136 q -16 281 -21 246 q -2 354 -11 317 q 19 429 7 392 q 42 499 31 467 q 92 578 60 550 q 165 621 124 607 q 256 638 207 635 q 358 642 306 642 q 438 642 396 642 q 524 643 481 643 q 611 642 568 643 q 693 640 654 642 q 732 638 718 639 q 752 628 746 636 q 757 605 758 621 q 747 560 756 589 q 709 406 731 493 q 665 231 688 318 q 619 65 642 143 q 579 -60 597 -12 m 454 228 q 479 259 467 228 q 503 333 492 290 q 526 422 515 376 q 544 499 536 468 q 435 506 489 501 q 338 510 382 510 q 251 496 283 510 q 202 456 219 482 q 176 394 185 431 q 161 310 168 357 q 160 300 160 306 l 160 292 q 172 253 161 267 q 199 233 182 240 q 238 225 215 226 q 285 224 260 224 q 369 225 328 224 q 454 228 410 226 z "},"h":{"ha":738,"x_min":-71,"x_max":728,"o":"m 486 654 q 568 652 524 654 q 649 637 613 650 q 707 595 686 624 q 718 515 728 567 q 657 256 690 385 q 589 0 624 126 l 400 0 q 450 180 426 92 q 500 356 474 268 q 511 400 507 381 q 518 435 515 419 q 487 486 518 475 q 386 497 456 497 q 311 494 340 497 q 263 478 282 490 q 231 446 243 467 q 211 390 219 425 q 165 197 188 293 q 118 0 143 100 l -71 0 q 39 424 -15 215 q 146 844 93 632 q 162 878 151 868 q 194 888 172 888 q 270 887 232 888 q 353 886 308 886 q 310 738 331 811 q 265 586 289 665 q 375 640 319 625 q 486 654 431 654 z "},"i":{"ha":271,"x_min":-76,"x_max":333,"o":"m 69 -1 q -1 1 33 1 q -76 0 -36 0 q 9 324 -32 165 q 92 643 50 483 l 272 643 q 240 504 256 572 q 206 367 224 436 q 162 203 183 283 q 121 40 140 124 q 104 6 115 15 q 69 -1 93 -3 m 333 889 q 332 875 332 881 l 332 867 q 306 769 317 803 q 275 721 296 735 q 215 708 254 707 q 107 717 176 710 q 126 792 118 756 q 144 864 133 828 q 157 880 147 872 q 174 888 167 888 q 253 890 214 890 q 333 889 293 889 z "},"j":{"ha":268,"x_min":-215,"x_max":324,"o":"m -126 -33 q -98 -28 -110 -35 q -78 -11 -86 -22 q -66 14 -71 0 q -58 42 -61 28 q 2 306 -26 175 q 58 569 31 436 q 86 633 68 613 q 153 646 104 654 q 206 644 179 643 q 267 646 232 646 q 181 290 222 465 q 89 -58 139 115 q 45 -138 75 -106 q -26 -187 15 -171 q -115 -204 -67 -204 q -215 -186 -164 -204 q -203 -137 -208 -160 q -190 -90 -197 -114 q -174 -47 -185 -64 q -126 -33 -162 -31 m 324 889 q 322 875 322 881 l 322 867 q 297 769 307 803 q 265 721 286 735 q 206 708 244 707 q 97 717 167 710 q 116 792 108 756 q 135 864 124 828 q 147 880 138 872 q 164 888 157 888 q 244 890 204 890 q 324 889 283 889 z "},"k":{"ha":739,"x_min":-68,"x_max":771,"o":"m 474 564 q 536 615 503 599 q 607 637 569 632 q 685 639 644 642 q 771 635 726 636 l 417 344 q 517 175 467 258 q 622 0 568 92 q 520 -1 569 0 q 422 1 471 -1 q 401 15 411 3 q 385 38 392 26 l 296 176 q 204 325 251 246 l 110 3 l -68 3 q -10 244 -39 125 q 49 485 18 364 q 97 669 72 578 q 144 854 122 761 q 160 883 151 875 q 190 889 168 892 q 264 888 226 886 q 343 889 301 889 q 279 634 311 758 q 215 385 247 510 l 224 374 q 331 454 278 414 q 439 535 385 494 q 458 548 449 542 q 474 564 468 554 z "},"l":{"ha":281,"x_min":-69,"x_max":342,"o":"m 192 890 q 247 889 219 889 l 342 889 l 228 443 l 117 3 l -69 3 q -26 182 -49 90 q 19 361 -3 274 l 49 479 l 74 574 q 111 714 93 643 l 147 856 q 163 884 154 876 q 192 890 171 892 z "},"m":{"ha":1086,"x_min":-69,"x_max":1068,"o":"m -69 3 l 86 644 l 256 644 l 261 601 q 478 658 392 661 q 617 588 564 654 q 782 653 696 644 q 960 646 868 663 q 1040 596 1011 636 q 1058 504 1068 556 q 1006 266 1032 385 q 951 28 979 147 q 938 10 949 19 q 919 1 928 1 q 842 -1 881 -1 q 760 0 803 0 l 851 371 q 862 435 861 410 q 851 474 863 460 q 816 494 840 489 q 750 499 792 499 q 696 497 715 499 q 665 485 676 494 q 646 458 653 476 q 631 408 639 440 q 579 208 604 308 q 528 3 554 107 l 342 3 q 388 198 365 101 q 433 392 411 294 q 442 446 442 425 q 433 478 442 467 q 403 494 424 490 q 347 497 382 499 q 299 495 324 497 q 254 483 275 493 q 229 462 240 478 q 214 431 218 446 q 161 218 186 325 q 110 3 136 111 l -69 3 z "},"n":{"ha":738,"x_min":-74,"x_max":721,"o":"m 258 644 q 257 638 258 642 q 256 631 256 633 q 256 616 256 624 q 257 601 257 608 q 371 640 318 625 q 486 656 424 656 q 562 652 521 656 q 638 635 603 649 q 697 593 674 621 q 719 517 721 565 l 719 506 q 718 494 719 500 q 662 263 690 378 q 604 31 633 147 q 573 4 593 10 q 529 -1 553 -1 q 469 -1 497 -1 q 408 0 440 0 q 461 206 436 110 q 511 406 486 303 q 516 426 514 417 q 518 444 518 436 q 497 490 519 476 q 421 503 474 503 q 347 501 382 503 q 283 491 311 500 q 234 463 254 482 q 206 406 214 443 q 155 204 182 304 q 100 3 128 104 q 15 8 56 6 q -74 13 -25 10 q 8 328 -31 172 q 86 644 46 485 l 258 644 z "},"o":{"ha":776,"x_min":-29,"x_max":758,"o":"m 589 639 q 722 597 685 633 q 750 485 758 560 q 738 413 746 453 q 718 330 729 372 q 695 245 707 288 q 672 167 683 203 q 621 74 654 108 q 542 23 588 40 q 444 1 497 6 q 331 -3 390 -3 q 209 1 269 -3 q 86 11 149 4 q 37 28 60 14 q -1 66 14 43 q -23 119 -17 89 q -22 182 -29 149 q 4 297 -11 240 q 38 411 19 354 q 85 510 54 467 q 158 583 115 553 q 253 628 201 613 q 364 646 306 644 q 424 645 392 646 q 486 643 456 644 q 544 641 517 642 q 589 639 571 640 m 551 414 q 538 483 554 461 q 472 508 522 504 q 351 506 396 508 q 278 488 306 503 q 233 439 250 472 q 197 344 215 406 q 179 287 186 315 q 171 235 172 258 q 202 154 167 176 q 329 132 238 132 q 426 151 388 132 q 488 208 464 171 q 526 297 513 244 q 551 414 540 349 z "},"p":{"ha":753,"x_min":-121,"x_max":729,"o":"m 60 -154 q 44 -186 53 -176 q 17 -196 36 -196 l -121 -196 q -18 206 -69 8 q 83 604 33 404 q 112 644 92 638 q 161 651 132 651 q 213 647 196 651 q 239 635 229 642 q 255 624 249 629 q 274 617 261 618 q 371 640 318 626 q 492 653 424 653 q 590 646 546 653 q 665 621 633 639 q 713 572 696 603 q 729 493 729 540 q 724 422 729 460 q 709 344 718 383 q 689 267 700 306 q 665 193 678 228 q 617 97 649 135 q 542 35 586 58 q 444 3 499 13 q 325 -6 389 -6 q 222 10 272 -6 q 114 42 171 26 q 87 -52 103 -3 q 60 -154 71 -101 m 150 178 q 223 143 185 153 q 300 133 261 133 q 347 136 321 133 q 397 147 372 139 q 444 167 422 154 q 479 201 467 181 q 522 287 501 235 q 546 388 542 339 q 531 472 550 438 q 454 507 513 507 q 382 505 421 507 q 307 494 343 503 q 244 464 271 485 q 207 406 217 443 l 150 178 z "},"q":{"ha":740,"x_min":-32,"x_max":756,"o":"m 493 -197 q 428 -195 461 -194 q 357 -196 396 -196 q 390 -69 374 -132 q 426 67 407 -6 q 319 10 374 24 q 213 -4 265 -4 q 104 2 150 -4 q 28 26 58 8 q -17 73 -3 43 q -29 150 -32 103 q -19 227 -28 186 q 1 310 -11 268 q 28 394 14 353 q 54 472 42 436 q 105 560 74 525 q 175 615 136 594 q 260 644 214 636 q 356 653 306 653 q 410 648 383 653 q 464 637 438 643 q 517 626 490 631 q 572 621 544 621 q 608 624 590 621 q 643 626 626 626 q 730 612 704 626 q 753 563 756 597 q 742 500 753 540 q 642 172 693 335 q 544 -158 592 8 q 526 -190 538 -182 q 493 -197 515 -197 m 324 147 q 388 158 361 150 q 435 183 415 167 q 469 222 456 199 q 494 281 483 246 q 515 356 506 318 q 538 432 524 394 q 541 445 540 439 q 543 457 542 451 q 522 487 544 476 q 467 503 500 497 q 399 509 435 508 q 336 510 363 510 q 269 492 297 510 q 231 439 242 475 q 191 328 208 386 q 172 217 174 271 q 190 160 169 174 q 261 146 210 146 l 292 146 q 324 147 308 146 z "},"r":{"ha":410,"x_min":-65,"x_max":493,"o":"m 269 646 l 329 646 q 394 644 363 646 q 453 640 426 643 q 493 632 479 638 q 480 567 486 600 q 467 499 474 535 q 422 498 444 499 q 378 497 400 497 q 340 499 358 497 q 304 500 322 500 q 231 442 244 500 q 177 246 204 343 q 126 49 150 149 q 110 14 121 24 q 76 4 100 4 q 41 5 58 4 q 8 6 24 6 l -65 6 q -7 247 -35 129 q 49 482 21 365 q 126 608 72 569 q 269 646 179 646 z "},"s":{"ha":646,"x_min":-99,"x_max":647,"o":"m 224 140 q 267 144 238 140 q 326 155 297 147 q 376 176 356 163 q 394 211 397 190 q 390 227 393 219 q 381 242 388 235 q 360 255 374 250 q 326 261 347 260 q 212 268 268 265 q 99 283 156 271 q 18 325 39 296 q -3 415 -3 354 q 13 502 -3 461 q 56 573 28 543 q 122 622 83 603 q 208 643 161 640 q 392 647 300 647 q 517 647 454 647 q 647 646 581 646 q 632 578 640 611 q 617 510 624 546 l 292 510 q 260 508 276 510 q 229 500 243 506 q 206 483 215 494 q 196 453 196 471 q 203 427 196 436 q 223 414 211 418 q 248 409 235 410 q 274 407 261 408 q 372 397 322 401 q 469 383 421 393 q 553 344 529 372 q 576 256 576 315 q 515 76 576 143 q 338 3 453 10 q 250 -1 293 0 q 163 -3 207 -3 q 34 -1 99 -3 q -99 0 -31 0 q -83 81 -90 44 q -68 158 -76 118 q 77 147 6 153 q 224 140 149 140 z "},"t":{"ha":404,"x_min":-58,"x_max":463,"o":"m 101 0 q -19 38 14 0 q -32 164 -53 76 l 54 511 l -58 511 q -52 538 -57 517 q -40 582 -47 558 q -26 625 -33 606 q -15 647 -19 644 q 5 649 -10 649 q 36 650 19 650 l 97 650 q 108 680 103 661 q 119 719 114 699 l 131 763 q 142 804 136 785 l 325 804 l 283 642 l 463 642 l 421 503 l 236 506 l 228 472 l 226 472 q 194 338 210 408 q 163 204 178 268 q 167 160 154 175 q 211 146 181 146 q 259 147 232 146 q 318 147 286 147 q 299 78 308 111 q 281 14 289 46 q 200 1 246 3 q 101 0 154 0 z "},"u":{"ha":718,"x_min":-35,"x_max":739,"o":"m 426 71 q 288 19 356 39 q 146 -1 221 -1 q 10 31 54 -1 q -33 135 -35 63 q -25 189 -32 160 q 29 414 1 303 q 86 639 57 525 l 269 639 q 221 455 243 544 q 174 274 199 365 q 161 213 165 244 q 169 177 160 189 q 196 160 179 165 q 235 156 213 156 l 281 156 q 340 160 311 156 q 394 176 369 164 q 436 208 418 188 q 463 264 454 229 q 508 451 482 360 q 561 639 535 543 l 739 639 q 673 397 704 515 q 608 157 642 279 q 584 76 593 107 q 563 28 575 46 q 531 6 550 11 q 479 0 513 0 q 451 1 468 0 q 414 3 433 1 l 426 71 z "},"v":{"ha":672,"x_min":-4,"x_max":760,"o":"m 624 638 q 644 636 635 636 l 665 636 q 709 637 686 636 q 760 638 732 638 q 700 520 732 581 q 636 401 668 460 q 572 286 604 342 q 513 184 540 231 q 462 103 485 138 q 424 50 439 68 q 356 8 401 24 q 261 -4 311 -7 q 166 23 211 -1 q 100 100 121 47 q 69 234 83 169 q 42 363 54 299 q 18 494 29 428 q -4 635 7 561 l 169 635 q 201 502 186 569 q 229 369 215 435 q 256 244 243 304 q 279 133 268 183 q 420 363 358 246 q 551 599 482 479 q 581 630 565 622 q 624 638 596 638 z "},"w":{"ha":1003,"x_min":0,"x_max":1088,"o":"m 272 1 q 226 2 249 1 q 181 3 204 3 q 144 2 163 3 q 107 1 126 1 q 60 20 72 1 q 44 69 47 39 q 26 356 35 215 q 0 647 17 497 l 197 647 q 209 383 204 514 q 219 122 214 253 l 228 118 q 342 358 285 240 q 451 600 399 476 q 481 640 463 628 q 528 651 499 651 q 545 651 533 651 q 572 650 557 650 q 601 649 586 650 q 629 649 617 649 q 656 638 649 649 q 663 588 663 628 q 662 363 663 475 q 661 138 661 250 l 682 133 q 726 227 703 172 q 775 344 749 282 q 828 474 801 407 q 885 603 856 540 q 905 632 893 622 q 936 644 917 642 q 963 648 950 647 q 990 650 976 649 q 1038 650 1014 653 q 1088 650 1063 647 q 1048 563 1069 613 q 1003 458 1026 513 q 954 346 979 403 q 907 238 929 289 q 865 147 885 188 q 833 85 846 107 q 790 33 814 51 q 737 4 765 14 q 676 -8 708 -6 q 607 -10 643 -10 q 537 2 558 -10 q 508 50 515 14 q 501 152 501 86 q 492 325 500 218 l 371 69 q 333 19 356 36 q 272 1 311 1 z "},"x":{"ha":729,"x_min":-112,"x_max":792,"o":"m 197 286 l 244 332 q 165 460 208 393 q 85 593 121 526 l 57 642 q 60 646 53 646 l 178 646 q 247 644 213 646 q 269 632 258 643 q 286 610 279 621 q 326 544 307 574 q 367 475 346 515 l 379 451 l 426 499 q 487 554 457 531 q 544 608 517 578 q 626 646 582 650 q 674 645 650 644 q 721 646 697 646 l 768 646 q 781 642 771 646 q 790 638 792 639 l 563 422 l 460 324 l 565 163 l 664 4 q 661 0 668 0 l 496 0 q 463 1 479 0 q 439 13 451 3 q 419 33 426 24 l 343 160 l 321 196 l 272 151 q 203 88 238 119 q 136 25 168 57 q 76 -1 111 1 q 7 -1 42 -4 q -14 0 -4 0 l -107 0 q -108 4 -112 0 l 197 286 z "},"y":{"ha":639,"x_min":-182,"x_max":664,"o":"m 174 -199 q 67 -198 114 -199 q -19 -196 21 -197 q -99 -194 -60 -194 q -182 -193 -137 -193 q -168 -136 -175 -167 q -149 -75 -161 -106 q -94 -59 -142 -62 q 15 -56 -47 -56 q 106 -56 61 -56 q 183 -57 151 -57 q 252 -53 226 -57 q 294 -37 278 -50 q 319 1 310 -24 q 340 71 329 26 q 236 58 296 65 q 126 51 176 51 q 26 85 61 51 q -7 183 -8 119 q 8 402 -4 294 q 35 624 19 510 l 217 624 q 190 424 203 524 q 175 225 176 325 q 231 174 174 174 q 328 195 283 174 q 390 269 374 217 q 437 426 413 349 q 482 583 461 504 q 500 617 489 607 q 535 628 511 628 l 543 628 q 561 626 553 626 l 582 626 q 622 627 601 626 q 664 628 642 628 q 597 375 628 499 q 531 126 565 251 q 491 -8 510 51 q 440 -110 472 -68 q 354 -174 408 -151 q 207 -196 300 -196 l 204 -196 q 188 -198 196 -197 q 174 -199 181 -199 z "},"z":{"ha":663,"x_min":-86,"x_max":675,"o":"m 674 649 q 656 549 675 590 q 606 477 636 508 q 537 420 575 446 q 464 367 499 394 q 321 261 393 313 q 169 153 249 210 l 588 153 q 565 87 575 118 q 542 25 554 56 q 528 11 539 18 q 507 4 517 4 q 210 3 358 3 q -86 4 63 4 q -72 94 -86 54 q -33 168 -58 135 q 24 229 -8 201 q 94 282 57 257 q 232 381 165 331 q 368 482 299 432 q 381 494 375 488 q 400 513 388 501 l 33 513 l 71 649 l 674 649 l 674 649 z "},"(":{"ha":488,"x_min":3,"x_max":479,"o":"m 479 881 q 263 583 338 742 q 182 231 189 425 q 192 97 179 160 q 224 -43 204 35 q 184 -44 204 -43 q 143 -44 164 -44 q 122 -44 132 -44 q 101 -43 113 -43 q 49 -13 68 -42 q 19 57 29 15 q 6 144 8 99 q 4 226 3 190 q 17 349 6 279 q 49 492 28 418 q 103 636 71 565 q 178 763 135 707 q 274 854 221 819 q 393 889 328 889 q 479 881 433 889 z "},"[":{"ha":542,"x_min":-3,"x_max":576,"o":"m 371 893 q 471 893 421 894 q 576 892 521 892 q 565 848 569 871 q 552 805 560 825 q 532 772 544 785 q 497 758 519 758 q 401 751 436 756 q 346 728 367 746 q 313 676 325 711 q 282 575 300 640 q 232 392 256 483 q 185 206 208 300 q 179 172 179 189 q 201 125 178 140 q 283 103 225 110 l 238 -39 q 192 -40 214 -39 q 147 -40 169 -40 q 81 -37 110 -40 q 34 -23 53 -33 q 6 7 15 -12 q -1 58 -3 26 q 17 186 0 121 q 50 314 33 251 q 99 494 74 404 q 151 674 124 585 q 179 752 163 713 q 222 823 196 792 q 285 874 249 854 q 371 893 321 893 z "},"?":{"ha":738,"x_min":36,"x_max":667,"o":"m 521 844 q 631 789 596 832 q 667 679 667 746 q 639 543 667 597 q 567 454 611 489 q 472 400 524 419 q 371 368 419 381 q 316 340 335 358 q 293 283 297 322 q 275 247 290 258 q 238 235 260 235 q 211 236 226 236 l 82 236 l 92 279 q 108 356 100 318 q 129 433 115 394 q 149 456 133 447 q 186 472 165 465 q 230 484 207 479 q 272 494 253 489 q 335 510 301 503 q 399 534 369 518 q 447 578 428 550 q 465 656 465 607 q 455 689 465 676 q 429 708 444 701 q 395 716 414 714 q 358 718 376 718 l 96 718 l 107 763 q 116 797 111 778 q 128 832 121 815 q 144 860 136 849 q 164 871 153 871 q 342 865 249 871 q 521 844 435 860 m 36 1 q 63 94 43 68 q 136 121 82 121 q 225 113 171 121 q 211 59 218 86 q 197 4 204 32 q 118 0 157 0 q 78 1 99 0 q 36 1 57 1 z "},".":{"ha":236,"x_min":24,"x_max":213,"o":"m 24 1 q 38 72 28 46 q 67 109 47 97 q 122 121 88 121 q 213 113 157 121 q 199 59 206 86 q 185 4 192 32 q 165 2 174 3 q 144 1 156 1 l 24 1 l 24 1 z "},",":{"ha":253,"x_min":24,"x_max":231,"o":"m 78 111 l 231 111 q 187 8 207 57 q 143 -89 167 -42 q 120 -115 133 -108 q 91 -124 107 -122 q 58 -122 75 -125 q 24 -121 40 -119 l 78 111 z "},"&":{"ha":897,"x_min":38,"x_max":874,"o":"m 874 443 q 807 299 842 367 q 721 178 772 231 q 776 94 746 138 q 836 3 807 50 q 817 4 826 4 l 799 4 q 753 3 775 4 q 707 1 731 1 q 648 11 679 1 q 592 40 617 21 q 583 43 589 43 q 569 41 576 43 q 557 36 563 39 q 476 13 526 24 q 367 -1 425 3 q 251 -1 310 -6 q 144 22 192 4 q 67 72 97 39 q 38 158 38 106 q 54 263 38 215 q 101 351 71 311 q 171 421 131 390 q 258 472 211 451 q 196 650 196 568 q 272 804 196 740 q 340 840 297 825 q 433 860 383 854 q 535 861 483 865 q 632 841 588 857 q 708 798 676 825 q 747 731 739 771 q 739 642 757 682 q 685 569 721 603 q 601 507 650 536 q 497 450 551 478 l 631 272 q 655 318 644 297 q 673 358 665 339 q 688 398 681 378 q 703 443 694 418 l 874 443 m 215 206 q 246 147 215 167 q 322 123 276 126 q 422 130 368 119 q 524 161 476 140 q 474 226 503 188 q 416 297 444 264 q 365 353 388 331 q 333 369 342 375 q 277 325 300 350 q 240 276 254 300 q 221 233 226 253 q 215 206 215 214 m 374 669 q 368 614 364 638 q 400 567 372 590 q 456 575 425 567 q 513 598 486 583 q 559 632 540 613 q 581 672 578 651 q 558 735 585 714 q 494 756 531 756 q 422 734 458 756 q 374 669 386 713 z "},"@":{"ha":1058,"x_min":39,"x_max":1072,"o":"m 947 840 q 1039 774 1006 825 q 1067 651 1072 724 q 1065 633 1065 643 q 1061 614 1064 624 q 1017 440 1043 526 q 958 271 990 354 q 897 178 932 210 q 817 133 863 146 q 717 119 772 119 q 596 118 663 118 q 606 158 603 142 q 613 190 610 175 q 526 151 571 174 q 439 129 481 129 q 363 167 390 129 q 340 268 336 206 q 369 425 346 357 q 426 540 392 493 q 503 610 460 586 q 597 633 547 633 q 635 630 619 633 q 663 621 650 626 q 688 608 675 615 q 717 593 700 601 q 740 626 728 618 q 768 635 753 635 q 792 633 779 635 q 819 631 806 631 q 850 636 838 631 l 756 257 q 775 244 765 253 q 802 268 786 257 q 824 294 818 279 q 869 456 849 375 q 910 618 890 536 q 913 629 913 625 l 913 640 q 898 692 915 672 q 849 711 881 711 q 708 713 776 711 q 569 715 640 715 q 503 712 536 715 q 443 696 471 708 q 393 660 415 683 q 357 594 371 636 q 294 401 325 499 q 240 207 263 304 q 228 124 229 157 q 243 70 226 90 q 297 40 260 50 q 400 28 335 31 q 579 27 492 24 q 763 31 667 31 q 742 -29 751 -6 q 722 -85 733 -53 q 706 -99 719 -93 q 683 -107 693 -104 q 460 -114 571 -110 q 236 -118 349 -118 q 155 -104 194 -118 q 88 -58 115 -90 q 49 27 60 -26 q 58 158 39 81 q 96 314 76 233 q 138 471 115 394 q 190 615 161 547 q 253 735 218 683 q 330 819 288 788 q 425 853 372 850 q 524 856 471 856 q 631 857 576 857 q 737 856 685 857 q 835 856 789 856 q 892 851 863 856 q 947 840 921 847 m 672 432 q 657 482 675 464 q 607 500 639 500 q 522 456 557 500 q 479 340 486 411 q 486 282 476 304 q 514 260 496 260 q 572 267 549 260 q 611 290 594 274 q 641 335 628 307 q 667 404 654 363 l 672 432 z "},"/":{"ha":679,"x_min":21,"x_max":658,"o":"m 489 853 q 571 855 529 856 q 658 854 613 854 l 282 164 q 274 151 278 157 q 268 139 271 146 q 223 56 240 85 q 182 13 206 26 q 122 -3 158 0 q 21 -6 86 -6 l 65 74 l 251 447 q 347 637 300 543 q 440 819 394 731 q 461 841 447 831 q 489 853 475 851 z "},"'":{"ha":257,"x_min":25,"x_max":232,"o":"m 79 868 l 232 868 q 188 765 208 814 q 144 668 168 715 q 122 642 135 649 q 92 633 108 635 q 59 635 76 632 q 25 636 42 638 l 79 868 z "},"¸":{"ha":313,"x_min":24,"x_max":288,"o":"m 24 -178 q 65 -100 44 -129 q 113 -57 85 -71 q 183 -42 142 -43 q 288 -47 224 -40 q 272 -101 279 -75 q 253 -153 264 -128 q 236 -169 249 -162 q 213 -178 224 -176 q 119 -179 165 -181 q 24 -178 72 -178 z "},"´":{"ha":324,"x_min":24,"x_max":303,"o":"m 97 913 q 196 914 146 914 l 303 914 q 225 831 257 861 q 164 788 193 801 q 103 776 135 775 q 24 788 71 778 q 42 841 33 815 q 63 892 51 867 q 76 906 65 899 q 97 913 88 913 z "},"`":{"ha":324,"x_min":21,"x_max":300,"o":"m 226 913 q 247 906 236 913 q 261 892 258 899 q 281 841 272 867 q 300 788 290 815 q 221 776 253 778 q 160 788 189 775 q 99 831 131 801 q 21 914 67 861 l 128 914 q 226 913 178 914 z "},"˜":{"ha":556,"x_min":21,"x_max":533,"o":"m 385 844 q 456 860 417 858 q 533 865 494 861 q 494 776 521 810 q 434 728 468 743 q 362 714 400 713 q 288 728 324 715 q 253 742 269 735 q 221 751 238 749 q 188 749 204 753 q 150 729 171 744 q 126 719 140 721 q 94 719 111 718 q 58 724 76 721 q 21 726 39 726 q 138 853 61 821 q 322 836 215 886 q 354 832 342 828 q 385 844 367 836 z "},"–":{"ha":625,"x_min":25,"x_max":535,"o":"m 528 399 q 533 390 531 393 q 533 385 535 388 q 514 312 522 338 q 490 274 506 286 q 448 260 475 263 q 371 257 421 257 q 200 256 285 256 q 29 257 115 257 q 26 268 28 264 q 26 275 25 272 q 51 355 44 329 q 69 390 57 381 q 106 398 81 399 q 185 399 131 397 q 357 399 272 400 q 528 399 442 399 z "},"$":{"ha":874,"x_min":68,"x_max":825,"o":"m 394 211 q 440 215 410 211 q 499 226 469 218 q 550 250 529 235 q 568 289 571 265 q 554 322 565 306 q 500 343 543 339 q 384 350 442 347 q 268 367 326 353 q 186 413 207 381 q 165 510 165 444 q 181 604 165 560 q 224 682 196 649 q 292 735 253 715 q 379 758 331 756 l 453 761 l 471 828 q 483 874 476 856 q 498 903 489 893 q 520 918 507 914 q 553 922 533 922 q 565 922 551 922 q 596 919 579 921 q 627 915 613 918 q 642 910 642 913 l 604 763 q 713 762 658 763 q 825 761 768 761 l 794 614 l 464 614 q 432 612 449 614 q 401 603 415 610 q 376 584 386 596 q 367 551 367 572 q 374 524 367 533 q 394 509 382 514 q 419 503 406 504 q 446 501 433 503 q 545 491 496 496 q 644 475 594 486 q 729 432 706 463 q 753 336 753 401 q 690 140 753 213 q 511 61 628 68 q 465 58 488 58 q 419 56 443 57 l 418 50 q 404 -17 410 10 q 390 -61 399 -44 q 369 -85 382 -78 q 336 -93 357 -93 q 317 -92 331 -93 q 290 -90 304 -92 q 266 -83 276 -87 q 256 -71 256 -78 l 282 56 q 176 57 229 56 q 68 58 124 58 q 83 147 76 107 q 99 229 90 186 q 247 217 174 224 q 394 211 319 211 z "},"¥":{"ha":942,"x_min":78,"x_max":919,"o":"m 479 542 l 490 525 q 572 638 529 583 q 664 749 615 692 q 692 781 679 767 q 721 806 706 796 q 754 822 736 817 q 797 822 772 826 q 852 819 824 818 q 919 821 881 821 l 790 653 l 664 489 l 796 489 q 801 478 799 482 q 803 472 803 475 q 782 408 790 431 q 760 376 774 386 q 722 365 746 367 q 653 365 697 364 l 636 365 q 619 368 635 365 q 590 368 608 369 q 558 364 571 367 q 553 342 553 356 q 546 307 553 328 q 600 308 574 307 q 653 307 626 308 q 705 307 679 306 q 758 306 731 308 l 742 196 l 533 196 q 513 124 524 160 q 496 53 503 89 q 474 11 490 21 q 431 3 458 1 q 365 5 399 6 q 296 4 332 4 l 342 194 l 78 194 q 91 236 85 218 q 101 274 97 254 q 121 306 107 297 q 158 314 135 314 q 260 309 203 314 q 361 307 317 304 q 367 312 367 307 q 368 323 368 317 q 369 335 368 329 q 376 346 371 342 l 368 361 l 140 367 q 161 431 150 410 q 192 462 172 453 q 247 474 213 471 q 335 482 281 476 q 263 590 300 535 q 196 697 226 644 q 160 753 175 728 q 122 815 146 779 q 183 817 161 813 q 231 824 204 821 q 307 802 281 826 q 358 739 333 778 l 490 536 l 479 542 z "},"€":{"ha":799,"x_min":24,"x_max":768,"o":"m 569 588 q 508 589 538 590 q 453 577 479 588 q 403 547 426 567 q 363 493 381 526 l 650 493 q 635 438 642 461 q 622 392 628 414 q 467 385 543 389 q 313 376 390 382 q 310 365 310 376 q 307 342 310 353 l 579 342 l 542 225 l 300 225 q 306 171 292 190 q 351 149 319 151 q 498 142 425 143 q 644 138 571 140 q 658 138 651 138 q 676 140 665 139 q 660 80 667 108 q 643 24 654 51 q 627 8 639 15 q 606 1 615 1 q 428 5 517 4 q 251 17 339 6 q 194 33 217 21 q 156 68 171 44 q 131 128 140 92 q 115 217 121 164 q 72 220 94 218 q 24 225 50 222 q 35 272 31 249 q 51 315 40 296 q 74 332 58 326 q 104 340 89 338 q 126 343 118 342 q 140 348 135 344 q 148 360 144 351 q 156 383 151 368 l 72 390 q 77 442 74 424 q 90 472 81 461 q 115 489 99 483 q 160 501 132 494 q 181 513 171 504 q 197 533 192 522 q 312 677 242 625 q 489 728 382 729 l 768 728 l 714 576 q 673 578 689 578 q 642 581 657 579 q 611 583 628 582 q 569 588 594 585 z "},"˚":{"ha":329,"x_min":22,"x_max":307,"o":"m 22 796 q 43 864 22 836 q 96 908 64 892 q 165 928 128 925 q 233 923 201 932 q 286 890 265 914 q 307 829 307 867 q 267 744 307 771 q 156 717 226 717 q 105 721 129 717 q 63 735 81 725 q 33 760 44 744 q 22 796 22 775 m 211 822 q 197 840 211 826 q 168 872 183 854 q 142 835 153 849 q 126 806 131 821 q 131 799 126 803 q 141 789 135 794 q 153 780 147 783 q 163 776 160 776 q 176 782 168 776 q 190 794 183 788 q 203 810 197 801 l 211 822 z "}," ":{"ha":222,"x_min":0,"x_max":0,"o":""},"\"":{"ha":456,"x_min":25,"x_max":432,"o":"m 79 868 l 232 868 q 188 765 208 814 q 144 668 168 715 q 122 642 135 649 q 92 633 108 635 q 59 635 76 632 q 25 636 42 638 l 79 868 m 279 868 l 432 868 q 388 765 408 814 q 344 668 368 715 q 322 642 335 649 q 292 633 308 635 q 259 635 276 632 q 225 636 242 638 l 279 868 z "},"”":{"ha":592,"x_min":161,"x_max":568,"o":"m 215 868 l 368 868 q 324 765 344 814 q 281 668 304 715 q 258 642 271 649 q 228 633 244 635 q 195 635 213 632 q 161 636 178 638 l 215 868 m 415 868 l 568 868 q 524 765 544 814 q 481 668 504 715 q 458 642 471 649 q 428 633 444 635 q 395 635 413 632 q 361 636 378 638 l 415 868 z "},"“":{"ha":433,"x_min":24,"x_max":431,"o":"m 376 615 l 224 615 q 267 719 247 669 q 311 815 288 768 q 334 842 321 835 q 363 850 347 849 q 397 849 379 851 q 431 847 414 846 l 376 615 m 176 615 l 24 615 q 67 719 47 669 q 111 815 88 768 q 134 842 121 835 q 163 850 147 849 q 197 849 179 851 q 231 847 214 846 l 176 615 z "},"’":{"ha":372,"x_min":143,"x_max":350,"o":"m 197 868 l 350 868 q 306 765 326 814 q 263 668 286 715 q 240 642 253 649 q 210 633 226 635 q 177 635 194 632 q 143 636 160 638 l 197 868 z "},"‘":{"ha":231,"x_min":22,"x_max":229,"o":"m 175 615 l 22 615 q 66 719 46 669 q 110 815 86 768 q 133 842 119 835 q 162 850 146 849 q 195 849 178 851 q 229 847 213 846 l 175 615 z "},"—":{"ha":672,"x_min":25,"x_max":604,"o":"m 597 399 q 602 390 600 393 q 603 385 604 388 q 583 312 592 338 q 560 274 575 286 q 517 260 544 263 q 440 257 490 257 l 29 257 q 26 268 28 264 q 26 275 25 272 q 51 355 44 329 q 69 390 57 381 q 106 398 81 399 q 185 399 131 397 l 597 399 z "},"-":{"ha":565,"x_min":24,"x_max":478,"o":"m 471 399 q 476 390 474 393 q 476 385 478 388 q 457 312 465 338 q 433 274 449 286 q 391 260 418 263 q 314 257 364 257 l 28 257 q 25 268 26 264 q 25 275 24 272 q 49 355 43 329 q 67 390 56 381 q 104 398 79 399 q 183 399 129 397 l 471 399 z "},"−":{"ha":496,"x_min":18,"x_max":472,"o":"m 465 399 q 470 390 468 393 q 471 385 472 388 q 451 312 460 338 q 428 274 443 286 q 385 260 413 263 q 308 257 358 257 l 22 257 q 19 268 21 264 q 19 275 18 272 q 44 355 38 329 q 62 390 50 381 q 99 398 74 399 q 178 399 124 397 l 465 399 z "},"_":{"ha":782,"x_min":25,"x_max":757,"o":"m 750 -90 q 755 -99 753 -96 q 756 -104 757 -101 q 736 -177 744 -151 q 713 -215 728 -203 q 670 -229 697 -226 q 593 -232 643 -232 l 29 -232 q 26 -221 28 -225 q 26 -214 25 -217 q 51 -134 44 -160 q 69 -99 57 -108 q 106 -91 81 -90 q 185 -90 131 -92 l 750 -90 z "},"…":{"ha":851,"x_min":25,"x_max":686,"o":"m 25 1 q 39 72 29 46 q 69 109 49 97 q 124 121 89 121 q 214 113 158 121 q 200 59 207 86 q 186 4 193 32 q 166 2 175 3 q 146 1 157 1 l 25 1 m 497 1 q 511 72 501 46 q 541 109 521 97 q 596 121 561 121 q 686 113 631 121 q 672 59 679 86 q 658 4 665 32 q 638 2 647 3 q 618 1 629 1 l 497 1 m 261 1 q 275 72 265 46 q 305 109 285 97 q 360 121 325 121 q 450 113 394 121 q 436 59 443 86 q 422 4 429 32 q 402 2 411 3 q 382 1 393 1 l 261 1 z "},":":{"ha":308,"x_min":1,"x_max":286,"o":"m 1 1 q 15 72 6 46 q 45 109 25 97 q 100 121 65 121 q 190 113 135 121 q 176 59 183 86 q 163 4 169 32 q 142 2 151 3 q 122 1 133 1 l 1 1 m 97 518 q 111 588 101 563 q 141 626 121 614 q 196 638 161 638 q 286 629 231 638 q 272 576 279 603 q 258 521 265 549 q 238 519 247 519 q 218 518 229 518 l 97 518 z "},";":{"ha":375,"x_min":51,"x_max":354,"o":"m 106 111 l 258 111 q 215 8 235 57 q 171 -89 194 -42 q 148 -115 161 -108 q 119 -124 135 -122 q 85 -122 103 -125 q 51 -121 68 -119 l 106 111 m 165 518 q 179 588 169 563 q 209 626 189 614 q 264 638 229 638 q 354 629 299 638 q 340 576 347 603 q 326 521 333 549 q 306 519 315 519 q 286 518 297 518 l 165 518 z "},"!":{"ha":426,"x_min":22,"x_max":406,"o":"m 207 236 q 138 238 172 239 q 63 238 103 238 l 225 869 l 406 869 l 342 604 q 300 441 321 521 q 260 278 279 361 q 242 244 254 253 q 207 236 231 235 m 22 1 q 36 72 26 46 q 66 109 46 97 q 121 121 86 121 q 211 113 156 121 q 197 59 204 86 q 183 4 190 32 q 163 2 172 3 q 143 1 154 1 l 22 1 z "},"‹":{"ha":540,"x_min":26,"x_max":433,"o":"m 392 564 q 403 554 403 556 q 416 479 413 506 q 411 435 419 453 q 378 404 403 418 q 310 369 354 390 l 228 329 l 318 301 q 393 278 369 285 q 425 258 417 271 q 433 219 433 246 q 433 136 432 193 l 425 119 q 351 142 383 132 q 288 161 318 151 q 224 181 257 171 q 151 204 192 192 q 85 226 110 217 q 47 247 60 235 q 32 279 35 260 q 31 332 29 299 q 27 371 26 358 q 38 393 28 383 q 71 413 49 403 q 132 442 93 422 q 201 475 171 460 q 261 503 232 490 q 322 531 290 517 q 392 564 353 546 z "},"›":{"ha":479,"x_min":46,"x_max":453,"o":"m 88 564 q 157 531 126 546 q 217 503 188 517 q 277 475 246 490 q 347 442 308 460 q 408 413 386 422 q 441 393 431 403 q 452 371 451 383 q 449 332 453 358 q 447 279 450 299 q 432 247 444 260 q 394 226 419 235 q 328 204 369 217 q 255 181 288 192 q 192 161 222 171 q 128 142 161 151 q 54 119 96 132 l 46 136 q 47 198 47 174 q 47 237 46 222 q 53 259 49 251 q 71 272 58 267 q 105 284 83 278 q 161 301 126 290 l 251 329 l 169 369 q 101 404 125 390 q 68 435 76 418 q 63 479 60 453 q 76 554 67 506 q 88 564 76 556 z "},"«":{"ha":965,"x_min":28,"x_max":836,"o":"m 393 564 q 404 554 404 556 q 417 479 414 506 q 413 435 421 453 q 380 404 404 418 q 311 369 356 390 l 229 329 l 319 301 q 394 278 371 285 q 426 258 418 271 q 434 219 435 246 q 435 136 433 193 l 426 119 q 352 142 385 132 q 289 161 319 151 q 226 181 258 171 q 153 204 193 192 q 86 226 111 217 q 49 247 61 235 q 33 279 36 260 q 32 332 31 299 q 28 371 28 358 q 40 393 29 383 q 72 413 50 403 q 133 442 94 422 q 203 475 172 460 q 263 503 233 490 q 323 531 292 517 q 393 564 354 546 m 794 568 q 806 558 806 560 q 819 483 815 510 q 814 440 822 457 q 781 408 806 422 q 713 374 757 394 l 631 333 l 721 306 q 796 282 772 289 q 828 263 819 275 q 835 224 836 250 q 836 140 835 197 l 828 124 q 753 146 786 136 q 690 165 721 156 q 627 185 660 175 q 554 208 594 196 q 488 230 513 221 q 450 251 463 239 q 435 283 438 264 q 433 336 432 303 q 430 375 429 363 q 441 397 431 388 q 474 417 451 407 q 535 446 496 426 q 604 479 574 464 q 664 508 635 494 q 724 535 693 521 q 794 568 756 550 z "},"»":{"ha":922,"x_min":86,"x_max":894,"o":"m 529 564 q 599 531 568 546 q 658 503 629 517 q 719 475 688 490 q 789 442 750 460 q 850 413 828 422 q 883 393 872 403 q 894 371 893 383 q 890 332 894 358 q 889 279 892 299 q 874 247 886 260 q 836 226 861 235 q 769 204 811 217 q 697 181 729 192 q 633 161 664 171 q 570 142 603 151 q 496 119 538 132 l 488 136 q 488 198 489 174 q 489 237 488 222 q 495 259 490 251 q 513 272 500 267 q 547 284 525 278 q 603 301 568 290 l 693 329 l 611 369 q 542 404 567 390 q 510 435 518 418 q 505 479 501 453 q 518 554 508 506 q 529 564 518 556 m 128 567 q 197 534 167 549 q 257 506 228 519 q 317 478 286 493 q 388 444 349 463 q 449 415 426 425 q 481 396 471 406 q 492 374 492 386 q 489 335 493 361 q 488 282 490 301 q 472 250 485 263 q 435 228 460 238 q 368 207 410 219 q 295 184 328 194 q 232 164 263 174 q 169 144 201 154 q 94 122 136 135 l 86 139 q 87 201 88 176 q 88 240 86 225 q 94 262 89 254 q 111 275 99 269 q 145 287 124 281 q 201 304 167 293 l 292 332 l 210 372 q 141 407 165 393 q 108 438 117 421 q 103 482 100 456 q 117 557 107 508 q 128 567 117 558 z "},"=":{"ha":551,"x_min":24,"x_max":528,"o":"m 471 343 q 476 335 474 338 q 476 329 478 332 q 457 256 465 282 q 433 219 449 231 q 391 204 418 207 q 314 201 364 201 l 28 201 q 25 213 26 208 q 25 219 24 217 q 49 299 43 274 q 67 334 56 325 q 104 342 79 343 q 183 343 129 342 l 471 343 m 521 531 q 526 522 524 525 q 526 517 528 519 q 507 444 515 469 q 483 406 499 418 q 441 392 468 394 q 364 389 414 389 l 78 389 q 75 400 76 396 q 75 407 74 404 q 99 487 93 461 q 117 522 106 513 q 154 530 129 531 q 233 531 179 529 l 521 531 z "},"<":{"ha":479,"x_min":26,"x_max":433,"o":"m 392 568 q 403 558 403 560 q 416 483 413 510 q 411 440 419 457 q 378 408 403 422 q 310 374 354 394 l 228 333 l 318 306 q 393 282 369 289 q 425 263 417 275 q 433 224 433 250 q 433 140 432 197 l 425 124 q 351 146 383 136 q 288 165 318 156 q 224 185 257 175 q 151 208 192 196 q 85 230 110 221 q 47 251 60 239 q 32 283 35 264 q 31 336 29 303 q 27 375 26 363 q 38 397 28 388 q 71 417 49 407 q 132 446 93 426 q 201 479 171 464 q 261 508 232 494 q 322 535 290 521 q 392 568 353 550 z "},">":{"ha":479,"x_min":46,"x_max":453,"o":"m 88 568 q 157 535 126 550 q 217 508 188 521 q 277 479 246 494 q 347 446 308 464 q 408 417 386 426 q 441 397 431 407 q 452 375 451 388 q 449 336 453 363 q 447 283 450 303 q 432 251 444 264 q 394 230 419 239 q 328 208 369 221 q 255 185 288 196 q 192 165 222 175 q 128 146 161 156 q 54 124 96 136 l 46 140 q 47 202 47 178 q 47 241 46 226 q 53 263 49 256 q 71 276 58 271 q 105 288 83 282 q 161 306 126 294 l 251 333 l 169 374 q 101 408 125 394 q 68 440 76 422 q 63 483 60 457 q 76 558 67 510 q 88 568 76 560 z "},"%":{"ha":715,"x_min":32,"x_max":690,"o":"m 503 853 q 585 855 543 856 q 672 854 626 854 l 296 164 q 288 151 292 157 q 282 139 285 146 q 237 56 254 85 q 196 13 219 26 q 136 -3 172 0 q 35 -6 100 -6 l 79 74 l 265 447 q 361 637 314 543 q 454 819 408 731 q 475 841 461 831 q 503 853 489 851 m 626 372 q 674 347 657 368 q 679 289 690 325 q 646 192 663 233 q 607 122 629 150 q 554 80 585 94 q 481 64 524 65 q 384 101 403 61 q 392 211 365 142 q 428 292 410 258 q 473 344 447 325 q 535 371 499 364 q 626 372 572 378 m 293 844 q 340 819 324 840 q 346 761 357 797 q 313 664 329 706 q 274 594 296 622 q 221 552 251 567 q 147 536 190 538 q 51 574 69 533 q 58 683 32 614 q 95 764 76 731 q 140 817 114 797 q 202 843 165 836 q 293 844 239 850 m 503 169 q 538 178 519 163 q 568 215 556 193 q 585 256 581 236 q 579 281 589 276 q 531 279 553 292 q 498 245 510 267 q 486 201 486 224 q 503 169 486 178 m 169 642 q 204 650 186 635 q 235 687 222 665 q 251 728 247 708 q 246 753 256 749 q 198 751 219 764 q 165 717 176 739 q 153 673 153 696 q 169 642 153 650 z "},"‰":{"ha":994,"x_min":32,"x_max":971,"o":"m 503 853 q 585 855 543 856 q 672 854 626 854 l 296 164 q 288 151 292 157 q 282 139 285 146 q 237 56 254 85 q 196 13 219 26 q 136 -3 172 0 q 35 -6 100 -6 l 79 74 l 265 447 q 361 637 314 543 q 454 819 408 731 q 475 841 461 831 q 503 853 489 851 m 626 372 q 674 347 657 368 q 679 289 690 325 q 646 192 663 233 q 607 122 629 150 q 554 80 585 94 q 481 64 524 65 q 384 101 403 61 q 392 211 365 142 q 428 292 410 258 q 473 344 447 325 q 535 371 499 364 q 626 372 572 378 m 907 372 q 954 347 938 368 q 960 289 971 325 q 926 192 943 233 q 888 122 910 150 q 835 80 865 94 q 761 64 804 65 q 665 101 683 61 q 672 211 646 142 q 709 292 690 258 q 753 344 728 325 q 816 371 779 364 q 907 372 853 378 m 293 844 q 340 819 324 840 q 346 761 357 797 q 313 664 329 706 q 274 594 296 622 q 221 552 251 567 q 147 536 190 538 q 51 574 69 533 q 58 683 32 614 q 95 764 76 731 q 140 817 114 797 q 202 843 165 836 q 293 844 239 850 m 503 169 q 538 178 519 163 q 568 215 556 193 q 585 256 581 236 q 579 281 589 276 q 531 279 553 292 q 498 245 510 267 q 486 201 486 224 q 503 169 486 178 m 783 169 q 818 178 800 163 q 849 215 836 193 q 865 256 861 236 q 860 281 869 276 q 812 279 833 292 q 778 245 790 267 q 767 201 767 224 q 783 169 767 178 m 169 642 q 204 650 186 635 q 235 687 222 665 q 251 728 247 708 q 246 753 256 749 q 198 751 219 764 q 165 717 176 739 q 153 673 153 696 q 169 642 153 650 z "},"¢":{"ha":847,"x_min":39,"x_max":778,"o":"m 465 744 q 478 794 472 767 q 486 828 483 821 q 498 874 492 856 q 513 903 504 893 q 535 918 522 914 q 568 922 549 922 q 581 922 567 922 q 611 919 594 921 q 642 915 628 918 q 657 910 657 913 l 618 746 l 617 739 l 614 733 q 695 731 654 732 q 778 731 736 731 l 749 588 l 510 588 q 390 581 435 588 q 318 552 346 574 q 274 488 290 531 q 239 371 257 444 q 242 297 228 325 q 300 260 256 269 q 390 249 344 250 q 479 246 435 249 q 565 245 522 244 q 651 246 607 246 q 635 180 643 211 q 617 118 628 149 q 603 101 614 110 q 583 92 592 92 l 468 92 q 462 74 465 85 q 456 50 458 63 q 442 -17 447 10 q 428 -61 436 -44 q 407 -85 419 -78 q 374 -93 394 -93 q 355 -92 368 -93 q 328 -90 342 -92 q 303 -83 314 -87 q 293 -71 293 -78 l 321 61 l 321 58 l 326 94 q 265 97 294 96 q 204 101 235 99 q 124 126 158 106 q 70 177 90 146 q 44 248 50 208 q 50 333 39 288 q 63 388 57 361 q 75 443 68 415 q 178 642 106 565 q 381 728 250 718 q 420 731 400 729 q 461 732 440 732 l 465 744 l 465 744 z "},"£":{"ha":831,"x_min":22,"x_max":821,"o":"m 461 160 q 474 172 463 168 q 503 176 486 175 q 540 178 519 178 q 579 181 560 178 q 552 79 575 118 q 490 20 529 40 q 400 -3 451 0 q 289 7 349 -6 q 253 17 269 11 q 222 27 238 24 q 189 27 206 31 q 151 8 172 24 q 120 -2 142 0 q 76 -3 99 -4 q 38 1 54 -1 q 22 6 22 3 q 85 137 26 99 q 235 151 144 175 q 251 212 243 183 q 266 270 258 240 q 282 335 274 300 q 301 414 290 369 l 188 414 q 202 480 194 451 q 217 540 210 508 q 229 546 228 546 q 256 544 240 543 q 287 548 271 546 q 315 553 303 550 q 333 557 326 556 q 336 561 332 557 q 356 598 347 576 q 370 642 364 619 q 381 686 376 665 q 389 722 386 707 q 419 783 399 758 q 469 825 440 808 q 530 850 497 842 q 599 861 563 858 q 706 865 651 867 q 821 863 760 863 q 805 789 813 825 q 790 713 797 753 q 715 717 753 715 q 640 718 676 719 q 596 702 615 718 q 563 661 576 686 q 540 606 549 636 q 529 550 532 576 l 722 550 q 700 481 711 513 q 679 414 689 450 q 606 413 643 414 q 529 414 568 413 q 497 408 507 415 q 479 376 486 400 q 459 299 467 329 q 444 244 451 269 q 430 194 438 219 q 411 132 422 169 q 422 130 415 131 q 435 131 428 129 q 450 140 443 133 q 461 160 457 146 z "},"©":{"ha":1007,"x_min":65,"x_max":954,"o":"m 796 832 q 868 808 836 822 q 920 771 900 793 q 947 718 940 749 q 943 646 954 688 q 913 526 926 586 q 883 407 900 467 q 829 335 869 358 q 729 315 789 313 q 590 318 660 318 q 450 326 521 318 q 380 353 399 332 q 365 417 361 374 q 385 519 371 467 q 414 619 399 572 q 447 669 425 656 q 508 688 469 683 q 569 690 535 690 q 638 688 604 689 q 699 684 671 686 q 743 681 728 682 q 731 623 736 654 q 718 565 725 592 q 667 565 699 564 q 615 567 636 567 q 558 567 581 567 q 522 564 536 568 q 501 548 508 560 q 489 511 493 536 q 484 471 485 490 q 499 443 483 451 q 524 437 506 439 q 565 434 542 435 q 615 433 589 433 l 751 433 q 765 478 757 449 q 781 541 772 507 q 796 610 789 575 q 806 675 803 646 q 797 698 807 688 q 770 716 786 708 q 735 728 754 724 q 703 732 717 732 q 558 735 629 735 q 413 732 486 736 q 354 703 372 729 q 331 649 336 676 q 295 507 311 578 q 267 365 279 436 q 284 285 257 311 q 381 257 311 258 l 757 242 q 740 190 747 217 q 719 138 732 163 q 708 126 717 131 q 692 121 699 121 q 480 127 585 125 q 269 140 375 129 q 115 210 164 153 q 81 354 65 267 q 122 525 100 442 q 160 696 143 608 q 185 756 167 732 q 229 797 203 781 q 288 822 256 813 q 358 838 321 832 q 575 855 467 854 q 796 832 683 856 z "},"®":{"ha":688,"x_min":82,"x_max":643,"o":"m 103 429 q 89 440 96 429 q 82 457 82 450 q 103 538 92 494 q 125 623 114 581 q 145 703 136 665 q 160 765 154 740 q 178 824 168 801 q 215 846 188 846 q 255 847 238 846 q 301 850 272 849 q 375 850 329 851 q 499 844 421 849 q 606 822 568 840 q 642 760 643 803 q 640 719 642 747 q 626 657 638 690 q 579 595 613 617 q 497 563 546 574 l 518 535 l 572 457 l 571 457 q 577 448 576 451 q 578 442 578 444 q 561 428 578 428 l 483 428 q 442 432 464 428 q 414 451 419 436 l 349 538 q 313 550 331 550 l 243 547 q 231 516 238 536 q 219 476 225 496 q 208 443 214 457 q 196 429 201 429 l 103 429 m 501 718 q 487 731 501 726 q 449 738 472 736 q 400 741 426 740 q 350 740 374 742 q 309 738 326 739 q 289 735 292 736 q 283 717 288 731 q 275 688 279 703 q 269 663 271 674 q 269 656 267 653 l 271 653 l 358 653 q 398 654 374 653 q 445 662 422 656 q 485 681 468 668 q 501 718 501 694 z "},"ˆ":{"ha":525,"x_min":29,"x_max":501,"o":"m 213 918 l 307 918 q 322 919 314 918 q 340 919 329 919 l 369 919 q 391 894 376 911 q 424 855 406 876 q 462 808 442 833 q 501 760 482 783 q 452 756 478 760 q 401 751 426 753 q 355 751 376 750 q 319 764 333 753 q 310 773 315 765 q 300 790 306 781 q 290 808 294 799 q 282 822 285 817 q 253 787 268 803 q 226 764 238 771 q 183 750 207 751 q 133 751 158 749 q 81 758 107 754 q 29 763 54 763 q 127 848 78 804 q 213 918 176 892 z "},"¨":{"ha":436,"x_min":24,"x_max":413,"o":"m 24 751 q 38 822 28 796 q 67 859 47 847 q 122 871 88 871 q 213 863 157 871 q 199 809 206 836 q 185 754 192 782 q 165 752 174 753 q 144 751 156 751 l 24 751 m 224 751 q 238 822 228 796 q 267 859 247 847 q 322 871 288 871 q 413 863 357 871 q 399 809 406 836 q 385 754 392 782 q 365 752 374 753 q 344 751 356 751 l 224 751 z "},")":{"ha":590,"x_min":18,"x_max":494,"o":"m 18 -36 q 234 261 160 103 q 315 614 308 419 q 306 747 318 685 q 274 888 293 810 q 313 888 293 888 q 354 889 333 889 q 375 888 365 889 q 396 888 385 888 q 449 858 429 886 q 478 788 468 829 q 492 699 489 746 q 493 618 494 653 q 481 496 492 565 q 448 353 469 426 q 394 208 426 279 q 319 81 363 138 q 223 -10 276 25 q 104 -44 169 -44 q 18 -36 64 -44 z "},"]":{"ha":597,"x_min":-4,"x_max":575,"o":"m 201 -39 q 101 -39 151 -40 q -4 -37 51 -37 q 7 6 1 -17 q 20 49 13 29 q 40 83 28 69 q 75 96 53 96 q 171 103 136 99 q 226 126 206 108 q 260 178 247 143 q 290 279 272 214 q 340 463 317 371 q 388 649 364 554 q 393 682 393 665 q 371 729 394 714 q 289 751 347 744 l 335 893 q 381 894 358 893 q 425 894 403 894 q 491 891 463 894 q 538 877 519 888 q 566 847 557 867 q 574 796 575 828 q 556 668 572 733 q 522 540 539 603 q 474 360 499 450 q 421 181 449 269 q 392 101 410 140 q 349 31 375 63 q 288 -19 324 0 q 201 -39 251 -39 z "},"{":{"ha":556,"x_min":-7,"x_max":590,"o":"m 235 417 l 285 357 q 260 283 268 308 q 246 240 251 257 q 235 205 240 222 q 221 156 231 188 q 222 112 210 126 q 265 97 235 97 q 313 98 286 97 q 372 99 340 99 q 349 30 361 63 q 325 -35 336 -3 q 243 -47 289 -46 q 144 -49 197 -49 q 27 -10 57 -49 q 24 115 -3 28 l 97 340 q 70 340 86 340 q 38 339 54 339 q 10 340 22 339 q -4 343 -1 340 q -4 365 -7 346 q 4 408 -1 385 q 15 453 10 432 q 22 479 21 474 l 135 479 l 199 715 q 276 841 222 803 q 418 879 331 879 q 516 878 471 879 q 590 865 561 876 l 557 732 q 499 733 525 732 q 451 733 472 733 q 400 719 421 733 q 372 675 379 704 q 358 626 364 643 q 348 592 353 608 q 337 552 343 575 q 319 485 331 529 l 235 417 z "},"}":{"ha":619,"x_min":-12,"x_max":585,"o":"m 343 414 l 293 474 q 318 548 310 522 q 332 591 326 574 q 342 626 338 608 q 357 675 347 643 q 356 719 368 704 q 313 733 343 733 q 265 733 292 733 q 206 732 238 732 q 229 801 217 768 q 253 865 242 833 q 335 878 289 876 q 433 879 381 879 q 551 841 521 879 q 554 715 581 803 l 481 490 q 508 491 492 490 q 540 492 524 492 q 567 490 556 492 q 582 488 579 489 q 582 465 585 485 q 574 422 579 446 q 563 378 568 399 q 556 351 557 357 l 443 351 l 379 115 q 301 -10 356 28 q 160 -49 247 -49 q 62 -47 107 -49 q -12 -35 17 -46 l 21 99 q 79 98 53 99 q 126 97 106 97 q 206 156 190 97 q 219 204 214 188 q 230 238 225 221 q 241 278 235 254 q 258 346 247 301 l 343 414 z "},"\\":{"ha":672,"x_min":17,"x_max":654,"o":"m 186 853 q 214 841 200 851 q 235 819 228 831 q 328 637 281 731 q 422 447 375 543 l 610 74 l 654 -6 q 553 -3 589 -6 q 493 13 517 0 q 452 56 469 26 q 407 139 435 85 q 401 151 404 146 q 393 164 397 157 l 17 854 q 104 855 63 854 q 186 853 146 856 z "},"|":{"ha":251,"x_min":21,"x_max":232,"o":"m 79 876 q 153 913 115 896 q 232 950 190 931 q 208 553 219 757 q 185 164 196 350 q 183 150 183 157 l 183 136 q 177 42 181 75 q 158 -14 174 8 q 111 -54 143 -36 q 21 -100 79 -72 q 24 -53 24 -75 q 26 -10 25 -31 q 32 196 29 90 q 38 408 35 301 q 43 619 40 514 q 49 825 46 725 q 58 854 50 839 q 79 876 67 869 z "},"‡":{"ha":593,"x_min":18,"x_max":575,"o":"m 465 343 q 470 335 468 338 q 471 329 472 332 q 451 256 460 282 q 428 219 443 231 q 385 204 413 207 q 308 201 358 201 l 306 201 q 300 183 303 192 q 294 164 297 174 q 290 150 292 157 q 286 136 289 143 q 257 42 269 75 q 224 -14 244 8 q 169 -54 204 -36 q 69 -100 133 -72 q 85 -53 78 -75 q 97 -10 92 -31 l 151 200 q 91 201 122 200 q 22 201 60 201 q 19 213 21 208 q 19 219 18 217 q 44 299 38 274 q 62 334 50 325 q 99 342 74 343 q 178 343 124 342 l 189 343 q 222 465 206 404 q 253 586 238 525 q 194 587 225 586 q 125 588 163 588 q 122 599 124 594 q 122 606 121 603 q 147 685 140 660 q 165 720 153 711 q 201 728 176 729 q 281 729 226 728 l 290 729 l 317 825 q 333 854 321 839 q 360 876 344 869 q 442 913 400 896 q 531 950 483 931 l 463 729 l 568 729 q 573 721 571 724 q 574 715 575 718 q 554 644 563 669 q 531 606 546 618 q 491 590 517 593 q 419 588 465 588 q 383 465 400 525 q 347 343 365 404 l 465 343 l 465 343 z "},"†":{"ha":593,"x_min":69,"x_max":575,"o":"m 568 729 q 573 721 571 724 q 574 715 575 718 q 554 644 563 669 q 531 606 546 618 q 491 590 517 593 q 419 588 465 588 l 294 164 q 290 150 292 157 q 286 136 289 143 q 257 42 269 75 q 224 -14 244 8 q 169 -54 204 -36 q 69 -100 133 -72 q 85 -53 78 -75 q 97 -10 92 -31 l 253 586 q 194 587 225 586 q 125 588 163 588 q 122 599 124 594 q 122 606 121 603 q 147 685 140 660 q 165 720 153 711 q 201 728 176 729 q 281 729 226 728 l 290 729 l 317 825 q 333 854 321 839 q 360 876 344 869 q 442 913 400 896 q 531 950 483 931 l 463 729 l 568 729 l 568 729 z "},"+":{"ha":490,"x_min":18,"x_max":472,"o":"m 238 618 q 247 622 243 619 q 251 622 250 624 q 315 594 293 606 q 346 567 338 583 q 349 526 354 551 q 332 454 344 500 l 465 454 q 470 446 468 449 q 471 440 472 443 q 451 367 460 393 q 428 330 443 342 q 385 315 413 318 q 308 313 358 313 l 289 313 l 243 161 q 232 160 236 161 q 225 161 228 158 q 158 193 181 183 q 128 214 135 203 q 126 246 121 225 q 144 311 132 267 q 88 312 117 311 q 22 313 58 313 q 19 324 21 319 q 19 331 18 328 q 44 410 38 385 q 62 445 50 436 q 99 453 74 454 q 178 454 124 453 l 186 454 l 238 618 l 238 618 z "},"*":{"ha":533,"x_min":19,"x_max":514,"o":"m 396 860 q 408 854 408 853 q 431 806 422 825 q 441 773 439 788 q 440 747 443 758 q 425 724 436 736 q 465 724 444 724 q 510 726 486 725 q 514 715 514 718 q 489 656 499 678 q 465 622 479 633 q 429 606 451 610 q 368 600 407 601 l 408 486 l 397 475 q 326 463 353 467 q 283 463 300 458 q 257 485 267 468 q 235 533 247 501 l 114 419 q 108 424 111 422 q 104 429 106 426 q 79 494 86 471 q 76 531 72 517 q 94 558 81 546 q 133 592 108 571 q 81 591 108 592 q 21 589 53 590 q 19 604 19 596 q 49 671 40 649 q 69 703 58 693 q 101 713 81 713 q 165 715 121 714 l 129 822 q 138 828 135 825 q 144 831 142 831 q 225 844 199 839 q 265 845 251 850 q 284 822 278 840 q 306 765 290 804 q 347 810 325 788 q 396 860 368 832 z "},"à":{"ha":738,"x_min":-51,"x_max":706,"o":"m 129 639 q 258 640 194 639 q 388 642 322 642 q 505 641 447 642 q 607 628 563 640 q 678 588 651 615 q 706 506 706 560 q 697 443 706 476 l 583 4 l 407 4 l 413 65 q 290 10 353 24 q 164 -3 228 -3 q 72 2 113 -3 q 5 21 32 7 q -37 59 -22 35 q -51 124 -51 83 q -47 163 -51 142 q -10 277 -35 232 q 60 349 15 322 q 174 385 106 375 q 340 396 242 396 q 405 395 372 396 q 469 394 438 394 q 499 401 486 394 q 511 432 511 407 q 501 478 511 461 q 460 497 492 496 q 354 500 407 500 l 99 500 l 129 639 m 340 144 q 384 158 364 150 q 419 179 404 165 q 443 217 433 193 q 457 279 453 240 q 410 281 433 279 q 363 283 386 283 q 290 283 329 283 q 218 273 251 282 q 163 242 185 264 q 140 181 140 221 q 162 149 140 160 q 215 135 183 138 q 280 135 246 132 q 340 144 314 138 m 440 826 q 461 819 450 826 q 475 806 472 813 q 495 755 486 781 q 514 701 504 729 q 435 690 467 692 q 374 702 403 689 q 313 745 344 715 q 235 828 281 775 l 342 828 q 440 826 392 828 z "},"á":{"ha":738,"x_min":-51,"x_max":706,"o":"m 129 639 q 258 640 194 639 q 388 642 322 642 q 505 641 447 642 q 607 628 563 640 q 678 588 651 615 q 706 506 706 560 q 697 443 706 476 l 583 4 l 407 4 l 413 65 q 290 10 353 24 q 164 -3 228 -3 q 72 2 113 -3 q 5 21 32 7 q -37 59 -22 35 q -51 124 -51 83 q -47 163 -51 142 q -10 277 -35 232 q 60 349 15 322 q 174 385 106 375 q 340 396 242 396 q 405 395 372 396 q 469 394 438 394 q 499 401 486 394 q 511 432 511 407 q 501 478 511 461 q 460 497 492 496 q 354 500 407 500 l 99 500 l 129 639 m 340 144 q 384 158 364 150 q 419 179 404 165 q 443 217 433 193 q 457 279 453 240 q 410 281 433 279 q 363 283 386 283 q 290 283 329 283 q 218 273 251 282 q 163 242 185 264 q 140 181 140 221 q 162 149 140 160 q 215 135 183 138 q 280 135 246 132 q 340 144 314 138 m 415 828 q 514 829 464 829 l 621 829 q 543 747 575 776 q 482 703 511 717 q 421 692 453 690 q 342 703 389 693 q 360 756 351 731 q 381 807 369 782 q 394 821 383 814 q 415 828 406 828 z "},"â":{"ha":738,"x_min":-51,"x_max":706,"o":"m 129 639 q 258 640 194 639 q 388 642 322 642 q 505 641 447 642 q 607 628 563 640 q 678 588 651 615 q 706 506 706 560 q 697 443 706 476 l 583 4 l 407 4 l 413 65 q 290 10 353 24 q 164 -3 228 -3 q 72 2 113 -3 q 5 21 32 7 q -37 59 -22 35 q -51 124 -51 83 q -47 163 -51 142 q -10 277 -35 232 q 60 349 15 322 q 174 385 106 375 q 340 396 242 396 q 405 395 372 396 q 469 394 438 394 q 499 401 486 394 q 511 432 511 407 q 501 478 511 461 q 460 497 492 496 q 354 500 407 500 l 99 500 l 129 639 m 340 144 q 384 158 364 150 q 419 179 404 165 q 443 217 433 193 q 457 279 453 240 q 410 281 433 279 q 363 283 386 283 q 290 283 329 283 q 218 273 251 282 q 163 242 185 264 q 140 181 140 221 q 162 149 140 160 q 215 135 183 138 q 280 135 246 132 q 340 144 314 138 m 365 861 l 460 861 q 474 862 467 861 q 493 863 482 863 l 522 863 q 544 837 529 854 q 576 798 558 819 q 615 751 594 776 q 654 703 635 726 q 605 699 631 703 q 554 694 579 696 q 508 694 529 693 q 472 707 486 696 q 463 716 468 708 q 453 733 458 724 q 442 751 447 742 q 435 765 438 760 q 406 730 421 746 q 379 707 390 714 q 335 693 360 694 q 285 694 311 692 q 233 701 260 697 q 182 706 207 706 q 280 791 231 747 q 365 861 329 835 z "},"ã":{"ha":738,"x_min":-51,"x_max":706,"o":"m 129 639 q 258 640 194 639 q 388 642 322 642 q 505 641 447 642 q 607 628 563 640 q 678 588 651 615 q 706 506 706 560 q 697 443 706 476 l 583 4 l 407 4 l 413 65 q 290 10 353 24 q 164 -3 228 -3 q 72 2 113 -3 q 5 21 32 7 q -37 59 -22 35 q -51 124 -51 83 q -47 163 -51 142 q -10 277 -35 232 q 60 349 15 322 q 174 385 106 375 q 340 396 242 396 q 405 395 372 396 q 469 394 438 394 q 499 401 486 394 q 511 432 511 407 q 501 478 511 461 q 460 497 492 496 q 354 500 407 500 l 99 500 l 129 639 m 340 144 q 384 158 364 150 q 419 179 404 165 q 443 217 433 193 q 457 279 453 240 q 410 281 433 279 q 363 283 386 283 q 290 283 329 283 q 218 273 251 282 q 163 242 185 264 q 140 181 140 221 q 162 149 140 160 q 215 135 183 138 q 280 135 246 132 q 340 144 314 138 m 528 821 q 599 836 560 835 q 676 842 638 838 q 638 753 664 786 q 577 704 611 719 q 505 690 543 689 q 431 704 467 692 q 397 718 413 711 q 364 727 381 725 q 331 725 347 729 q 293 706 314 721 q 269 696 283 697 q 237 696 254 694 q 201 700 219 697 q 164 703 182 703 q 281 830 204 797 q 465 813 358 863 q 497 808 485 804 q 528 821 510 813 z "},"ä":{"ha":738,"x_min":-51,"x_max":706,"o":"m 129 639 q 258 640 194 639 q 388 642 322 642 q 505 641 447 642 q 607 628 563 640 q 678 588 651 615 q 706 506 706 560 q 697 443 706 476 l 583 4 l 407 4 l 413 65 q 290 10 353 24 q 164 -3 228 -3 q 72 2 113 -3 q 5 21 32 7 q -37 59 -22 35 q -51 124 -51 83 q -47 163 -51 142 q -10 277 -35 232 q 60 349 15 322 q 174 385 106 375 q 340 396 242 396 q 405 395 372 396 q 469 394 438 394 q 499 401 486 394 q 511 432 511 407 q 501 478 511 461 q 460 497 492 496 q 354 500 407 500 l 99 500 l 129 639 m 340 144 q 384 158 364 150 q 419 179 404 165 q 443 217 433 193 q 457 279 453 240 q 410 281 433 279 q 363 283 386 283 q 290 283 329 283 q 218 273 251 282 q 163 242 185 264 q 140 181 140 221 q 162 149 140 160 q 215 135 183 138 q 280 135 246 132 q 340 144 314 138 m 240 689 q 254 759 244 733 q 284 797 264 785 q 339 808 304 808 q 429 800 374 808 q 415 747 422 774 q 401 692 408 719 q 381 690 390 690 q 361 689 372 689 l 240 689 m 440 689 q 454 759 444 733 q 484 797 464 785 q 539 808 504 808 q 629 800 574 808 q 615 747 622 774 q 601 692 608 719 q 581 690 590 690 q 561 689 572 689 l 440 689 z "},"å":{"ha":738,"x_min":-51,"x_max":706,"o":"m 129 639 q 258 640 194 639 q 388 642 322 642 q 505 641 447 642 q 607 628 563 640 q 678 588 651 615 q 706 506 706 560 q 697 443 706 476 l 583 4 l 407 4 l 413 65 q 290 10 353 24 q 164 -3 228 -3 q 72 2 113 -3 q 5 21 32 7 q -37 59 -22 35 q -51 124 -51 83 q -47 163 -51 142 q -10 277 -35 232 q 60 349 15 322 q 174 385 106 375 q 340 396 242 396 q 405 395 372 396 q 469 394 438 394 q 499 401 486 394 q 511 432 511 407 q 501 478 511 461 q 460 497 492 496 q 354 500 407 500 l 99 500 l 129 639 m 340 144 q 384 158 364 150 q 419 179 404 165 q 443 217 433 193 q 457 279 453 240 q 410 281 433 279 q 363 283 386 283 q 290 283 329 283 q 218 273 251 282 q 163 242 185 264 q 140 181 140 221 q 162 149 140 160 q 215 135 183 138 q 280 135 246 132 q 340 144 314 138 m 313 769 q 333 838 313 810 q 386 882 354 865 q 455 902 418 899 q 524 897 492 906 q 576 864 556 888 q 597 803 597 840 q 557 717 597 744 q 446 690 517 690 q 395 694 419 690 q 353 708 371 699 q 324 733 335 718 q 313 769 313 749 m 501 796 q 488 814 501 800 q 458 846 474 828 q 432 808 443 822 q 417 779 421 794 q 421 772 417 776 q 431 763 425 768 q 444 753 438 757 q 453 750 450 750 q 466 756 458 750 q 481 768 474 761 q 493 783 488 775 l 501 796 z "},"æ":{"ha":1324,"x_min":-51,"x_max":1333,"o":"m 925 653 q 956 653 940 653 q 986 654 971 654 q 1124 648 1057 654 q 1238 618 1190 642 q 1310 546 1286 594 q 1319 414 1333 497 q 1299 318 1308 350 q 1267 273 1290 286 q 1197 260 1243 260 l 890 260 q 835 258 863 260 q 792 245 803 257 q 782 231 782 233 q 783 191 779 207 q 797 165 786 175 q 827 151 807 156 q 879 147 847 147 q 1053 147 967 147 q 1226 146 1139 146 q 1233 145 1229 146 q 1242 143 1236 144 q 1228 74 1235 107 q 1218 11 1222 40 q 1078 10 1147 11 q 939 10 1008 10 q 837 8 889 10 q 740 13 785 7 q 660 38 694 19 q 607 97 625 57 l 583 4 l 407 4 l 413 65 q 290 10 353 24 q 164 -3 228 -3 q 72 2 113 -3 q 5 21 32 7 q -37 59 -22 35 q -51 124 -51 83 q -47 163 -51 142 q -10 277 -35 232 q 60 349 15 322 q 174 385 106 375 q 340 396 242 396 q 405 395 372 396 q 469 394 438 394 q 499 401 486 394 q 511 432 511 407 q 501 478 511 461 q 460 497 492 496 q 354 500 407 500 l 99 500 l 129 639 q 258 640 194 639 q 388 642 322 642 q 492 641 442 642 q 585 632 543 640 q 658 605 628 624 q 700 549 689 586 q 790 624 736 599 q 925 653 843 650 m 340 144 q 384 158 364 150 q 419 179 404 165 q 443 217 433 193 q 457 279 453 240 q 410 281 433 279 q 363 283 386 283 q 290 283 329 283 q 218 273 251 282 q 163 242 185 264 q 140 181 140 221 q 162 149 140 160 q 215 135 183 138 q 280 135 246 132 q 340 144 314 138 m 1157 410 q 1161 434 1160 419 q 1160 464 1163 449 q 1144 492 1157 479 q 1101 508 1129 507 q 1038 510 1074 510 q 942 506 981 510 q 879 491 904 503 q 841 457 854 479 q 819 397 828 435 q 986 397 900 397 q 1156 399 1072 399 q 1157 410 1156 401 z "},"ç":{"ha":688,"x_min":-22,"x_max":717,"o":"m 319 639 q 517 644 418 647 q 717 642 615 642 l 688 499 l 449 499 q 329 492 374 499 q 257 463 285 485 q 213 399 229 442 q 178 282 196 356 q 181 208 167 236 q 239 171 194 181 q 328 160 283 161 q 418 157 374 160 q 503 156 461 156 q 590 157 546 157 q 574 91 582 122 q 556 29 567 60 q 542 12 553 21 q 522 3 531 3 q 332 4 426 4 q 143 13 238 4 q 63 37 97 17 q 9 88 29 57 q -17 159 -11 119 q -11 244 -22 199 q 1 299 -4 272 q 14 354 7 326 q 117 553 44 476 q 319 639 189 629 m 146 -178 q 187 -100 167 -129 q 235 -57 207 -71 q 305 -42 264 -43 q 410 -47 346 -40 q 394 -101 401 -75 q 375 -153 386 -128 q 358 -169 371 -162 q 335 -178 346 -176 q 241 -179 288 -181 q 146 -178 194 -178 z "},"è":{"ha":728,"x_min":-26,"x_max":715,"o":"m 307 653 q 338 653 322 653 q 368 654 353 654 q 506 648 439 654 q 620 618 572 642 q 692 546 668 594 q 701 414 715 497 q 681 318 690 350 q 649 273 672 286 q 579 260 625 260 l 272 260 q 217 258 244 260 q 174 245 185 257 q 164 231 164 233 q 165 191 161 207 q 178 165 168 175 q 209 151 189 156 q 261 147 229 147 q 435 147 349 147 q 608 146 521 146 q 615 145 611 146 q 624 143 618 144 q 610 74 617 107 q 600 11 604 40 q 460 10 529 11 q 321 10 390 10 q 202 8 263 10 q 92 19 142 7 q 11 65 43 32 q -25 165 -21 97 q -18 246 -26 200 q 22 422 0 347 q 81 548 44 497 q 171 624 117 599 q 307 653 225 650 m 539 399 q 540 410 538 400 q 543 434 542 419 q 542 464 544 449 q 526 492 539 479 q 483 508 511 507 q 419 510 456 510 q 324 506 363 510 q 261 491 286 503 q 223 457 236 479 q 201 397 210 435 q 369 398 282 397 q 539 399 456 399 m 393 829 q 414 822 403 829 q 428 808 425 815 q 448 758 439 783 q 467 704 457 732 q 388 693 419 694 q 326 705 356 692 q 265 748 297 718 q 188 831 233 778 l 294 831 q 393 829 344 831 z "},"é":{"ha":728,"x_min":-26,"x_max":715,"o":"m 307 653 q 338 653 322 653 q 368 654 353 654 q 506 648 439 654 q 620 618 572 642 q 692 546 668 594 q 701 414 715 497 q 681 318 690 350 q 649 273 672 286 q 579 260 625 260 l 272 260 q 217 258 244 260 q 174 245 185 257 q 164 231 164 233 q 165 191 161 207 q 178 165 168 175 q 209 151 189 156 q 261 147 229 147 q 435 147 349 147 q 608 146 521 146 q 615 145 611 146 q 624 143 618 144 q 610 74 617 107 q 600 11 604 40 q 460 10 529 11 q 321 10 390 10 q 202 8 263 10 q 92 19 142 7 q 11 65 43 32 q -25 165 -21 97 q -18 246 -26 200 q 22 422 0 347 q 81 548 44 497 q 171 624 117 599 q 307 653 225 650 m 539 399 q 540 410 538 400 q 543 434 542 419 q 542 464 544 449 q 526 492 539 479 q 483 508 511 507 q 419 510 456 510 q 324 506 363 510 q 261 491 286 503 q 223 457 236 479 q 201 397 210 435 q 369 398 282 397 q 539 399 456 399 m 369 826 q 468 828 418 828 l 575 828 q 497 745 529 775 q 436 702 465 715 q 375 690 407 689 q 296 701 343 692 q 315 755 306 729 q 335 806 324 781 q 349 819 338 813 q 369 826 360 826 z "},"ê":{"ha":728,"x_min":-26,"x_max":715,"o":"m 307 653 q 338 653 322 653 q 368 654 353 654 q 506 648 439 654 q 620 618 572 642 q 692 546 668 594 q 701 414 715 497 q 681 318 690 350 q 649 273 672 286 q 579 260 625 260 l 272 260 q 217 258 244 260 q 174 245 185 257 q 164 231 164 233 q 165 191 161 207 q 178 165 168 175 q 209 151 189 156 q 261 147 229 147 q 435 147 349 147 q 608 146 521 146 q 615 145 611 146 q 624 143 618 144 q 610 74 617 107 q 600 11 604 40 q 460 10 529 11 q 321 10 390 10 q 202 8 263 10 q 92 19 142 7 q 11 65 43 32 q -25 165 -21 97 q -18 246 -26 200 q 22 422 0 347 q 81 548 44 497 q 171 624 117 599 q 307 653 225 650 m 539 399 q 540 410 538 400 q 543 434 542 419 q 542 464 544 449 q 526 492 539 479 q 483 508 511 507 q 419 510 456 510 q 324 506 363 510 q 261 491 286 503 q 223 457 236 479 q 201 397 210 435 q 369 398 282 397 q 539 399 456 399 m 322 858 l 417 858 q 431 859 424 858 q 450 860 439 860 l 479 860 q 501 834 486 851 q 533 795 515 817 q 572 749 551 774 q 611 700 592 724 q 562 697 588 700 q 511 692 536 693 q 465 692 486 690 q 429 704 443 693 q 420 713 425 706 q 410 730 415 721 q 399 748 404 739 q 392 763 394 757 q 363 727 378 743 q 336 704 347 711 q 292 690 317 692 q 242 692 268 689 q 190 699 217 694 q 139 703 164 703 q 237 788 188 744 q 322 858 286 832 z "},"ë":{"ha":728,"x_min":-26,"x_max":715,"o":"m 307 653 q 338 653 322 653 q 368 654 353 654 q 506 648 439 654 q 620 618 572 642 q 692 546 668 594 q 701 414 715 497 q 681 318 690 350 q 649 273 672 286 q 579 260 625 260 l 272 260 q 217 258 244 260 q 174 245 185 257 q 164 231 164 233 q 165 191 161 207 q 178 165 168 175 q 209 151 189 156 q 261 147 229 147 q 435 147 349 147 q 608 146 521 146 q 615 145 611 146 q 624 143 618 144 q 610 74 617 107 q 600 11 604 40 q 460 10 529 11 q 321 10 390 10 q 202 8 263 10 q 92 19 142 7 q 11 65 43 32 q -25 165 -21 97 q -18 246 -26 200 q 22 422 0 347 q 81 548 44 497 q 171 624 117 599 q 307 653 225 650 m 539 399 q 540 410 538 400 q 543 434 542 419 q 542 464 544 449 q 526 492 539 479 q 483 508 511 507 q 419 510 456 510 q 324 506 363 510 q 261 491 286 503 q 223 457 236 479 q 201 397 210 435 q 369 398 282 397 q 539 399 456 399 m 221 692 q 235 762 225 736 q 265 799 244 788 q 319 811 285 811 q 410 803 354 811 q 396 749 403 776 q 382 694 389 722 q 362 692 371 693 q 342 692 353 692 l 221 692 m 421 692 q 435 762 425 736 q 465 799 444 788 q 519 811 485 811 q 610 803 554 811 q 596 749 603 776 q 582 694 589 722 q 562 692 571 693 q 542 692 553 692 l 421 692 z "},"ì":{"ha":271,"x_min":-76,"x_max":281,"o":"m 69 -1 q -1 1 33 1 q -76 0 -36 0 q 9 324 -32 165 q 92 643 50 483 l 272 643 q 240 504 256 572 q 206 367 224 436 q 162 203 183 283 q 121 40 140 124 q 104 6 115 15 q 69 -1 93 -3 m 207 829 q 228 822 217 829 q 242 808 239 815 q 262 758 253 783 q 281 704 271 732 q 201 693 233 694 q 140 705 169 692 q 79 748 111 718 q 1 831 47 778 l 108 831 q 207 829 158 831 z "},"í":{"ha":271,"x_min":-76,"x_max":406,"o":"m 69 -1 q -1 1 33 1 q -76 0 -36 0 q 9 324 -32 165 q 92 643 50 483 l 272 643 q 240 504 256 572 q 206 367 224 436 q 162 203 183 283 q 121 40 140 124 q 104 6 115 15 q 69 -1 93 -3 m 200 829 q 299 831 249 831 l 406 831 q 328 748 360 778 q 267 705 296 718 q 206 693 238 692 q 126 704 174 694 q 145 758 136 732 q 165 808 154 783 q 179 822 168 815 q 200 829 190 829 z "},"î":{"ha":271,"x_min":-76,"x_max":429,"o":"m 69 -1 q -1 1 33 1 q -76 0 -36 0 q 9 324 -32 165 q 92 643 50 483 l 272 643 q 240 504 256 572 q 206 367 224 436 q 162 203 183 283 q 121 40 140 124 q 104 6 115 15 q 69 -1 93 -3 m 140 863 l 235 863 q 249 863 242 863 q 268 864 257 864 l 297 864 q 319 838 304 856 q 351 799 333 821 q 390 753 369 778 q 429 704 410 728 q 380 701 406 704 q 329 696 354 697 q 283 696 304 694 q 247 708 261 697 q 238 717 243 710 q 228 734 233 725 q 217 752 222 743 q 210 767 213 761 q 181 731 196 747 q 154 708 165 715 q 110 694 135 696 q 60 696 86 693 q 8 703 35 699 q -43 707 -18 707 q 55 792 6 749 q 140 863 104 836 z "},"ï":{"ha":271,"x_min":-76,"x_max":406,"o":"m 69 -1 q -1 1 33 1 q -76 0 -36 0 q 9 324 -32 165 q 92 643 50 483 l 272 643 q 240 504 256 572 q 206 367 224 436 q 162 203 183 283 q 121 40 140 124 q 104 6 115 15 q 69 -1 93 -3 m 17 690 q 31 760 21 735 q 60 798 40 786 q 115 810 81 810 q 206 801 150 810 q 192 748 199 775 q 178 693 185 721 q 158 691 167 692 q 138 690 149 690 l 17 690 m 217 690 q 231 760 221 735 q 260 798 240 786 q 315 810 281 810 q 406 801 350 810 q 392 748 399 775 q 378 693 385 721 q 358 691 367 692 q 338 690 349 690 l 217 690 z "},"ñ":{"ha":738,"x_min":-74,"x_max":721,"o":"m 258 644 q 257 638 258 642 q 256 631 256 633 q 256 616 256 624 q 257 601 257 608 q 371 640 318 625 q 486 656 424 656 q 562 652 521 656 q 638 635 603 649 q 697 593 674 621 q 719 517 721 565 l 719 506 q 718 494 719 500 q 662 263 690 378 q 604 31 633 147 q 573 4 593 10 q 529 -1 553 -1 q 469 -1 497 -1 q 408 0 440 0 q 461 206 436 110 q 511 406 486 303 q 516 426 514 417 q 518 444 518 436 q 497 490 519 476 q 421 503 474 503 q 347 501 382 503 q 283 491 311 500 q 234 463 254 482 q 206 406 214 443 q 155 204 182 304 q 100 3 128 104 q 15 8 56 6 q -74 13 -25 10 q 8 328 -31 172 q 86 644 46 485 l 258 644 m 526 824 q 597 839 558 838 q 675 844 636 840 q 636 756 663 789 q 576 707 610 722 q 503 693 542 692 q 429 707 465 694 q 395 721 411 714 q 363 730 379 728 q 329 728 346 732 q 292 708 313 724 q 267 699 282 700 q 235 699 253 697 q 199 703 218 700 q 163 706 181 706 q 280 833 203 800 q 464 815 357 865 q 496 811 483 807 q 526 824 508 815 z "},"ò":{"ha":776,"x_min":-29,"x_max":758,"o":"m 589 639 q 722 597 685 633 q 750 485 758 560 q 738 413 746 453 q 718 330 729 372 q 695 245 707 288 q 672 167 683 203 q 621 74 654 108 q 542 23 588 40 q 444 1 497 6 q 331 -3 390 -3 q 209 1 269 -3 q 86 11 149 4 q 37 28 60 14 q -1 66 14 43 q -23 119 -17 89 q -22 182 -29 149 q 4 297 -11 240 q 38 411 19 354 q 85 510 54 467 q 158 583 115 553 q 253 628 201 613 q 364 646 306 644 q 424 645 392 646 q 486 643 456 644 q 544 641 517 642 q 589 639 571 640 m 551 414 q 538 483 554 461 q 472 508 522 504 q 351 506 396 508 q 278 488 306 503 q 233 439 250 472 q 197 344 215 406 q 179 287 186 315 q 171 235 172 258 q 202 154 167 176 q 329 132 238 132 q 426 151 388 132 q 488 208 464 171 q 526 297 513 244 q 551 414 540 349 m 444 826 q 465 819 454 826 q 479 806 476 813 q 499 755 490 781 q 518 701 508 729 q 439 690 471 692 q 378 702 407 689 q 317 745 349 715 q 239 828 285 775 l 346 828 q 444 826 396 828 z "},"ó":{"ha":776,"x_min":-29,"x_max":758,"o":"m 589 639 q 722 597 685 633 q 750 485 758 560 q 738 413 746 453 q 718 330 729 372 q 695 245 707 288 q 672 167 683 203 q 621 74 654 108 q 542 23 588 40 q 444 1 497 6 q 331 -3 390 -3 q 209 1 269 -3 q 86 11 149 4 q 37 28 60 14 q -1 66 14 43 q -23 119 -17 89 q -22 182 -29 149 q 4 297 -11 240 q 38 411 19 354 q 85 510 54 467 q 158 583 115 553 q 253 628 201 613 q 364 646 306 644 q 424 645 392 646 q 486 643 456 644 q 544 641 517 642 q 589 639 571 640 m 551 414 q 538 483 554 461 q 472 508 522 504 q 351 506 396 508 q 278 488 306 503 q 233 439 250 472 q 197 344 215 406 q 179 287 186 315 q 171 235 172 258 q 202 154 167 176 q 329 132 238 132 q 426 151 388 132 q 488 208 464 171 q 526 297 513 244 q 551 414 540 349 m 436 826 q 535 828 485 828 l 642 828 q 564 745 596 775 q 503 702 532 715 q 442 690 474 689 q 363 701 410 692 q 381 755 372 729 q 401 806 390 781 q 415 819 404 813 q 436 826 426 826 z "},"ô":{"ha":776,"x_min":-29,"x_max":758,"o":"m 589 639 q 722 597 685 633 q 750 485 758 560 q 738 413 746 453 q 718 330 729 372 q 695 245 707 288 q 672 167 683 203 q 621 74 654 108 q 542 23 588 40 q 444 1 497 6 q 331 -3 390 -3 q 209 1 269 -3 q 86 11 149 4 q 37 28 60 14 q -1 66 14 43 q -23 119 -17 89 q -22 182 -29 149 q 4 297 -11 240 q 38 411 19 354 q 85 510 54 467 q 158 583 115 553 q 253 628 201 613 q 364 646 306 644 q 424 645 392 646 q 486 643 456 644 q 544 641 517 642 q 589 639 571 640 m 551 414 q 538 483 554 461 q 472 508 522 504 q 351 506 396 508 q 278 488 306 503 q 233 439 250 472 q 197 344 215 406 q 179 287 186 315 q 171 235 172 258 q 202 154 167 176 q 329 132 238 132 q 426 151 388 132 q 488 208 464 171 q 526 297 513 244 q 551 414 540 349 m 378 858 l 472 858 q 487 859 479 858 q 506 860 494 860 l 535 860 q 556 834 542 851 q 589 795 571 817 q 627 749 607 774 q 667 700 647 724 q 617 697 643 700 q 567 692 592 693 q 520 692 542 690 q 485 704 499 693 q 476 713 481 706 q 465 730 471 721 q 455 748 460 739 q 447 763 450 757 q 418 727 433 743 q 392 704 403 711 q 348 690 372 692 q 298 692 324 689 q 246 699 272 694 q 194 703 219 703 q 292 788 243 744 q 378 858 342 832 z "},"õ":{"ha":776,"x_min":-29,"x_max":758,"o":"m 589 639 q 722 597 685 633 q 750 485 758 560 q 738 413 746 453 q 718 330 729 372 q 695 245 707 288 q 672 167 683 203 q 621 74 654 108 q 542 23 588 40 q 444 1 497 6 q 331 -3 390 -3 q 209 1 269 -3 q 86 11 149 4 q 37 28 60 14 q -1 66 14 43 q -23 119 -17 89 q -22 182 -29 149 q 4 297 -11 240 q 38 411 19 354 q 85 510 54 467 q 158 583 115 553 q 253 628 201 613 q 364 646 306 644 q 424 645 392 646 q 486 643 456 644 q 544 641 517 642 q 589 639 571 640 m 551 414 q 538 483 554 461 q 472 508 522 504 q 351 506 396 508 q 278 488 306 503 q 233 439 250 472 q 197 344 215 406 q 179 287 186 315 q 171 235 172 258 q 202 154 167 176 q 329 132 238 132 q 426 151 388 132 q 488 208 464 171 q 526 297 513 244 q 551 414 540 349 m 549 818 q 619 833 581 832 q 697 839 658 835 q 658 750 685 783 q 598 701 632 717 q 526 688 564 686 q 451 701 488 689 q 417 715 433 708 q 385 724 401 722 q 351 722 368 726 q 314 703 335 718 q 290 693 304 694 q 258 693 275 692 q 222 697 240 694 q 185 700 203 700 q 302 827 225 794 q 486 810 379 860 q 518 806 506 801 q 549 818 531 810 z "},"ö":{"ha":776,"x_min":-29,"x_max":758,"o":"m 589 639 q 722 597 685 633 q 750 485 758 560 q 738 413 746 453 q 718 330 729 372 q 695 245 707 288 q 672 167 683 203 q 621 74 654 108 q 542 23 588 40 q 444 1 497 6 q 331 -3 390 -3 q 209 1 269 -3 q 86 11 149 4 q 37 28 60 14 q -1 66 14 43 q -23 119 -17 89 q -22 182 -29 149 q 4 297 -11 240 q 38 411 19 354 q 85 510 54 467 q 158 583 115 553 q 253 628 201 613 q 364 646 306 644 q 424 645 392 646 q 486 643 456 644 q 544 641 517 642 q 589 639 571 640 m 551 414 q 538 483 554 461 q 472 508 522 504 q 351 506 396 508 q 278 488 306 503 q 233 439 250 472 q 197 344 215 406 q 179 287 186 315 q 171 235 172 258 q 202 154 167 176 q 329 132 238 132 q 426 151 388 132 q 488 208 464 171 q 526 297 513 244 q 551 414 540 349 m 251 689 q 265 759 256 733 q 295 797 275 785 q 350 808 315 808 q 440 800 385 808 q 426 747 433 774 q 413 692 419 719 q 392 690 401 690 q 372 689 383 689 l 251 689 m 451 689 q 465 759 456 733 q 495 797 475 785 q 550 808 515 808 q 640 800 585 808 q 626 747 633 774 q 613 692 619 719 q 592 690 601 690 q 572 689 583 689 l 451 689 z "},"ø":{"ha":776,"x_min":-29,"x_max":757,"o":"m 535 758 q 617 760 575 761 q 704 760 658 760 l 635 633 q 731 585 704 621 q 750 485 757 549 q 738 413 746 453 q 718 330 729 372 q 695 245 707 288 q 672 167 683 203 q 621 74 654 108 q 542 23 588 40 q 444 1 497 6 q 331 -3 390 -3 l 289 -3 q 253 -58 269 -39 q 215 -87 238 -78 q 158 -98 193 -96 q 67 -100 124 -100 l 111 -21 q 117 -7 114 -14 q 125 7 121 0 l 86 11 q 37 28 60 14 q -1 66 14 43 q -23 119 -17 89 q -22 182 -29 149 q 4 297 -11 240 q 38 411 19 354 q 85 510 54 467 q 158 583 115 553 q 253 628 201 613 q 364 646 306 644 l 403 646 q 444 644 424 646 l 486 725 q 507 747 493 736 q 535 758 521 757 m 375 507 q 304 497 332 504 q 258 473 276 490 q 226 425 239 456 q 197 344 213 394 q 179 287 186 315 q 171 235 172 258 q 199 156 167 179 l 375 507 m 551 414 q 544 468 551 450 l 363 133 q 442 161 410 139 q 494 219 474 183 q 528 304 515 256 q 551 414 540 353 z "},"÷":{"ha":308,"x_min":-72,"x_max":382,"o":"m 375 399 q 380 390 378 393 q 381 385 382 388 q 361 312 369 338 q 338 274 353 286 q 295 260 322 263 q 218 257 268 257 l -68 257 q -71 268 -69 264 q -71 275 -72 272 q -47 355 -53 329 q -28 390 -40 381 q 8 398 -17 399 q 88 399 33 397 l 375 399 m 35 86 q 49 156 39 131 q 78 194 58 182 q 133 206 99 206 q 224 197 168 206 q 210 144 217 171 q 196 89 203 117 q 176 87 185 88 q 156 86 167 86 l 35 86 m 82 447 q 96 517 86 492 q 126 555 106 543 q 181 567 146 567 q 271 558 215 567 q 257 505 264 532 q 243 450 250 478 q 223 448 232 449 q 203 447 214 447 l 82 447 z "},"ù":{"ha":718,"x_min":-35,"x_max":739,"o":"m 426 71 q 288 19 356 39 q 146 -1 221 -1 q 10 31 54 -1 q -33 135 -35 63 q -25 189 -32 160 q 29 414 1 303 q 86 639 57 525 l 269 639 q 221 455 243 544 q 174 274 199 365 q 161 213 165 244 q 169 177 160 189 q 196 160 179 165 q 235 156 213 156 l 281 156 q 340 160 311 156 q 394 176 369 164 q 436 208 418 188 q 463 264 454 229 q 508 451 482 360 q 561 639 535 543 l 739 639 q 673 397 704 515 q 608 157 642 279 q 584 76 593 107 q 563 28 575 46 q 531 6 550 11 q 479 0 513 0 q 451 1 468 0 q 414 3 433 1 l 426 71 m 401 826 q 422 819 411 826 q 436 806 433 813 q 456 755 447 781 q 475 701 465 729 q 396 690 428 692 q 335 702 364 689 q 274 745 306 715 q 196 828 242 775 l 303 828 q 401 826 353 828 z "},"ú":{"ha":718,"x_min":-35,"x_max":739,"o":"m 426 71 q 288 19 356 39 q 146 -1 221 -1 q 10 31 54 -1 q -33 135 -35 63 q -25 189 -32 160 q 29 414 1 303 q 86 639 57 525 l 269 639 q 221 455 243 544 q 174 274 199 365 q 161 213 165 244 q 169 177 160 189 q 196 160 179 165 q 235 156 213 156 l 281 156 q 340 160 311 156 q 394 176 369 164 q 436 208 418 188 q 463 264 454 229 q 508 451 482 360 q 561 639 535 543 l 739 639 q 673 397 704 515 q 608 157 642 279 q 584 76 593 107 q 563 28 575 46 q 531 6 550 11 q 479 0 513 0 q 451 1 468 0 q 414 3 433 1 l 426 71 m 392 829 q 490 831 440 831 l 597 831 q 519 748 551 778 q 458 705 488 718 q 397 693 429 692 q 318 704 365 694 q 337 758 328 732 q 357 808 346 783 q 371 822 360 815 q 392 829 382 829 z "},"û":{"ha":718,"x_min":-35,"x_max":739,"o":"m 426 71 q 288 19 356 39 q 146 -1 221 -1 q 10 31 54 -1 q -33 135 -35 63 q -25 189 -32 160 q 29 414 1 303 q 86 639 57 525 l 269 639 q 221 455 243 544 q 174 274 199 365 q 161 213 165 244 q 169 177 160 189 q 196 160 179 165 q 235 156 213 156 l 281 156 q 340 160 311 156 q 394 176 369 164 q 436 208 418 188 q 463 264 454 229 q 508 451 482 360 q 561 639 535 543 l 739 639 q 673 397 704 515 q 608 157 642 279 q 584 76 593 107 q 563 28 575 46 q 531 6 550 11 q 479 0 513 0 q 451 1 468 0 q 414 3 433 1 l 426 71 m 351 861 l 446 861 q 460 862 453 861 q 479 863 468 863 l 508 863 q 530 837 515 854 q 563 798 544 819 q 601 751 581 776 q 640 703 621 726 q 591 699 617 703 q 540 694 565 696 q 494 694 515 693 q 458 707 472 696 q 449 716 454 708 q 439 733 444 724 q 428 751 433 742 q 421 765 424 760 q 392 730 407 746 q 365 707 376 714 q 322 693 346 694 q 272 694 297 692 q 219 701 246 697 q 168 706 193 706 q 266 791 217 747 q 351 861 315 835 z "},"ü":{"ha":718,"x_min":-35,"x_max":739,"o":"m 426 71 q 288 19 356 39 q 146 -1 221 -1 q 10 31 54 -1 q -33 135 -35 63 q -25 189 -32 160 q 29 414 1 303 q 86 639 57 525 l 269 639 q 221 455 243 544 q 174 274 199 365 q 161 213 165 244 q 169 177 160 189 q 196 160 179 165 q 235 156 213 156 l 281 156 q 340 160 311 156 q 394 176 369 164 q 436 208 418 188 q 463 264 454 229 q 508 451 482 360 q 561 639 535 543 l 739 639 q 673 397 704 515 q 608 157 642 279 q 584 76 593 107 q 563 28 575 46 q 531 6 550 11 q 479 0 513 0 q 451 1 468 0 q 414 3 433 1 l 426 71 m 226 689 q 240 759 231 733 q 270 797 250 785 q 325 808 290 808 q 415 800 360 808 q 401 747 408 774 q 388 692 394 719 q 367 690 376 690 q 347 689 358 689 l 226 689 m 426 689 q 440 759 431 733 q 470 797 450 785 q 525 808 490 808 q 615 800 560 808 q 601 747 608 774 q 588 692 594 719 q 567 690 576 690 q 547 689 558 689 l 426 689 z "},"ý":{"ha":639,"x_min":-182,"x_max":664,"o":"m 174 -199 q 67 -198 114 -199 q -19 -196 21 -197 q -99 -194 -60 -194 q -182 -193 -137 -193 q -168 -136 -175 -167 q -149 -75 -161 -106 q -94 -59 -142 -62 q 15 -56 -47 -56 q 106 -56 61 -56 q 183 -57 151 -57 q 252 -53 226 -57 q 294 -37 278 -50 q 319 1 310 -24 q 340 71 329 26 q 236 58 296 65 q 126 51 176 51 q 26 85 61 51 q -7 183 -8 119 q 8 402 -4 294 q 35 624 19 510 l 217 624 q 190 424 203 524 q 175 225 176 325 q 231 174 174 174 q 328 195 283 174 q 390 269 374 217 q 437 426 413 349 q 482 583 461 504 q 500 617 489 607 q 535 628 511 628 l 543 628 q 561 626 553 626 l 582 626 q 622 627 601 626 q 664 628 642 628 q 597 375 628 499 q 531 126 565 251 q 491 -8 510 51 q 440 -110 472 -68 q 354 -174 408 -151 q 207 -196 300 -196 l 204 -196 q 188 -198 196 -197 q 174 -199 181 -199 m 331 826 q 429 828 379 828 l 536 828 q 458 745 490 775 q 397 702 426 715 q 336 690 368 689 q 257 701 304 692 q 276 755 267 729 q 296 806 285 781 q 310 819 299 813 q 331 826 321 826 z "},"ÿ":{"ha":639,"x_min":-182,"x_max":664,"o":"m 174 -199 q 67 -198 114 -199 q -19 -196 21 -197 q -99 -194 -60 -194 q -182 -193 -137 -193 q -168 -136 -175 -167 q -149 -75 -161 -106 q -94 -59 -142 -62 q 15 -56 -47 -56 q 106 -56 61 -56 q 183 -57 151 -57 q 252 -53 226 -57 q 294 -37 278 -50 q 319 1 310 -24 q 340 71 329 26 q 236 58 296 65 q 126 51 176 51 q 26 85 61 51 q -7 183 -8 119 q 8 402 -4 294 q 35 624 19 510 l 217 624 q 190 424 203 524 q 175 225 176 325 q 231 174 174 174 q 328 195 283 174 q 390 269 374 217 q 437 426 413 349 q 482 583 461 504 q 500 617 489 607 q 535 628 511 628 l 543 628 q 561 626 553 626 l 582 626 q 622 627 601 626 q 664 628 642 628 q 597 375 628 499 q 531 126 565 251 q 491 -8 510 51 q 440 -110 472 -68 q 354 -174 408 -151 q 207 -196 300 -196 l 204 -196 q 188 -198 196 -197 q 174 -199 181 -199 m 164 692 q 178 762 168 736 q 208 799 188 788 q 263 811 228 811 q 353 803 297 811 q 339 749 346 776 q 325 694 332 722 q 305 692 314 693 q 285 692 296 692 l 164 692 m 364 692 q 378 762 368 736 q 408 799 388 788 q 463 811 428 811 q 553 803 497 811 q 539 749 546 776 q 525 694 532 722 q 505 692 514 693 q 485 692 496 692 l 364 692 z "},"™":{"ha":1171,"x_min":147,"x_max":1060,"o":"m 542 258 q 526 251 539 253 q 494 249 514 249 q 450 253 474 250 l 403 258 q 433 398 417 317 q 475 581 449 479 l 475 579 q 509 631 486 618 q 593 643 532 643 l 656 643 q 697 628 683 643 q 714 592 711 614 q 722 507 717 550 q 731 421 728 464 l 746 450 q 767 483 750 460 l 765 483 l 800 546 l 828 597 l 829 596 q 865 631 840 617 q 919 644 889 646 l 1010 642 q 1045 631 1031 640 q 1060 603 1060 622 q 1058 592 1060 596 l 1057 579 q 1028 460 1049 536 q 985 260 1008 385 q 968 256 983 257 q 932 254 953 254 q 887 255 911 254 q 843 257 863 256 l 874 386 q 878 408 875 397 q 883 432 881 419 l 888 456 l 799 307 q 783 279 789 292 q 767 258 776 267 q 744 243 758 249 q 701 238 729 238 q 638 256 658 238 q 613 313 617 275 l 585 460 l 560 354 l 560 356 l 542 258 m 168 247 l 260 672 l 147 672 q 153 697 149 678 q 163 736 157 715 q 176 774 169 757 q 186 793 182 790 q 226 797 197 796 q 312 796 256 797 q 454 792 368 794 q 664 788 540 789 l 626 664 l 414 667 l 401 618 l 400 618 q 381 538 392 586 q 360 440 371 490 q 339 341 349 389 q 321 261 329 293 q 318 244 318 250 l 168 247 z "},"¤":{"ha":1106,"x_min":100,"x_max":1033,"o":"m 806 775 l 843 817 q 875 852 861 839 q 902 870 889 865 q 928 873 915 875 q 960 863 942 871 q 969 855 958 863 q 995 838 981 847 q 1022 820 1010 829 q 1032 807 1033 811 l 936 700 q 943 624 947 671 q 931 551 939 592 q 911 469 922 511 q 888 384 900 426 q 865 306 876 342 q 817 217 846 249 l 906 114 q 895 102 907 111 q 869 84 883 93 q 842 68 854 75 q 832 61 831 61 q 801 51 814 53 q 774 53 788 49 q 747 72 761 58 q 715 108 733 86 q 701 122 711 111 q 681 147 692 133 q 605 138 644 140 q 524 136 565 136 q 326 144 426 136 l 292 106 q 233 51 256 61 q 175 58 210 40 q 165 65 176 58 q 138 81 153 72 q 112 99 124 90 q 101 111 100 108 l 188 211 q 169 261 174 233 q 171 321 164 289 q 197 436 182 379 q 231 550 213 493 q 319 694 256 636 l 219 807 q 230 820 218 811 q 256 838 242 829 q 282 855 271 847 q 292 863 293 863 q 349 870 326 881 q 408 817 372 860 l 451 768 q 557 785 501 783 q 617 784 585 785 q 679 782 649 783 q 737 780 710 781 q 782 778 764 779 l 806 775 m 744 553 q 731 622 747 600 q 665 647 715 643 q 544 644 589 647 q 471 626 499 642 q 426 578 443 611 q 390 483 408 544 q 372 426 379 454 q 364 374 365 397 q 395 293 360 315 q 522 271 431 271 q 619 290 581 271 q 681 347 657 310 q 719 435 706 383 q 744 553 733 488 z "},"#":{"ha":1118,"x_min":144,"x_max":999,"o":"m 221 668 q 238 684 226 678 q 263 692 250 690 l 376 689 l 414 828 q 428 847 417 839 q 451 856 440 854 q 524 858 488 858 q 603 857 561 857 q 575 772 589 815 q 547 685 561 729 l 699 681 q 718 755 708 718 q 739 828 728 792 q 752 847 742 839 q 774 856 763 854 q 847 858 810 858 q 924 857 883 857 l 867 676 q 892 675 879 675 l 957 675 q 999 676 976 675 q 980 603 983 629 q 967 566 976 578 q 935 553 958 554 q 857 553 911 551 l 843 553 q 831 551 838 553 l 828 551 l 804 471 q 855 469 829 471 q 907 468 881 468 l 946 468 q 989 469 967 468 q 967 403 976 428 q 943 365 957 378 q 907 348 929 351 q 846 344 885 344 q 806 344 826 344 q 765 343 785 343 l 747 283 q 742 263 742 274 q 719 194 729 218 q 692 159 710 171 q 642 145 674 147 q 553 143 611 143 q 565 177 560 161 q 574 208 569 193 q 591 274 582 240 q 608 342 600 307 l 440 339 q 431 311 435 325 l 422 283 q 418 263 415 272 q 397 194 406 218 q 369 159 388 171 q 319 145 351 147 q 229 143 288 143 q 251 208 243 176 l 283 338 q 213 337 247 338 q 144 336 179 336 q 163 401 154 369 q 182 460 171 432 q 199 476 185 471 q 224 483 213 482 q 272 482 249 482 l 322 482 l 339 544 l 183 544 q 201 608 193 576 q 221 668 210 640 m 483 478 l 643 475 q 653 512 649 494 q 663 549 658 529 q 583 548 622 549 q 504 547 544 547 l 483 478 z "},"§":{"ha":915,"x_min":19,"x_max":896,"o":"m 342 96 q 384 99 356 96 q 441 109 413 101 q 491 129 469 117 q 513 161 513 142 q 501 196 513 178 q 444 217 489 214 q 330 224 386 221 q 217 239 274 226 q 136 281 157 251 q 115 371 115 310 q 151 499 115 443 q 249 582 186 556 q 246 604 246 593 l 246 631 q 261 717 246 676 q 304 788 276 758 q 371 837 332 818 q 457 858 410 856 q 640 863 549 863 q 766 862 703 863 q 896 861 829 861 q 881 794 889 826 q 865 725 872 761 l 540 725 q 508 723 525 725 q 478 715 492 721 q 454 698 464 710 q 444 668 444 686 q 467 630 444 638 q 531 620 489 622 q 631 614 572 618 q 763 586 690 610 q 811 546 797 575 q 825 471 825 517 q 791 329 825 388 q 692 242 757 271 q 694 227 693 235 q 694 211 694 219 q 633 31 694 96 q 456 -42 571 -35 q 368 -46 411 -44 q 281 -47 325 -47 q 152 -46 217 -47 q 19 -44 88 -44 q 35 37 28 0 q 50 114 42 74 q 195 102 124 108 q 342 96 267 96 m 472 356 q 527 358 497 356 q 583 369 557 361 q 626 389 608 376 q 643 421 643 401 q 642 435 643 425 q 619 453 640 444 q 551 465 599 461 q 410 465 503 469 q 378 463 394 465 q 347 455 361 461 q 324 438 333 449 q 314 408 314 426 q 332 376 314 388 q 375 360 350 365 q 426 356 400 356 l 472 356 z "},"œ":{"ha":1371,"x_min":-29,"x_max":1365,"o":"m 589 639 q 694 615 657 635 q 744 557 732 594 q 831 620 781 599 q 957 644 882 642 q 988 645 972 644 q 1018 646 1003 646 q 1156 640 1089 646 q 1270 610 1222 633 q 1342 538 1318 586 q 1351 406 1365 489 q 1331 310 1340 342 q 1299 265 1322 278 q 1229 251 1275 251 l 922 251 q 867 250 894 251 q 824 237 835 249 q 814 222 814 225 q 815 183 811 199 q 828 157 818 167 q 859 143 839 147 q 911 139 879 139 q 1085 138 999 139 q 1258 138 1171 138 q 1265 137 1261 138 q 1274 135 1268 136 q 1260 65 1267 99 q 1250 3 1254 32 q 1110 2 1179 3 q 971 1 1040 1 q 867 0 919 1 q 769 6 815 -1 q 689 33 724 13 q 638 94 654 53 q 581 42 614 61 q 509 13 549 22 q 424 0 469 3 q 331 -3 379 -3 q 209 1 269 -3 q 86 11 149 4 q 37 28 60 14 q -1 66 14 43 q -23 119 -17 89 q -22 182 -29 149 q 4 297 -11 240 q 38 411 19 354 q 85 510 54 467 q 158 583 115 553 q 253 628 201 613 q 364 646 306 644 q 424 645 392 646 q 486 643 456 644 q 544 641 517 642 q 589 639 571 640 m 551 414 q 538 483 554 461 q 472 508 522 504 q 351 506 396 508 q 278 488 306 503 q 233 439 250 472 q 197 344 215 406 q 179 287 186 315 q 171 235 172 258 q 202 154 167 176 q 329 132 238 132 q 426 151 388 132 q 488 208 464 171 q 526 297 513 244 q 551 414 540 349 m 1189 390 q 1190 401 1188 392 q 1193 426 1192 411 q 1192 456 1194 440 q 1176 483 1189 471 q 1133 500 1161 499 q 1069 501 1106 501 q 974 498 1013 501 q 911 483 936 494 q 873 449 886 471 q 851 389 860 426 q 1019 390 932 389 q 1189 390 1106 390 z "},"¶":{"ha":779,"x_min":21,"x_max":760,"o":"m 300 -25 l 314 47 q 332 119 321 83 l 401 369 q 451 540 426 456 q 499 711 475 625 q 450 712 475 711 q 401 713 425 713 q 301 328 353 524 q 204 -49 250 133 l 21 -49 l 28 -25 l 42 47 q 60 119 49 83 l 129 369 l 150 443 q 72 501 92 454 q 69 611 51 549 q 99 701 83 661 q 140 772 115 742 q 197 822 164 803 q 279 849 231 842 q 294 851 285 850 q 322 852 303 851 q 376 853 342 853 q 465 854 410 854 l 753 854 q 758 846 756 849 q 758 840 760 843 q 743 781 750 804 q 728 744 736 758 q 708 724 719 731 q 675 715 696 718 l 476 -49 l 293 -49 l 300 -25 z "},"Á":{"ha":1035,"x_min":-3,"x_max":956,"o":"m 221 11 q 151 1 196 1 l -3 1 l 74 126 q 228 386 153 253 q 383 649 304 519 q 453 758 426 718 q 499 819 481 799 q 533 844 518 839 q 565 850 547 850 l 725 850 q 807 826 782 847 q 840 750 832 806 q 869 565 854 656 q 897 384 883 475 q 926 199 911 293 q 956 1 940 104 l 740 4 q 734 79 735 40 q 728 150 733 118 q 710 202 724 182 q 667 222 697 222 q 653 221 657 222 q 569 225 636 225 q 386 221 503 225 q 348 199 368 221 q 310 150 328 178 q 263 69 293 122 q 221 11 233 15 m 706 365 q 663 634 678 540 q 644 728 649 728 q 637 724 640 728 q 626 711 633 721 q 608 683 619 701 q 579 638 597 665 l 421 367 l 706 365 m 656 1024 q 754 1025 704 1025 l 861 1025 q 783 942 815 972 q 722 899 751 913 q 661 888 693 886 q 582 899 629 889 q 601 952 592 926 q 621 1003 610 978 q 635 1017 624 1010 q 656 1024 646 1024 z "},"À":{"ha":1035,"x_min":-3,"x_max":956,"o":"m 221 11 q 151 1 196 1 l -3 1 l 74 126 q 228 386 153 253 q 383 649 304 519 q 453 758 426 718 q 499 819 481 799 q 533 844 518 839 q 565 850 547 850 l 725 850 q 807 826 782 847 q 840 750 832 806 q 869 565 854 656 q 897 384 883 475 q 926 199 911 293 q 956 1 940 104 l 740 4 q 734 79 735 40 q 728 150 733 118 q 710 202 724 182 q 667 222 697 222 q 653 221 657 222 q 569 225 636 225 q 386 221 503 225 q 348 199 368 221 q 310 150 328 178 q 263 69 293 122 q 221 11 233 15 m 706 365 q 663 634 678 540 q 644 728 649 728 q 637 724 640 728 q 626 711 633 721 q 608 683 619 701 q 579 638 597 665 l 421 367 l 706 365 m 661 1022 q 682 1015 671 1022 q 696 1001 693 1008 q 716 951 707 976 q 735 897 725 925 q 656 886 688 888 q 594 898 624 885 q 533 941 565 911 q 456 1024 501 971 l 563 1024 q 661 1022 613 1024 z "},"¿":{"ha":738,"x_min":36,"x_max":667,"o":"m 182 26 q 72 82 107 39 q 36 192 36 125 q 64 328 36 274 q 135 417 92 382 q 231 471 179 451 q 332 503 283 490 q 387 531 368 513 q 410 588 406 549 q 428 624 413 613 q 465 636 443 636 q 492 635 476 635 l 621 635 l 611 592 q 595 515 603 553 q 574 438 588 476 q 553 415 569 424 q 517 399 538 406 q 473 387 496 392 q 431 376 450 382 q 367 360 401 368 q 304 337 333 353 q 256 292 275 321 q 238 215 238 264 q 248 182 238 195 q 274 163 258 170 q 308 155 289 157 q 344 153 326 153 l 607 153 l 596 108 q 587 74 592 93 q 574 39 582 56 q 558 11 567 22 q 539 0 550 0 q 361 6 454 0 q 182 26 268 11 m 667 869 q 640 776 660 803 q 567 750 621 750 q 478 758 532 750 q 492 812 485 785 q 506 867 499 839 q 585 871 546 871 q 625 870 604 871 q 667 869 646 869 z "},"¡":{"ha":426,"x_min":22,"x_max":406,"o":"m 221 635 q 290 633 256 632 q 365 633 325 633 l 203 1 l 22 1 l 86 267 q 128 430 107 350 q 168 593 149 510 q 185 627 174 618 q 221 635 197 636 m 406 869 q 392 799 401 825 q 362 762 382 774 q 307 750 342 750 q 217 758 272 750 q 231 812 224 785 q 244 867 238 839 q 265 869 256 868 q 285 869 274 869 l 406 869 z "},"Â":{"ha":1035,"x_min":-3,"x_max":956,"o":"m 221 10 q 151 0 193 0 q 79 3 125 0 q -3 6 33 6 q 24 51 13 32 q 50 90 36 69 l 74 126 q 228 387 153 253 q 383 649 304 521 q 453 758 426 718 q 499 819 481 799 q 533 844 518 839 q 565 850 547 850 l 725 850 q 806 826 782 847 q 840 750 831 806 q 869 565 854 656 q 898 384 883 475 q 926 199 913 293 q 956 3 940 104 l 740 6 q 734 81 735 46 q 728 144 733 117 q 706 187 722 171 q 653 204 689 203 q 585 201 618 201 l 517 201 q 487 202 499 201 q 465 203 475 203 q 443 203 454 203 q 414 204 432 204 q 351 189 376 204 q 307 142 326 174 l 301 132 l 301 133 q 285 103 294 122 q 266 65 276 85 q 244 30 256 46 q 221 10 233 14 m 713 367 q 667 634 685 540 q 644 728 649 728 q 638 724 642 728 q 626 711 633 721 q 608 683 619 701 q 579 638 597 665 l 407 367 l 713 367 m 607 1053 l 701 1053 q 716 1053 708 1053 q 735 1054 724 1054 l 764 1054 q 785 1028 771 1046 q 818 990 800 1011 q 856 943 836 968 q 896 894 876 918 q 847 891 872 894 q 796 886 821 888 q 749 886 771 885 q 714 899 728 888 q 705 908 710 900 q 694 924 700 915 q 684 942 689 933 q 676 957 679 951 q 647 922 663 938 q 621 899 632 906 q 577 885 601 886 q 527 886 553 883 q 475 893 501 889 q 424 897 449 897 q 522 983 472 939 q 607 1053 571 1026 z "},"Ã":{"ha":1035,"x_min":-3,"x_max":956,"o":"m 221 11 q 151 1 196 1 l -3 1 l 74 126 q 228 386 153 253 q 383 649 304 519 q 453 758 426 718 q 499 819 481 799 q 533 844 518 839 q 565 850 547 850 l 725 850 q 807 826 782 847 q 840 750 832 806 q 869 565 854 656 q 897 384 883 475 q 926 199 911 293 q 956 1 940 104 l 740 4 q 734 79 735 40 q 728 150 733 118 q 710 202 724 182 q 667 222 697 222 q 653 221 657 222 q 569 225 636 225 q 386 221 503 225 q 348 199 368 221 q 310 150 328 178 q 263 69 293 122 q 221 11 233 15 m 706 365 q 663 634 678 540 q 644 728 649 728 q 637 724 640 728 q 626 711 633 721 q 608 683 619 701 q 579 638 597 665 l 421 367 l 706 365 m 786 1013 q 857 1028 818 1026 q 935 1033 896 1029 q 896 944 922 978 q 835 896 869 911 q 763 882 801 881 q 689 896 725 883 q 655 910 671 903 q 622 919 639 917 q 589 917 606 921 q 551 897 572 913 q 527 888 542 889 q 495 888 513 886 q 459 892 478 889 q 422 894 440 894 q 540 1022 463 989 q 724 1004 617 1054 q 756 1000 743 996 q 786 1013 768 1004 z "},"Ä":{"ha":1035,"x_min":-3,"x_max":956,"o":"m 221 11 q 151 1 196 1 l -3 1 l 74 126 q 228 386 153 253 q 383 649 304 519 q 453 758 426 718 q 499 819 481 799 q 533 844 518 839 q 565 850 547 850 l 725 850 q 807 826 782 847 q 840 750 832 806 q 869 565 854 656 q 897 384 883 475 q 926 199 911 293 q 956 1 940 104 l 740 4 q 734 79 735 40 q 728 150 733 118 q 710 202 724 182 q 667 222 697 222 q 653 221 657 222 q 569 225 636 225 q 386 221 503 225 q 348 199 368 221 q 310 150 328 178 q 263 69 293 122 q 221 11 233 15 m 706 365 q 663 634 678 540 q 644 728 649 728 q 637 724 640 728 q 626 711 633 721 q 608 683 619 701 q 579 638 597 665 l 421 367 l 706 365 m 468 886 q 482 956 472 931 q 512 994 492 982 q 567 1006 532 1006 q 657 997 601 1006 q 643 944 650 971 q 629 889 636 917 q 609 887 618 888 q 589 886 600 886 l 468 886 m 668 886 q 682 956 672 931 q 712 994 692 982 q 767 1006 732 1006 q 857 997 801 1006 q 843 944 850 971 q 829 889 836 917 q 809 887 818 888 q 789 886 800 886 l 668 886 z "},"Æ":{"ha":1925,"x_min":-3,"x_max":1843,"o":"m 221 11 q 151 1 196 1 l -3 1 l 74 126 q 228 386 153 253 q 383 649 304 519 q 453 758 426 718 q 499 819 481 799 q 533 844 518 839 q 565 850 547 850 l 725 850 q 807 826 782 847 q 840 750 832 806 q 869 565 854 656 q 897 384 883 475 q 926 199 911 293 q 956 1 940 104 l 740 4 q 734 79 735 40 q 728 150 733 118 q 710 202 724 182 q 667 222 697 222 q 653 221 657 222 q 569 225 636 225 q 386 221 503 225 q 348 199 368 221 q 310 150 328 178 q 263 69 293 122 q 221 11 233 15 m 706 365 q 663 634 678 540 q 644 728 649 728 q 637 724 640 728 q 626 711 633 721 q 608 683 619 701 q 579 638 597 665 l 421 367 l 706 365 m 854 3 q 901 169 878 89 q 947 335 924 249 l 1072 778 l 1072 776 q 1086 818 1081 803 q 1101 840 1092 833 q 1125 847 1110 846 q 1168 849 1140 849 l 1483 849 q 1641 849 1563 849 q 1799 850 1719 850 l 1843 850 l 1817 753 q 1810 729 1814 742 l 1801 704 l 1231 704 q 1204 615 1217 661 q 1181 526 1192 569 l 1176 499 l 1713 499 q 1692 424 1701 456 q 1671 353 1682 393 l 1247 353 q 1201 354 1225 353 q 1147 343 1165 356 q 1122 293 1129 331 q 1118 276 1121 285 q 1111 252 1115 267 q 1100 216 1107 238 q 1082 161 1093 194 l 1631 161 q 1606 83 1617 119 q 1582 10 1596 46 q 1574 5 1581 7 q 1564 3 1568 3 l 854 3 z "},"Å":{"ha":1035,"x_min":-3,"x_max":956,"o":"m 221 11 q 151 1 196 1 l -3 1 l 74 126 q 228 386 153 253 q 383 649 304 519 q 453 758 426 718 q 499 819 481 799 q 533 844 518 839 q 565 850 547 850 l 725 850 q 807 826 782 847 q 840 750 832 806 q 869 565 854 656 q 897 384 883 475 q 926 199 911 293 q 956 1 940 104 l 740 4 q 734 79 735 40 q 728 150 733 118 q 710 202 724 182 q 667 222 697 222 q 653 221 657 222 q 569 225 636 225 q 386 221 503 225 q 348 199 368 221 q 310 150 328 178 q 263 69 293 122 q 221 11 233 15 m 706 365 q 663 634 678 540 q 644 728 649 728 q 637 724 640 728 q 626 711 633 721 q 608 683 619 701 q 579 638 597 665 l 421 367 l 706 365 m 535 964 q 556 1032 535 1004 q 608 1076 576 1060 q 677 1097 640 1093 q 746 1091 714 1100 q 799 1058 778 1082 q 819 997 819 1035 q 779 912 819 939 q 668 885 739 885 q 617 889 642 885 q 575 903 593 893 q 546 928 557 913 q 535 964 535 943 m 724 990 q 710 1008 724 994 q 681 1040 696 1022 q 654 1003 665 1017 q 639 974 643 989 q 643 967 639 971 q 653 957 647 963 q 666 948 660 951 q 675 944 672 944 q 688 950 681 944 q 703 963 696 956 q 715 978 710 969 l 724 990 z "},"È":{"ha":890,"x_min":7,"x_max":996,"o":"m 7 3 q 53 169 31 89 q 100 335 76 249 l 225 778 l 225 776 q 239 818 233 803 q 253 840 244 833 q 278 847 263 846 q 321 849 293 849 l 636 849 q 794 849 715 849 q 951 850 872 850 l 996 850 l 969 753 q 963 729 967 742 l 954 704 l 383 704 q 357 615 369 661 q 333 526 344 569 l 329 499 l 865 499 q 844 424 854 456 q 824 353 835 393 l 400 353 q 354 354 378 353 q 300 343 318 356 q 275 293 282 331 q 271 276 274 285 q 264 252 268 267 q 253 216 260 238 q 235 161 246 194 l 783 161 q 759 83 769 119 q 735 10 749 46 q 727 5 733 7 q 717 3 721 3 l 7 3 m 603 1024 q 624 1017 613 1024 q 638 1003 635 1010 q 658 952 649 978 q 676 899 667 926 q 597 888 629 889 q 536 899 565 886 q 475 942 507 913 q 397 1025 443 972 l 504 1025 q 603 1024 554 1025 z "},"Ç":{"ha":844,"x_min":0,"x_max":928,"o":"m 194 -3 q 117 13 153 -3 q 56 54 82 28 q 15 115 31 81 q 0 189 0 150 q 4 232 0 208 q 44 408 21 324 q 97 597 68 493 q 203 765 126 700 q 393 833 281 829 q 617 848 506 844 q 843 851 729 851 l 913 851 q 928 854 921 851 l 928 846 l 926 847 q 916 796 919 822 q 904 750 913 769 q 878 717 896 731 q 828 703 861 703 q 655 702 807 703 q 424 692 503 701 q 328 649 365 686 q 274 558 290 611 q 238 433 254 496 q 206 306 221 369 q 201 267 201 285 q 217 211 201 232 q 263 178 232 190 q 337 163 293 167 q 438 160 381 160 l 740 158 l 704 -1 l 497 -1 q 390 -3 444 -3 l 194 -3 m 249 -178 q 290 -100 269 -129 q 338 -57 310 -71 q 408 -42 367 -43 q 513 -47 449 -40 q 497 -101 504 -75 q 478 -153 489 -128 q 461 -169 474 -162 q 438 -178 449 -176 q 344 -179 390 -181 q 249 -178 297 -178 z "},"Ê":{"ha":890,"x_min":7,"x_max":996,"o":"m 7 3 q 53 169 31 89 q 100 335 76 249 l 225 778 l 225 776 q 239 818 233 803 q 253 840 244 833 q 278 847 263 846 q 321 849 293 849 l 636 849 q 794 849 715 849 q 951 850 872 850 l 996 850 l 969 753 q 963 729 967 742 l 954 704 l 383 704 q 357 615 369 661 q 333 526 344 569 l 329 499 l 865 499 q 844 424 854 456 q 824 353 835 393 l 400 353 q 354 354 378 353 q 300 343 318 356 q 275 293 282 331 q 271 276 274 285 q 264 252 268 267 q 253 216 260 238 q 235 161 246 194 l 783 161 q 759 83 769 119 q 735 10 749 46 q 727 5 733 7 q 717 3 721 3 l 7 3 m 558 1054 l 653 1054 q 667 1055 660 1054 q 686 1056 675 1056 l 715 1056 q 737 1030 722 1047 q 769 991 751 1013 q 808 944 788 969 q 847 896 828 919 q 798 892 824 896 q 747 888 772 889 q 701 888 722 886 q 665 900 679 889 q 656 909 661 901 q 646 926 651 917 q 635 944 640 935 q 628 958 631 953 q 599 923 614 939 q 572 900 583 907 q 528 886 553 888 q 478 888 504 885 q 426 894 453 890 q 375 899 400 899 q 473 984 424 940 q 558 1054 522 1028 z "},"É":{"ha":890,"x_min":7,"x_max":996,"o":"m 7 3 q 53 169 31 89 q 100 335 76 249 l 225 778 l 225 776 q 239 818 233 803 q 253 840 244 833 q 278 847 263 846 q 321 849 293 849 l 636 849 q 794 849 715 849 q 951 850 872 850 l 996 850 l 969 753 q 963 729 967 742 l 954 704 l 383 704 q 357 615 369 661 q 333 526 344 569 l 329 499 l 865 499 q 844 424 854 456 q 824 353 835 393 l 400 353 q 354 354 378 353 q 300 343 318 356 q 275 293 282 331 q 271 276 274 285 q 264 252 268 267 q 253 216 260 238 q 235 161 246 194 l 783 161 q 759 83 769 119 q 735 10 749 46 q 727 5 733 7 q 717 3 721 3 l 7 3 m 611 1019 q 710 1021 660 1021 l 817 1021 q 739 938 771 968 q 678 895 707 908 q 617 883 649 882 q 538 894 585 885 q 556 948 547 922 q 576 999 565 974 q 590 1013 579 1006 q 611 1019 601 1019 z "},"Ì":{"ha":347,"x_min":0,"x_max":407,"o":"m 7 29 q 23 101 15 65 q 43 174 31 138 q 214 814 182 701 q 251 850 224 850 q 274 849 263 850 q 299 849 285 849 q 338 849 318 849 q 375 850 357 850 l 407 850 l 183 6 l 0 6 l 7 29 m 329 1021 q 350 1014 339 1021 q 364 1000 361 1007 q 384 949 375 975 q 403 896 393 924 q 324 885 356 886 q 263 897 292 883 q 201 940 233 910 q 124 1022 169 969 l 231 1022 q 329 1021 281 1022 z "},"Ë":{"ha":890,"x_min":7,"x_max":996,"o":"m 7 3 q 53 169 31 89 q 100 335 76 249 l 225 778 l 225 776 q 239 818 233 803 q 253 840 244 833 q 278 847 263 846 q 321 849 293 849 l 636 849 q 794 849 715 849 q 951 850 872 850 l 996 850 l 969 753 q 963 729 967 742 l 954 704 l 383 704 q 357 615 369 661 q 333 526 344 569 l 329 499 l 865 499 q 844 424 854 456 q 824 353 835 393 l 400 353 q 354 354 378 353 q 300 343 318 356 q 275 293 282 331 q 271 276 274 285 q 264 252 268 267 q 253 216 260 238 q 235 161 246 194 l 783 161 q 759 83 769 119 q 735 10 749 46 q 727 5 733 7 q 717 3 721 3 l 7 3 m 435 886 q 449 956 439 931 q 478 994 458 982 q 533 1006 499 1006 q 624 997 568 1006 q 610 944 617 971 q 596 889 603 917 q 576 887 585 888 q 556 886 567 886 l 435 886 m 635 886 q 649 956 639 931 q 678 994 658 982 q 733 1006 699 1006 q 824 997 768 1006 q 810 944 817 971 q 796 889 803 917 q 776 887 785 888 q 756 886 767 886 l 635 886 z "},"Í":{"ha":347,"x_min":0,"x_max":526,"o":"m 7 29 q 23 101 15 65 q 43 174 31 138 q 214 814 182 701 q 251 850 224 850 q 274 849 263 850 q 299 849 285 849 q 338 849 318 849 q 375 850 357 850 l 407 850 l 183 6 l 0 6 l 7 29 m 321 1021 q 419 1022 369 1022 l 526 1022 q 449 940 481 969 q 388 897 417 910 q 326 885 358 883 q 247 896 294 886 q 266 949 257 924 q 286 1000 275 975 q 300 1014 289 1007 q 321 1021 311 1021 z "},"Î":{"ha":347,"x_min":0,"x_max":553,"o":"m 7 29 q 23 101 15 65 q 43 174 31 138 q 214 814 182 701 q 251 850 224 850 q 274 849 263 850 q 299 849 285 849 q 338 849 318 849 q 375 850 357 850 l 407 850 l 183 6 l 0 6 l 7 29 m 264 1050 l 358 1050 q 373 1051 365 1050 q 392 1051 381 1051 l 421 1051 q 442 1026 428 1043 q 475 987 457 1008 q 513 940 493 965 q 553 892 533 915 q 503 888 529 892 q 453 883 478 885 q 406 883 428 882 q 371 896 385 885 q 362 905 367 897 q 351 922 357 913 q 341 940 346 931 q 333 954 336 949 q 304 919 319 935 q 278 896 289 903 q 234 882 258 883 q 184 883 210 881 q 132 890 158 886 q 81 894 106 894 q 178 980 129 936 q 264 1050 228 1024 z "},"Ï":{"ha":347,"x_min":0,"x_max":538,"o":"m 7 29 q 23 101 15 65 q 43 174 31 138 q 214 814 182 701 q 251 850 224 850 q 274 849 263 850 q 299 849 285 849 q 338 849 318 849 q 375 850 357 850 l 407 850 l 183 6 l 0 6 l 7 29 m 149 885 q 163 955 153 929 q 192 992 172 981 q 247 1004 213 1004 q 338 996 282 1004 q 324 942 331 969 q 310 888 317 915 q 290 885 299 886 q 269 885 281 885 l 149 885 m 349 885 q 363 955 353 929 q 392 992 372 981 q 447 1004 413 1004 q 538 996 482 1004 q 524 942 531 969 q 510 888 517 915 q 490 885 499 886 q 469 885 481 885 l 349 885 z "},"Ð":{"ha":1115,"x_min":39,"x_max":1082,"o":"m 626 4 q 364 0 494 0 q 287 1 325 0 q 210 1 249 1 q 126 2 169 1 q 39 3 82 3 q 90 206 65 108 l 140 400 l 50 400 q 47 411 49 407 q 47 418 46 415 q 71 492 64 467 q 88 529 78 518 q 118 541 99 540 q 176 542 138 542 l 178 544 l 178 543 l 208 647 q 231 732 219 689 q 254 817 243 775 q 271 842 260 836 q 299 850 282 849 q 401 849 351 849 l 650 849 q 794 846 722 849 q 888 834 839 844 q 978 808 938 824 q 1054 749 1026 789 q 1082 660 1082 708 q 1081 640 1082 650 q 1076 619 1079 629 q 1033 444 1057 531 q 985 271 1010 358 q 853 72 946 136 q 626 4 761 8 m 493 542 q 498 533 496 536 q 499 528 500 531 q 479 455 488 481 q 456 417 471 429 q 413 403 440 406 q 336 400 386 400 l 322 400 l 261 153 l 379 158 q 529 164 457 161 q 672 174 601 167 q 743 203 710 176 q 792 269 776 229 l 814 347 q 844 453 829 400 q 871 558 858 506 q 862 651 886 615 q 778 690 838 688 q 617 694 699 694 q 570 694 593 694 q 524 693 547 693 q 462 692 496 693 q 400 692 428 692 l 367 568 l 360 542 l 493 542 z "},"Ñ":{"ha":981,"x_min":-1,"x_max":1018,"o":"m 151 -3 q 86 -6 119 -6 l -1 -6 l 10 42 l 44 176 q 99 413 72 294 q 154 651 126 531 l 174 739 q 189 784 181 765 q 210 815 197 803 q 242 835 222 828 q 292 847 263 843 q 318 850 310 849 q 333 852 326 851 q 346 853 339 853 l 372 853 q 417 847 399 851 q 447 834 435 843 q 467 808 460 825 q 482 767 475 792 q 516 640 500 703 q 547 514 532 578 l 576 392 l 583 364 q 612 262 596 315 q 660 131 628 208 q 704 303 681 213 q 751 485 728 393 q 799 666 775 576 q 844 850 822 756 l 1018 850 l 889 324 l 889 325 l 867 246 q 845 163 856 206 q 824 78 835 119 q 790 21 814 42 q 732 -3 765 0 q 655 -3 693 -4 q 578 1 617 -1 q 545 3 563 1 q 513 4 528 4 q 481 18 492 6 q 465 50 469 31 q 395 338 431 194 q 324 626 360 482 l 319 608 l 275 431 q 254 347 264 390 q 235 260 244 303 l 178 21 q 168 5 176 13 q 153 -3 160 -3 l 151 -3 m 763 1018 q 833 1033 794 1032 q 911 1039 872 1035 q 872 950 899 983 q 812 901 846 917 q 740 888 778 886 q 665 901 701 889 q 631 915 647 908 q 599 924 615 922 q 565 922 582 926 q 528 903 549 918 q 503 893 518 894 q 472 893 489 892 q 435 897 454 894 q 399 900 417 900 q 516 1027 439 994 q 700 1010 593 1060 q 732 1006 719 1001 q 763 1018 744 1010 z "},"Ò":{"ha":956,"x_min":-7,"x_max":983,"o":"m 117 15 q 24 69 54 29 q -7 163 -7 108 q -1 208 -7 190 l 13 272 q 49 433 31 353 q 86 592 67 513 q 152 729 107 676 q 263 812 197 782 q 411 852 328 842 q 593 863 494 863 q 711 857 651 863 q 833 838 771 851 q 951 783 919 818 q 983 697 983 747 q 974 592 983 649 q 948 477 964 536 q 914 358 932 418 q 879 243 896 297 q 801 103 849 154 q 691 27 753 53 q 555 -5 629 1 q 397 -11 481 -11 q 235 -3 300 -11 q 117 15 169 4 m 199 271 q 196 256 196 263 q 216 197 196 218 q 269 164 236 175 q 346 150 303 153 q 435 147 389 147 q 522 149 482 147 q 593 161 561 151 q 649 192 625 171 q 689 251 674 214 l 689 250 q 738 403 717 329 q 778 554 760 478 l 788 596 q 789 615 789 599 q 778 656 789 639 q 748 685 767 674 q 706 701 729 696 q 658 706 683 706 l 497 706 q 433 703 465 706 q 370 690 400 700 q 317 659 340 679 q 283 604 294 639 q 234 433 254 515 q 199 271 214 351 m 578 1024 q 599 1017 588 1024 q 613 1003 610 1010 q 633 952 624 978 q 651 899 642 926 q 572 888 604 889 q 511 899 540 886 q 450 942 482 913 q 372 1025 418 972 l 479 1025 q 578 1024 529 1025 z "},"Ó":{"ha":956,"x_min":-7,"x_max":983,"o":"m 117 15 q 24 69 54 29 q -7 163 -7 108 q -1 208 -7 190 l 13 272 q 49 433 31 353 q 86 592 67 513 q 152 729 107 676 q 263 812 197 782 q 411 852 328 842 q 593 863 494 863 q 711 857 651 863 q 833 838 771 851 q 951 783 919 818 q 983 697 983 747 q 974 592 983 649 q 948 477 964 536 q 914 358 932 418 q 879 243 896 297 q 801 103 849 154 q 691 27 753 53 q 555 -5 629 1 q 397 -11 481 -11 q 235 -3 300 -11 q 117 15 169 4 m 199 271 q 196 256 196 263 q 216 197 196 218 q 269 164 236 175 q 346 150 303 153 q 435 147 389 147 q 522 149 482 147 q 593 161 561 151 q 649 192 625 171 q 689 251 674 214 l 689 250 q 738 403 717 329 q 778 554 760 478 l 788 596 q 789 615 789 599 q 778 656 789 639 q 748 685 767 674 q 706 701 729 696 q 658 706 683 706 l 497 706 q 433 703 465 706 q 370 690 400 700 q 317 659 340 679 q 283 604 294 639 q 234 433 254 515 q 199 271 214 351 m 565 1021 q 664 1022 614 1022 l 771 1022 q 693 940 725 969 q 632 897 661 910 q 571 885 603 883 q 492 896 539 886 q 510 949 501 924 q 531 1000 519 975 q 544 1014 533 1007 q 565 1021 556 1021 z "},"Ô":{"ha":956,"x_min":-7,"x_max":983,"o":"m 117 15 q 24 69 54 29 q -7 163 -7 108 q -1 208 -7 190 l 13 272 q 49 433 31 353 q 86 592 67 513 q 152 729 107 676 q 263 812 197 782 q 411 852 328 842 q 593 863 494 863 q 711 857 651 863 q 833 838 771 851 q 951 783 919 818 q 983 697 983 747 q 974 592 983 649 q 948 477 964 536 q 914 358 932 418 q 879 243 896 297 q 801 103 849 154 q 691 27 753 53 q 555 -5 629 1 q 397 -11 481 -11 q 235 -3 300 -11 q 117 15 169 4 m 199 271 q 196 256 196 263 q 216 197 196 218 q 269 164 236 175 q 346 150 303 153 q 435 147 389 147 q 522 149 482 147 q 593 161 561 151 q 649 192 625 171 q 689 251 674 214 l 689 250 q 738 403 717 329 q 778 554 760 478 l 788 596 q 789 615 789 599 q 778 656 789 639 q 748 685 767 674 q 706 701 729 696 q 658 706 683 706 l 497 706 q 433 703 465 706 q 370 690 400 700 q 317 659 340 679 q 283 604 294 639 q 234 433 254 515 q 199 271 214 351 m 526 1053 l 621 1053 q 635 1053 628 1053 q 654 1054 643 1054 l 683 1054 q 705 1028 690 1046 q 738 990 719 1011 q 776 943 756 968 q 815 894 796 918 q 766 891 792 894 q 715 886 740 888 q 669 886 690 885 q 633 899 647 888 q 624 908 629 900 q 614 924 619 915 q 603 942 608 933 q 596 957 599 951 q 567 922 582 938 q 540 899 551 906 q 497 885 521 886 q 447 886 472 883 q 394 893 421 889 q 343 897 368 897 q 441 983 392 939 q 526 1053 490 1026 z "},"Õ":{"ha":956,"x_min":-7,"x_max":983,"o":"m 117 15 q 24 69 54 29 q -7 163 -7 108 q -1 208 -7 190 l 13 272 q 49 433 31 353 q 86 592 67 513 q 152 729 107 676 q 263 812 197 782 q 411 852 328 842 q 593 863 494 863 q 711 857 651 863 q 833 838 771 851 q 951 783 919 818 q 983 697 983 747 q 974 592 983 649 q 948 477 964 536 q 914 358 932 418 q 879 243 896 297 q 801 103 849 154 q 691 27 753 53 q 555 -5 629 1 q 397 -11 481 -11 q 235 -3 300 -11 q 117 15 169 4 m 199 271 q 196 256 196 263 q 216 197 196 218 q 269 164 236 175 q 346 150 303 153 q 435 147 389 147 q 522 149 482 147 q 593 161 561 151 q 649 192 625 171 q 689 251 674 214 l 689 250 q 738 403 717 329 q 778 554 760 478 l 788 596 q 789 615 789 599 q 778 656 789 639 q 748 685 767 674 q 706 701 729 696 q 658 706 683 706 l 497 706 q 433 703 465 706 q 370 690 400 700 q 317 659 340 679 q 283 604 294 639 q 234 433 254 515 q 199 271 214 351 m 694 1018 q 765 1033 726 1032 q 843 1039 804 1035 q 804 950 831 983 q 744 901 778 917 q 672 888 710 886 q 597 901 633 889 q 563 915 579 908 q 531 924 547 922 q 497 922 514 926 q 460 903 481 918 q 435 893 450 894 q 403 893 421 892 q 367 897 386 894 q 331 900 349 900 q 448 1027 371 994 q 632 1010 525 1060 q 664 1006 651 1001 q 694 1018 676 1010 z "},"Ö":{"ha":956,"x_min":-7,"x_max":983,"o":"m 117 15 q 24 69 54 29 q -7 163 -7 108 q -1 208 -7 190 l 13 272 q 49 433 31 353 q 86 592 67 513 q 152 729 107 676 q 263 812 197 782 q 411 852 328 842 q 593 863 494 863 q 711 857 651 863 q 833 838 771 851 q 951 783 919 818 q 983 697 983 747 q 974 592 983 649 q 948 477 964 536 q 914 358 932 418 q 879 243 896 297 q 801 103 849 154 q 691 27 753 53 q 555 -5 629 1 q 397 -11 481 -11 q 235 -3 300 -11 q 117 15 169 4 m 199 271 q 196 256 196 263 q 216 197 196 218 q 269 164 236 175 q 346 150 303 153 q 435 147 389 147 q 522 149 482 147 q 593 161 561 151 q 649 192 625 171 q 689 251 674 214 l 689 250 q 738 403 717 329 q 778 554 760 478 l 788 596 q 789 615 789 599 q 778 656 789 639 q 748 685 767 674 q 706 701 729 696 q 658 706 683 706 l 497 706 q 433 703 465 706 q 370 690 400 700 q 317 659 340 679 q 283 604 294 639 q 234 433 254 515 q 199 271 214 351 m 385 885 q 399 955 389 929 q 428 992 408 981 q 483 1004 449 1004 q 574 996 518 1004 q 560 942 567 969 q 546 888 553 915 q 526 885 535 886 q 506 885 517 885 l 385 885 m 585 885 q 599 955 589 929 q 628 992 608 981 q 683 1004 649 1004 q 774 996 718 1004 q 760 942 767 969 q 746 888 753 915 q 726 885 735 886 q 706 885 717 885 l 585 885 z "},"Ù":{"ha":951,"x_min":6,"x_max":1007,"o":"m 828 849 l 1007 849 l 953 644 q 895 433 925 540 q 835 221 865 325 q 764 103 808 147 q 660 37 719 60 q 530 7 601 14 q 379 0 458 0 q 232 5 300 0 q 113 27 164 10 q 34 77 63 44 q 6 165 6 110 q 15 231 6 196 q 64 426 39 331 q 118 621 89 521 l 118 619 l 172 819 q 183 843 175 833 q 206 853 190 853 q 236 852 221 853 q 269 851 251 851 l 354 851 q 320 718 336 781 q 288 592 304 656 q 253 458 272 528 q 211 300 235 388 q 206 274 207 286 q 204 251 204 263 q 257 173 204 190 q 421 156 310 156 q 522 163 478 156 q 600 187 567 169 q 656 235 633 204 q 690 313 678 265 q 759 577 726 447 q 826 842 792 707 l 828 849 m 576 1019 q 597 1013 586 1019 q 611 999 608 1006 q 631 948 622 974 q 650 894 640 922 q 571 883 603 885 q 510 895 539 882 q 449 938 481 908 q 371 1021 417 968 l 478 1021 q 576 1019 528 1021 z "},"Ø":{"ha":956,"x_min":-7,"x_max":983,"o":"m 117 15 q 24 69 56 29 q -7 163 -7 108 q -1 208 -7 186 l 13 272 q 49 433 31 353 q 86 592 67 513 q 152 729 107 676 q 263 812 197 782 q 411 852 328 842 q 593 863 494 863 l 617 863 l 629 886 q 650 908 636 897 q 678 919 664 918 q 760 922 718 922 q 847 921 801 921 l 804 843 l 833 838 q 951 783 919 818 q 983 697 983 747 q 973 592 983 649 q 947 477 963 536 q 914 358 932 418 q 879 243 896 297 q 811 116 853 165 q 717 39 769 67 q 601 1 664 11 q 467 -10 538 -10 l 393 -10 q 329 -8 360 -10 q 258 -49 300 -36 q 147 -64 215 -62 l 185 3 q 117 15 149 7 m 199 271 q 196 258 196 264 l 196 246 q 215 195 196 214 q 265 165 233 176 q 333 299 297 229 q 403 440 368 369 q 474 581 439 511 q 543 717 510 651 q 465 717 504 718 q 390 706 425 717 q 326 672 354 696 q 283 604 297 647 q 235 433 254 515 q 199 271 215 351 m 429 147 l 435 147 q 522 149 482 147 q 594 161 561 151 q 650 192 626 171 q 689 251 674 214 l 689 250 q 738 403 717 329 q 778 554 760 478 l 788 596 q 789 615 789 603 q 771 665 789 646 q 725 694 753 683 q 650 557 688 626 q 576 419 613 488 q 506 287 540 351 q 440 167 471 222 l 429 147 z "},"Ú":{"ha":951,"x_min":6,"x_max":1007,"o":"m 828 849 l 1007 849 l 953 644 q 895 433 925 540 q 835 221 865 325 q 764 103 808 147 q 660 37 719 60 q 530 7 601 14 q 379 0 458 0 q 232 5 300 0 q 113 27 164 10 q 34 77 63 44 q 6 165 6 110 q 15 231 6 196 q 64 426 39 331 q 118 621 89 521 l 118 619 l 172 819 q 183 843 175 833 q 206 853 190 853 q 236 852 221 853 q 269 851 251 851 l 354 851 q 320 718 336 781 q 288 592 304 656 q 253 458 272 528 q 211 300 235 388 q 206 274 207 286 q 204 251 204 263 q 257 173 204 190 q 421 156 310 156 q 522 163 478 156 q 600 187 567 169 q 656 235 633 204 q 690 313 678 265 q 759 577 726 447 q 826 842 792 707 l 828 849 m 557 1021 q 656 1022 606 1022 l 763 1022 q 685 940 717 969 q 624 897 653 910 q 563 885 594 883 q 483 896 531 886 q 502 949 493 924 q 522 1000 511 975 q 536 1014 525 1007 q 557 1021 547 1021 z "},"Û":{"ha":951,"x_min":6,"x_max":1007,"o":"m 828 849 l 1007 849 l 953 644 q 895 433 925 540 q 835 221 865 325 q 764 103 808 147 q 660 37 719 60 q 530 7 601 14 q 379 0 458 0 q 232 5 300 0 q 113 27 164 10 q 34 77 63 44 q 6 165 6 110 q 15 231 6 196 q 64 426 39 331 q 118 621 89 521 l 118 619 l 172 819 q 183 843 175 833 q 206 853 190 853 q 236 852 221 853 q 269 851 251 851 l 354 851 q 320 718 336 781 q 288 592 304 656 q 253 458 272 528 q 211 300 235 388 q 206 274 207 286 q 204 251 204 263 q 257 173 204 190 q 421 156 310 156 q 522 163 478 156 q 600 187 567 169 q 656 235 633 204 q 690 313 678 265 q 759 577 726 447 q 826 842 792 707 l 828 849 m 540 1054 l 635 1054 q 649 1055 642 1054 q 668 1056 657 1056 l 697 1056 q 719 1030 704 1047 q 751 991 733 1013 q 790 944 769 969 q 829 896 810 919 q 780 892 806 896 q 729 888 754 889 q 683 888 704 886 q 647 900 661 889 q 638 909 643 901 q 628 926 633 917 q 617 944 622 935 q 610 958 613 953 q 581 923 596 939 q 554 900 565 907 q 510 886 535 888 q 460 888 486 885 q 408 894 435 890 q 357 899 382 899 q 455 984 406 940 q 540 1054 504 1028 z "},"Ü":{"ha":951,"x_min":6,"x_max":1007,"o":"m 828 849 l 1007 849 l 953 644 q 895 433 925 540 q 835 221 865 325 q 764 103 808 147 q 660 37 719 60 q 530 7 601 14 q 379 0 458 0 q 232 5 300 0 q 113 27 164 10 q 34 77 63 44 q 6 165 6 110 q 15 231 6 196 q 64 426 39 331 q 118 621 89 521 l 118 619 l 172 819 q 183 843 175 833 q 206 853 190 853 q 236 852 221 853 q 269 851 251 851 l 354 851 q 320 718 336 781 q 288 592 304 656 q 253 458 272 528 q 211 300 235 388 q 206 274 207 286 q 204 251 204 263 q 257 173 204 190 q 421 156 310 156 q 522 163 478 156 q 600 187 567 169 q 656 235 633 204 q 690 313 678 265 q 759 577 726 447 q 826 842 792 707 l 828 849 m 396 885 q 410 955 400 929 q 440 992 419 981 q 494 1004 460 1004 q 585 996 529 1004 q 571 942 578 969 q 557 888 564 915 q 537 885 546 886 q 517 885 528 885 l 396 885 m 596 885 q 610 955 600 929 q 640 992 619 981 q 694 1004 660 1004 q 785 996 729 1004 q 771 942 778 969 q 757 888 764 915 q 737 885 746 886 q 717 885 728 885 l 596 885 z "},"Ý":{"ha":649,"x_min":0,"x_max":874,"o":"m 683 853 q 708 853 689 853 q 874 847 726 854 q 672 601 754 703 q 468 353 590 499 l 401 274 q 385 213 394 250 l 376 178 q 351 88 364 133 q 329 -1 338 43 l 144 -1 l 161 54 q 191 165 175 107 q 210 272 207 224 q 208 311 210 292 q 200 346 206 331 q 101 598 156 471 q 0 850 47 725 l 129 850 q 213 849 175 850 q 221 838 215 846 q 228 825 226 831 q 283 637 250 739 q 343 440 315 535 q 367 469 349 447 q 433 556 396 508 q 510 657 469 604 q 588 753 550 710 q 651 824 625 796 q 683 853 678 853 m 446 1024 q 544 1025 494 1025 l 651 1025 q 574 942 606 972 q 513 899 542 913 q 451 888 483 886 q 372 899 419 889 q 391 952 382 926 q 411 1003 400 978 q 425 1017 414 1010 q 446 1024 436 1024 z "},"Ÿ":{"ha":649,"x_min":0,"x_max":874,"o":"m 683 853 q 708 853 689 853 q 874 847 726 854 q 672 601 754 703 q 468 353 590 499 l 401 274 q 385 213 394 250 l 376 178 q 351 88 364 133 q 329 -1 338 43 l 144 -1 l 161 54 q 191 165 175 107 q 210 272 207 224 q 208 311 210 292 q 200 346 206 331 q 101 598 156 471 q 0 850 47 725 l 129 850 q 213 849 175 850 q 221 838 215 846 q 228 825 226 831 q 283 637 250 739 q 343 440 315 535 q 367 469 349 447 q 433 556 396 508 q 510 657 469 604 q 588 753 550 710 q 651 824 625 796 q 683 853 678 853 m 274 860 q 288 930 278 904 q 317 967 297 956 q 372 979 338 979 q 463 971 407 979 q 449 917 456 944 q 435 863 442 890 q 415 860 424 861 q 394 860 406 860 l 274 860 m 474 860 q 488 930 478 904 q 517 967 497 956 q 572 979 538 979 q 663 971 607 979 q 649 917 656 944 q 635 863 642 890 q 615 860 624 861 q 594 860 606 860 l 474 860 z "},"⁄":{"ha":207,"x_min":-215,"x_max":422,"o":"m 253 1131 q 335 1133 293 1133 q 422 1132 376 1132 l 46 442 q 38 429 42 435 q 32 417 35 424 q -13 333 4 363 q -54 291 -31 304 q -114 275 -78 278 q -215 272 -150 272 l -171 351 l 15 725 q 111 915 64 821 q 204 1097 158 1008 q 225 1119 211 1108 q 253 1131 239 1129 z "},"ˇ":{"ha":511,"x_min":19,"x_max":492,"o":"m 228 733 q 199 733 211 733 q 151 732 186 732 q 130 758 144 740 q 97 797 115 775 q 58 843 79 818 q 19 892 38 868 q 69 895 43 892 q 119 900 94 899 q 166 899 144 901 q 201 888 188 897 q 210 878 206 885 q 221 862 215 871 q 231 844 226 853 q 239 829 236 835 q 268 865 253 849 q 294 888 283 881 q 338 901 314 900 q 388 900 361 903 q 440 893 414 897 q 492 889 467 889 q 394 803 443 847 q 308 733 344 760 l 228 733 z "},"ž":{"ha":663,"x_min":-86,"x_max":675,"o":"m 674 649 q 656 549 675 590 q 606 477 636 508 q 537 420 575 446 q 464 367 499 394 q 321 261 393 313 q 169 153 249 210 l 588 153 q 565 87 575 118 q 542 25 554 56 q 528 11 539 18 q 507 4 517 4 q 210 3 358 3 q -86 4 63 4 q -72 94 -86 54 q -33 168 -58 135 q 24 229 -8 201 q 94 282 57 257 q 232 381 165 331 q 368 482 299 432 q 381 494 375 488 q 400 513 388 501 l 33 513 l 71 649 l 674 649 l 674 649 m 363 692 q 333 691 346 692 q 286 690 321 690 q 265 716 279 699 q 232 755 250 733 q 193 801 214 776 q 154 850 172 826 q 203 853 178 850 q 254 858 229 857 q 301 858 279 860 q 336 846 322 856 q 345 836 340 843 q 356 820 350 829 q 366 802 361 811 q 374 788 371 793 q 403 823 388 807 q 429 846 418 839 q 472 860 449 858 q 522 858 496 861 q 575 851 549 856 q 626 847 601 847 q 528 762 578 806 q 443 692 479 718 l 363 692 z "},"Ž":{"ha":901,"x_min":-19,"x_max":968,"o":"m 207 851 q 585 853 399 853 l 967 853 l 968 843 q 956 746 964 779 q 939 689 947 713 q 918 658 933 674 q 888 632 903 643 l 461 319 l 333 228 l 247 154 l 789 154 q 772 79 779 110 q 753 11 764 49 q 745 3 751 7 q 735 -1 739 -1 l -19 -1 q -17 13 -18 6 q -12 29 -15 21 q 21 147 0 90 q 97 246 42 204 q 277 378 185 308 q 457 514 369 447 l 710 706 l 157 706 l 164 736 q 192 840 176 789 q 198 847 193 843 q 207 851 203 851 m 568 886 q 539 885 551 886 q 492 885 526 885 q 470 910 485 893 q 438 949 456 928 q 399 996 419 971 q 360 1044 378 1021 q 409 1048 383 1044 q 460 1053 435 1051 q 506 1052 485 1054 q 542 1040 528 1050 q 551 1031 546 1038 q 561 1015 556 1024 q 572 997 567 1006 q 579 982 576 988 q 608 1017 593 1001 q 635 1040 624 1033 q 678 1054 654 1053 q 728 1053 701 1056 q 781 1046 754 1050 q 832 1042 807 1042 q 734 956 783 1000 q 649 886 685 913 l 568 886 z "},"Š":{"ha":901,"x_min":-6,"x_max":922,"o":"m 922 850 l 919 836 q 899 773 908 810 q 883 704 890 736 l 625 704 q 542 703 583 704 q 465 703 500 703 q 413 695 439 703 q 365 678 386 688 q 329 647 343 668 q 315 599 315 626 q 338 560 315 575 q 397 536 360 546 q 482 520 435 526 q 578 508 529 514 q 676 494 628 501 q 761 476 724 488 l 761 478 q 828 423 808 463 q 849 331 849 383 q 830 232 849 282 q 780 138 811 182 q 707 63 749 94 q 619 18 665 31 l 621 18 q 454 -1 538 -1 q 288 0 371 0 l 143 0 q 0 1 72 0 l -6 1 q 8 69 -3 22 q 24 131 18 117 q 39 157 29 146 q 68 169 49 168 q 266 162 168 165 q 464 158 364 158 q 599 185 554 158 q 643 276 643 211 q 635 315 643 300 q 614 338 626 329 q 585 349 601 346 q 554 351 569 351 q 389 374 471 365 q 224 397 307 382 q 142 438 169 407 q 115 517 115 468 q 119 554 115 533 q 171 706 136 647 q 263 796 206 765 q 403 840 321 826 q 599 853 486 853 q 736 851 669 853 q 868 850 803 850 l 922 850 m 625 889 q 596 888 608 889 q 549 888 583 888 q 527 913 542 896 q 494 952 513 931 q 456 999 476 974 q 417 1047 435 1024 q 466 1051 440 1047 q 517 1056 492 1054 q 563 1055 542 1057 q 599 1043 585 1053 q 608 1033 603 1040 q 618 1017 613 1026 q 628 999 624 1008 q 636 985 633 990 q 665 1020 650 1004 q 692 1043 681 1036 q 735 1057 711 1056 q 785 1056 758 1058 q 838 1049 811 1053 q 889 1044 864 1044 q 791 959 840 1003 q 706 889 742 915 l 625 889 z "},"š":{"ha":646,"x_min":-99,"x_max":647,"o":"m 224 140 q 267 144 238 140 q 326 155 297 147 q 376 176 356 163 q 394 211 397 190 q 390 227 393 219 q 381 242 388 235 q 360 255 374 250 q 326 261 347 260 q 212 268 268 265 q 99 283 156 271 q 18 325 39 296 q -3 415 -3 354 q 13 502 -3 461 q 56 573 28 543 q 122 622 83 603 q 208 643 161 640 q 392 647 300 647 q 517 647 454 647 q 647 646 581 646 q 632 578 640 611 q 617 510 624 546 l 292 510 q 260 508 276 510 q 229 500 243 506 q 206 483 215 494 q 196 453 196 471 q 203 427 196 436 q 223 414 211 418 q 248 409 235 410 q 274 407 261 408 q 372 397 322 401 q 469 383 421 393 q 553 344 529 372 q 576 256 576 315 q 515 76 576 143 q 338 3 453 10 q 250 -1 293 0 q 163 -3 207 -3 q 34 -1 99 -3 q -99 0 -31 0 q -83 81 -90 44 q -68 158 -76 118 q 77 147 6 153 q 224 140 149 140 m 372 689 q 343 688 356 689 q 296 688 331 688 q 274 713 289 696 q 242 752 260 731 q 203 799 224 774 q 164 847 182 824 q 213 851 188 847 q 264 856 239 854 q 310 855 289 857 q 346 843 332 853 q 355 833 350 840 q 365 817 360 826 q 376 799 371 808 q 383 785 381 790 q 413 820 397 804 q 439 843 428 836 q 482 857 458 856 q 532 856 506 858 q 585 849 558 853 q 636 844 611 844 q 538 759 588 803 q 453 689 489 715 l 372 689 z "},"ł":{"ha":519,"x_min":42,"x_max":493,"o":"m 474 683 q 483 672 483 674 q 492 597 490 624 q 483 553 493 569 q 449 524 474 536 q 379 494 425 513 l 358 486 l 347 443 l 236 3 l 50 3 q 94 182 71 90 q 139 361 117 274 l 150 404 l 60 371 q 54 381 57 378 q 51 386 51 383 q 45 469 49 443 q 49 509 42 496 q 81 530 57 522 q 154 558 104 538 q 173 567 164 563 q 193 574 182 571 q 231 714 213 643 l 267 856 q 282 884 274 876 q 311 890 290 892 q 367 889 339 889 l 461 889 l 401 654 l 474 683 z "},"Ł":{"ha":776,"x_min":-7,"x_max":714,"o":"m 0 0 l 68 278 l 68 276 l 88 349 l 11 321 q 6 331 8 328 q 3 336 3 333 q -3 419 0 393 q 1 459 -7 446 q 32 480 8 472 q 106 508 56 488 q 119 513 113 511 q 132 518 125 515 q 170 663 151 590 q 207 808 189 736 l 207 807 q 260 846 219 846 q 285 844 271 844 l 389 844 l 329 596 l 425 633 q 435 622 435 624 q 443 547 442 574 q 435 503 444 519 q 401 474 425 486 q 331 444 376 463 l 289 428 l 242 232 l 228 165 l 714 165 l 699 108 l 699 110 q 684 55 690 82 q 671 0 678 28 l 0 0 z "},"ﬂ":{"ha":589,"x_min":-40,"x_max":710,"o":"m -40 3 q 20 250 -8 128 q 78 499 49 372 l -36 499 q -22 569 -29 539 q -7 631 -14 599 q 6 636 4 636 q 101 655 68 625 q 149 749 133 685 q 179 813 158 786 q 228 856 200 839 q 290 881 257 872 q 358 893 322 890 q 467 897 413 899 q 582 894 521 894 q 566 817 574 854 q 551 739 558 781 q 476 744 514 742 q 400 744 438 746 q 332 720 350 744 q 307 640 314 696 l 501 640 q 479 569 490 601 q 458 499 468 538 q 383 498 421 499 q 307 499 346 497 q 274 492 285 500 q 257 460 264 483 q 199 231 229 344 q 136 3 168 118 l -40 3 m 560 890 q 615 889 588 889 l 710 889 l 596 443 l 485 3 l 299 3 q 342 182 319 90 q 388 361 365 274 l 417 479 l 442 574 q 479 714 461 643 l 515 856 q 531 884 522 876 q 560 890 539 892 z "},"ﬁ":{"ha":579,"x_min":-40,"x_max":642,"o":"m -40 3 q 20 250 -8 128 q 78 499 49 372 l -36 499 q -22 569 -29 539 q -7 631 -14 599 q 6 636 4 636 q 101 655 68 625 q 149 749 133 685 q 179 813 158 786 q 228 856 200 839 q 290 881 257 872 q 358 893 322 890 q 467 897 413 899 q 582 894 521 894 q 566 817 574 854 q 551 739 558 781 q 476 744 514 742 q 400 744 438 746 q 332 720 350 744 q 307 640 314 696 l 501 640 q 479 569 490 601 q 458 499 468 538 q 383 498 421 499 q 307 499 346 497 q 274 492 285 500 q 257 460 264 483 q 199 231 229 344 q 136 3 168 118 l -40 3 m 378 -1 q 307 1 342 1 q 232 0 272 0 q 317 324 276 165 q 400 643 358 483 l 581 643 q 548 504 564 572 q 514 367 532 436 q 470 203 492 283 q 429 40 449 124 q 413 6 424 15 q 378 -1 401 -3 m 642 889 q 640 875 640 881 l 640 867 q 615 769 625 803 q 583 721 604 735 q 524 708 563 707 q 415 717 485 710 q 434 792 426 756 q 453 864 442 828 q 465 880 456 872 q 482 888 475 888 q 562 890 522 890 q 642 889 601 889 z "},"Œ":{"ha":1611,"x_min":-7,"x_max":1769,"o":"m 781 3 q 796 60 788 32 q 813 117 804 89 q 661 15 750 40 q 467 -10 572 -10 q 351 -10 401 -11 q 258 -5 300 -8 q 182 3 217 -1 q 117 15 147 8 q 24 69 56 29 q -7 163 -7 108 q -1 208 -7 186 l 13 272 q 49 433 31 353 q 86 592 67 513 q 152 729 107 676 q 263 812 197 782 q 411 852 328 842 q 593 863 494 863 q 712 857 651 863 q 833 838 772 851 q 942 791 910 821 q 982 719 975 761 l 999 778 l 999 776 q 1013 818 1007 803 q 1027 840 1018 833 q 1051 847 1036 846 q 1094 849 1067 849 l 1410 849 q 1567 849 1489 849 q 1725 850 1646 850 l 1769 850 l 1743 753 q 1736 729 1740 742 l 1728 704 l 1157 704 q 1131 615 1143 661 q 1107 526 1118 569 l 1103 499 l 1639 499 q 1618 424 1628 456 q 1597 353 1608 393 l 1174 353 q 1128 354 1151 353 q 1074 343 1092 356 q 1049 293 1056 331 q 1044 276 1047 285 q 1038 252 1042 267 q 1026 216 1033 238 q 1008 161 1019 194 l 1557 161 q 1533 83 1543 119 q 1508 10 1522 46 q 1501 5 1507 7 q 1490 3 1494 3 l 781 3 m 199 271 q 196 258 196 264 l 196 246 q 217 193 196 213 q 273 163 239 174 q 350 150 307 153 q 435 147 393 147 q 522 149 482 147 q 594 161 561 151 q 650 192 626 171 q 689 251 674 214 l 689 250 q 738 403 717 329 q 778 554 760 478 l 788 596 q 789 615 789 603 q 769 667 789 647 q 721 697 750 686 q 656 711 692 707 q 590 715 621 715 q 502 718 549 717 q 413 711 456 719 q 335 678 369 703 q 283 604 300 654 q 235 433 254 515 q 199 271 215 351 z "},"„":{"ha":439,"x_min":21,"x_max":419,"o":"m 75 111 l 228 111 q 184 8 204 57 q 140 -89 164 -42 q 117 -115 131 -108 q 88 -124 104 -122 q 55 -122 72 -125 q 21 -121 38 -119 l 75 111 m 267 111 l 419 111 q 376 8 396 57 q 332 -89 356 -42 q 309 -115 322 -108 q 280 -124 296 -122 q 247 -122 264 -125 q 213 -121 229 -119 l 267 111 z "},"‚":{"ha":244,"x_min":19,"x_max":226,"o":"m 74 111 l 226 111 q 183 8 203 57 q 139 -89 163 -42 q 116 -115 129 -108 q 87 -124 103 -122 q 53 -122 71 -125 q 19 -121 36 -119 l 74 111 z "},"^":{"ha":607,"x_min":19,"x_max":588,"o":"m 257 918 l 351 918 q 366 919 358 918 q 385 919 374 919 l 414 919 l 588 706 q 538 702 564 706 q 488 697 513 699 q 441 697 463 696 q 406 710 419 699 q 390 727 401 711 q 365 763 378 743 q 340 799 351 782 q 326 822 329 817 q 303 795 319 813 q 270 760 288 778 q 238 728 253 742 q 217 711 222 714 q 173 697 197 699 q 123 699 149 696 q 71 706 97 701 q 19 710 44 710 q 76 761 43 731 q 144 822 110 792 q 209 879 179 853 q 257 918 239 906 z "},"~":{"ha":604,"x_min":18,"x_max":586,"o":"m 438 389 q 508 404 469 403 q 586 410 547 406 q 545 321 574 354 q 480 272 517 288 q 403 258 443 257 q 326 272 363 260 q 285 286 308 279 q 239 295 263 293 q 192 293 215 297 q 147 274 168 289 q 123 264 138 265 q 91 264 108 263 q 55 268 74 265 q 18 271 36 271 q 77 350 39 318 q 164 397 115 382 q 267 409 213 413 q 375 381 322 406 q 407 376 394 372 q 438 389 419 381 z "},"×":{"ha":422,"x_min":43,"x_max":385,"o":"m 44 571 q 48 579 47 575 q 51 583 49 583 q 117 609 93 601 q 157 611 140 617 q 189 585 174 606 q 228 522 204 564 l 321 617 q 330 614 326 614 q 335 611 333 614 q 372 546 360 569 q 383 503 385 522 q 363 463 381 483 q 311 406 346 442 l 297 392 l 374 253 q 366 244 368 247 q 361 240 364 242 q 291 215 314 224 q 255 208 268 206 q 231 230 242 211 q 197 289 219 249 q 156 249 178 269 q 110 203 135 228 q 101 208 104 207 q 96 213 97 210 q 56 287 69 264 q 44 324 43 310 q 64 356 46 339 q 119 413 82 374 l 125 418 l 44 571 l 44 571 z "},"A":{"ha":1035,"x_min":-3,"x_max":956,"o":"m 221 11 q 151 1 196 1 l -3 1 l 74 126 q 228 386 153 253 q 383 649 304 519 q 453 758 426 718 q 499 819 481 799 q 533 844 518 839 q 565 850 547 850 l 725 850 q 807 826 782 847 q 840 750 832 806 q 869 565 854 656 q 897 384 883 475 q 926 199 911 293 q 956 1 940 104 l 740 4 q 734 79 735 40 q 728 150 733 118 q 710 202 724 182 q 667 222 697 222 q 653 221 657 222 q 569 225 636 225 q 386 221 503 225 q 348 199 368 221 q 310 150 328 178 q 263 69 293 122 q 221 11 233 15 m 706 365 q 663 634 678 540 q 644 728 649 728 q 637 724 640 728 q 626 711 633 721 q 608 683 619 701 q 579 638 597 665 l 421 367 l 706 365 z "},"Đ":{"ha":1115,"x_min":10,"x_max":1082,"o":"m 513 501 q 517 493 515 496 q 518 488 519 490 q 499 415 507 440 q 475 377 490 389 q 433 363 460 365 q 356 360 406 360 q 185 359 269 358 q 14 360 100 360 q 11 371 13 367 q 11 378 10 375 q 35 458 29 432 q 53 492 42 483 q 90 501 65 501 q 169 501 115 500 q 342 502 257 503 q 513 501 426 501 m 626 4 q 364 0 494 0 q 287 1 325 0 q 210 1 249 1 q 126 2 169 1 q 39 3 82 3 q 108 277 75 147 q 178 544 142 407 l 178 543 l 208 647 q 231 732 219 689 q 254 817 243 775 q 271 842 260 836 q 299 850 282 849 q 401 849 351 849 l 650 849 q 794 846 722 849 q 888 834 839 844 q 978 808 938 824 q 1054 749 1026 789 q 1082 660 1082 708 q 1081 640 1082 650 q 1076 619 1079 629 q 1033 444 1057 531 q 985 271 1010 358 q 853 72 946 136 q 626 4 761 8 m 261 158 l 379 158 q 529 164 457 161 q 672 174 601 167 q 743 203 710 176 q 792 269 776 229 l 814 347 q 844 453 829 400 q 871 558 858 506 q 863 656 886 615 q 781 700 840 697 q 619 704 701 704 q 573 703 596 704 q 526 703 550 703 q 465 702 499 703 q 403 701 431 701 l 367 568 l 332 438 l 261 158 z "}}}
